{"glyphs":{"0":{"ha":1085,"x_min":50,"x_max":1035,"o":"m 526 511 q 481 430 501 467 q 433 344 460 393 q 319 436 363 374 q 283 506 297 467 q 268 593 268 544 q 283 682 268 643 q 318 751 297 721 q 433 843 361 811 l 433 667 l 526 667 l 526 960 q 382 925 442 956 q 278 850 322 894 q 206 743 236 808 q 183 675 192 711 q 174 596 174 639 q 192 480 174 529 q 236 390 210 431 q 379 264 290 310 q 410 251 394 257 q 444 240 426 244 q 522 228 479 231 q 525 228 522 228 l 526 228 l 526 235 l 526 511 m 550 675 q 596 756 575 719 q 643 842 617 792 q 757 749 714 810 q 794 680 779 718 q 808 592 808 642 q 794 503 808 543 q 758 435 779 464 q 643 342 715 374 l 643 519 l 550 519 l 550 226 q 694 261 635 231 q 799 336 754 292 q 871 443 844 382 q 894 510 885 474 q 903 589 903 547 q 885 706 903 656 q 840 796 868 756 q 777 867 813 836 q 697 921 742 899 q 632 946 669 935 q 594 953 614 950 q 554 957 575 957 q 553 958 556 957 q 550 958 551 958 l 550 951 l 550 675 m 543 101 q 354 138 443 101 q 194 246 265 175 q 87 406 124 317 q 50 594 50 494 q 87 783 50 694 q 194 942 124 872 q 354 1049 265 1013 q 543 1086 443 1086 q 731 1049 642 1086 q 890 942 819 1013 q 998 783 961 872 q 1035 594 1035 694 q 998 406 1035 494 q 890 246 961 317 q 731 138 819 175 q 543 101 642 101 m 543 1039 q 370 1004 451 1039 q 228 909 289 969 q 133 767 168 849 q 97 594 97 686 q 133 422 97 503 q 228 280 168 340 q 370 184 289 219 q 543 149 451 149 q 715 184 635 149 q 856 280 796 219 q 952 422 917 340 q 988 594 988 503 q 952 767 988 686 q 856 909 917 849 q 715 1004 796 969 q 543 1039 635 1039 m 326 569 l 340 567 q 328 550 336 556 q 310 544 317 544 q 290 551 300 544 q 283 572 283 561 q 289 593 283 582 q 301 607 293 603 q 318 613 308 613 q 336 607 325 613 q 343 592 343 600 l 331 590 l 326 599 q 318 600 324 600 q 308 597 311 600 q 300 586 301 593 q 297 572 297 578 q 301 560 297 564 q 310 556 303 556 q 319 560 315 556 q 326 569 324 563 m 390 575 l 365 575 l 358 546 l 344 546 l 358 611 l 372 611 l 367 586 l 392 586 l 397 611 l 411 611 l 397 546 l 383 546 l 390 575 m 425 546 l 411 546 l 425 611 l 454 611 q 465 610 463 611 q 472 604 471 607 q 475 594 475 599 q 469 581 475 585 q 454 574 467 576 l 460 568 q 465 558 463 564 q 469 546 467 553 l 456 546 q 453 553 454 549 q 449 563 451 557 q 445 568 446 565 q 442 572 444 571 l 436 572 l 431 572 l 425 546 m 432 583 l 439 583 l 454 583 q 457 585 456 585 q 460 588 458 586 q 461 594 461 590 q 458 599 461 599 q 450 600 457 600 l 436 600 l 432 583 m 476 546 l 490 611 l 503 611 l 489 546 l 476 546 m 504 567 l 517 568 q 519 560 517 563 q 529 556 521 556 q 539 558 536 556 q 542 564 542 560 q 540 569 542 568 q 531 574 539 569 l 519 579 q 514 585 515 581 q 513 593 513 588 q 518 607 513 601 q 535 613 524 613 q 553 607 547 613 q 560 593 560 600 l 547 592 q 543 599 547 596 q 535 601 542 601 q 528 600 529 601 q 525 594 525 599 q 526 590 525 592 q 531 588 528 589 q 536 585 533 588 q 546 581 543 582 q 551 578 549 579 q 556 565 556 571 q 549 551 556 558 q 529 544 542 544 q 515 547 524 544 q 507 556 508 551 q 504 567 504 558 m 621 546 l 607 546 l 594 611 l 608 611 l 617 561 l 643 611 l 657 611 l 621 546 m 649 546 l 663 611 l 675 611 l 661 546 l 649 546 m 675 546 l 689 611 l 701 611 l 690 557 l 724 557 l 721 546 l 675 546 m 731 546 l 743 611 l 792 611 l 790 600 l 754 600 l 751 586 l 785 586 l 783 575 l 750 575 l 746 557 l 783 557 l 781 546 l 731 546 m 292 624 l 294 642 l 300 642 q 301 640 301 640 l 304 640 l 306 640 q 307 639 306 639 l 307 636 l 307 633 l 307 629 q 304 626 304 626 q 301 625 301 625 q 297 624 300 624 l 292 624 m 296 626 l 297 626 q 300 628 300 626 l 301 628 q 303 631 303 629 q 304 635 304 632 q 303 636 304 636 q 301 638 303 638 q 300 639 301 639 l 297 639 l 296 626 m 308 624 l 313 642 l 325 642 l 324 638 l 315 638 l 314 635 l 322 635 l 322 632 l 314 632 l 313 626 l 322 626 l 321 624 l 308 624 m 325 629 l 328 629 l 328 628 q 331 626 329 626 q 333 628 333 626 q 335 629 335 628 l 333 631 l 332 632 q 329 633 329 632 q 328 635 328 633 q 326 636 326 636 q 327 638 326 638 q 328 640 328 639 q 330 641 329 640 q 332 642 331 642 q 335 641 335 642 q 338 640 336 640 q 339 636 339 639 l 336 636 q 335 638 335 638 q 332 639 335 639 q 331 638 331 639 l 331 636 q 333 635 331 635 q 336 632 336 632 q 338 629 338 632 q 336 625 338 626 q 334 624 335 625 q 331 624 333 624 q 328 625 329 624 q 325 626 325 626 l 325 629 m 340 624 l 343 642 l 347 642 l 343 624 l 340 624 m 356 633 l 363 633 l 361 626 q 358 625 361 625 q 354 624 357 624 q 352 624 353 624 q 350 625 351 625 q 347 631 347 628 q 349 636 347 635 q 351 640 349 638 q 353 641 353 640 q 357 642 354 642 q 359 641 358 642 q 361 640 360 640 q 364 636 364 638 l 361 636 q 360 638 360 638 q 357 639 358 639 q 354 638 354 638 q 351 635 351 638 l 351 631 l 351 628 q 353 627 353 628 q 354 626 353 626 l 357 626 q 358 628 358 628 l 360 631 l 356 631 l 356 633 m 378 624 l 375 624 l 371 636 l 368 624 l 365 624 l 368 642 l 371 642 l 376 629 l 378 642 l 382 642 l 378 624 m 382 624 l 385 642 l 397 642 l 397 638 l 388 638 l 388 635 l 396 635 l 396 632 l 386 632 l 386 626 l 396 626 l 394 624 l 382 624 m 397 624 l 401 642 l 406 642 q 407 641 407 642 q 408 640 407 640 l 410 640 l 411 640 q 413 639 413 639 l 413 636 q 414 633 414 635 q 413 631 414 632 q 413 629 413 631 q 410 626 410 626 q 407 625 408 625 q 403 624 406 624 l 397 624 m 401 626 l 403 626 q 406 628 406 626 l 407 628 l 410 631 l 410 635 l 410 636 l 408 638 q 407 638 407 638 q 406 639 407 639 l 404 639 l 401 626 m 421 624 l 424 642 l 431 642 l 432 640 l 435 640 l 436 639 l 436 638 l 436 635 q 433 633 435 633 q 435 632 435 632 q 436 629 436 631 q 435 626 436 628 l 433 625 q 431 624 432 625 q 429 624 431 624 l 421 624 m 425 626 l 428 626 q 431 628 431 626 l 432 628 l 432 629 l 432 631 q 429 632 431 632 l 425 632 l 425 626 m 426 635 l 429 635 l 432 635 l 433 636 q 432 638 433 638 l 429 638 l 426 638 l 426 635 m 446 624 l 443 624 l 444 631 l 439 642 l 443 642 l 446 636 l 446 633 q 447 635 447 635 l 449 638 l 451 642 l 456 642 l 447 631 l 446 624 m 550 622 l 547 622 l 546 635 l 540 622 l 536 622 l 536 640 l 539 640 l 539 628 l 546 640 l 549 640 l 550 628 l 556 640 l 558 640 l 550 622 m 572 622 l 569 622 l 568 635 l 563 622 l 558 622 l 558 640 l 561 640 l 561 628 l 568 640 l 571 640 l 572 628 l 578 640 l 581 640 l 572 622 m 594 622 l 592 622 l 590 635 l 585 622 l 581 622 l 581 640 l 583 640 l 583 628 l 590 640 l 593 640 l 594 628 l 600 640 l 603 640 l 594 622 m 600 626 l 603 626 l 603 622 l 599 622 l 600 626 m 618 629 l 621 628 q 618 624 621 626 q 616 623 617 624 q 614 622 615 622 q 608 625 611 622 q 607 629 607 625 q 608 635 607 633 q 611 639 608 636 q 613 640 613 639 q 615 640 614 640 q 617 640 617 640 q 618 639 617 639 l 619 639 q 622 635 622 636 l 618 635 l 618 636 q 617 637 617 636 q 615 638 617 638 q 613 636 614 636 q 611 633 611 635 q 610 629 610 632 q 610 628 610 628 q 611 626 611 628 q 614 625 613 625 q 617 626 615 626 q 618 629 617 628 m 635 631 l 628 631 l 626 622 l 622 622 l 626 640 l 629 640 l 628 633 l 635 633 l 636 640 l 639 640 l 636 622 l 632 622 l 635 631 m 643 622 l 639 622 l 643 640 l 650 640 q 652 640 651 640 q 654 639 653 639 l 656 638 l 656 635 q 654 632 656 632 q 651 631 654 631 l 651 628 q 654 622 654 625 l 651 622 q 649 628 651 622 q 647 629 649 629 l 646 629 l 644 629 l 643 622 m 644 632 l 647 632 l 650 632 l 651 633 l 653 635 q 651 636 653 636 q 650 638 651 638 l 646 638 l 644 632 m 657 622 l 660 640 l 664 640 l 660 622 l 657 622 m 664 628 l 667 628 l 667 626 q 668 626 668 626 q 669 625 668 625 q 672 626 672 625 q 674 628 674 626 l 672 629 l 671 631 q 668 632 668 631 q 667 633 667 632 q 665 635 665 635 q 666 637 665 636 q 667 639 667 638 q 669 640 668 639 q 671 640 669 640 q 674 640 674 640 q 676 639 675 639 q 678 635 678 638 l 675 635 q 674 636 674 636 q 671 638 674 638 q 669 636 669 638 l 669 635 q 672 633 669 633 q 675 631 675 631 q 676 628 676 631 q 675 624 676 625 q 673 623 674 624 q 669 622 672 622 q 667 624 668 622 q 664 625 664 625 l 664 628 m 688 622 l 683 622 l 681 640 l 683 640 l 686 626 l 693 640 l 696 640 l 688 622 m 694 622 l 697 640 l 701 640 l 697 622 l 694 622 m 701 622 l 704 640 l 708 640 l 706 625 l 714 625 l 713 622 l 701 622 m 715 622 l 718 640 l 731 640 l 731 638 l 722 638 l 721 633 l 729 633 l 729 631 l 721 631 l 719 625 l 729 625 l 728 622 l 715 622 m 732 626 l 735 626 l 735 622 l 731 622 l 732 626 m 750 629 l 753 628 q 750 624 753 626 q 748 623 749 624 q 746 622 747 622 q 740 625 743 622 q 739 629 739 625 q 740 635 739 633 q 743 639 740 636 q 745 640 744 639 q 747 640 746 640 q 749 640 749 640 q 750 639 749 639 l 751 639 q 754 635 754 636 l 750 635 l 750 636 q 749 637 749 636 q 747 638 749 638 q 746 637 746 638 q 744 636 746 636 q 743 633 743 635 q 742 629 742 632 q 743 626 742 628 q 746 625 744 625 l 747 626 q 750 629 747 626 m 756 629 l 756 632 q 757 634 757 633 q 758 636 757 635 q 761 639 758 639 q 765 640 763 640 q 769 638 767 640 q 772 633 772 635 q 772 630 772 631 q 771 628 771 629 l 767 624 q 765 623 765 624 q 763 622 764 622 q 758 624 760 622 q 756 626 758 624 l 756 629 m 758 629 q 759 628 758 628 q 760 626 760 628 q 761 626 761 626 q 763 625 761 625 q 764 626 764 625 q 765 626 764 626 q 768 629 765 626 l 768 633 q 767 636 768 635 q 764 638 765 638 q 761 635 761 638 q 758 629 758 632 m 782 622 l 779 622 l 778 638 l 776 622 l 772 622 l 776 640 l 781 640 l 782 628 l 788 640 l 792 640 l 789 622 l 786 622 l 789 636 l 782 622 z "},"1":{"ha":1085,"x_min":50,"x_max":1035,"o":"m 526 511 q 481 430 501 467 q 433 344 460 393 q 319 436 363 374 q 283 506 297 467 q 268 593 268 544 q 283 682 268 643 q 318 751 297 721 q 433 843 361 811 l 433 667 l 526 667 l 526 960 q 382 925 442 956 q 278 850 322 894 q 206 743 236 808 q 183 675 192 711 q 174 596 174 639 q 192 480 174 529 q 236 390 210 431 q 379 264 290 310 q 410 251 394 257 q 444 240 426 244 q 522 228 479 231 q 525 228 522 228 l 526 228 l 526 235 l 526 511 m 550 675 q 596 756 575 719 q 643 842 617 792 q 757 749 714 810 q 794 680 779 718 q 808 592 808 642 q 794 503 808 543 q 758 435 779 464 q 643 342 715 374 l 643 519 l 550 519 l 550 226 q 694 261 635 231 q 799 336 754 292 q 871 443 844 382 q 894 510 885 474 q 903 589 903 547 q 885 706 903 656 q 840 796 868 756 q 777 867 813 836 q 697 921 742 899 q 632 946 669 935 q 594 953 614 950 q 554 957 575 957 q 553 958 556 957 q 550 958 551 958 l 550 951 l 550 675 m 543 101 q 354 138 443 101 q 194 246 265 175 q 87 406 124 317 q 50 594 50 494 q 87 783 50 694 q 194 942 124 872 q 354 1049 265 1013 q 543 1086 443 1086 q 731 1049 642 1086 q 890 942 819 1013 q 998 783 961 872 q 1035 594 1035 694 q 998 406 1035 494 q 890 246 961 317 q 731 138 819 175 q 543 101 642 101 m 543 1039 q 370 1004 451 1039 q 228 909 289 969 q 133 767 168 849 q 97 594 97 686 q 133 422 97 503 q 228 280 168 340 q 370 184 289 219 q 543 149 451 149 q 715 184 635 149 q 856 280 796 219 q 952 422 917 340 q 988 594 988 503 q 952 767 988 686 q 856 909 917 849 q 715 1004 796 969 q 543 1039 635 1039 m 326 569 l 340 567 q 328 550 336 556 q 310 544 317 544 q 290 551 300 544 q 283 572 283 561 q 289 593 283 582 q 301 607 293 603 q 318 613 308 613 q 336 607 325 613 q 343 592 343 600 l 331 590 l 326 599 q 318 600 324 600 q 308 597 311 600 q 300 586 301 593 q 297 572 297 578 q 301 560 297 564 q 310 556 303 556 q 319 560 315 556 q 326 569 324 563 m 390 575 l 365 575 l 358 546 l 344 546 l 358 611 l 372 611 l 367 586 l 392 586 l 397 611 l 411 611 l 397 546 l 383 546 l 390 575 m 425 546 l 411 546 l 425 611 l 454 611 q 465 610 463 611 q 472 604 471 607 q 475 594 475 599 q 469 581 475 585 q 454 574 467 576 l 460 568 q 465 558 463 564 q 469 546 467 553 l 456 546 q 453 553 454 549 q 449 563 451 557 q 445 568 446 565 q 442 572 444 571 l 436 572 l 431 572 l 425 546 m 432 583 l 439 583 l 454 583 q 457 585 456 585 q 460 588 458 586 q 461 594 461 590 q 458 599 461 599 q 450 600 457 600 l 436 600 l 432 583 m 476 546 l 490 611 l 503 611 l 489 546 l 476 546 m 504 567 l 517 568 q 519 560 517 563 q 529 556 521 556 q 539 558 536 556 q 542 564 542 560 q 540 569 542 568 q 531 574 539 569 l 519 579 q 514 585 515 581 q 513 593 513 588 q 518 607 513 601 q 535 613 524 613 q 553 607 547 613 q 560 593 560 600 l 547 592 q 543 599 547 596 q 535 601 542 601 q 528 600 529 601 q 525 594 525 599 q 526 590 525 592 q 531 588 528 589 q 536 585 533 588 q 546 581 543 582 q 551 578 549 579 q 556 565 556 571 q 549 551 556 558 q 529 544 542 544 q 515 547 524 544 q 507 556 508 551 q 504 567 504 558 m 621 546 l 607 546 l 594 611 l 608 611 l 617 561 l 643 611 l 657 611 l 621 546 m 649 546 l 663 611 l 675 611 l 661 546 l 649 546 m 675 546 l 689 611 l 701 611 l 690 557 l 724 557 l 721 546 l 675 546 m 731 546 l 743 611 l 792 611 l 790 600 l 754 600 l 751 586 l 785 586 l 783 575 l 750 575 l 746 557 l 783 557 l 781 546 l 731 546 m 292 624 l 294 642 l 300 642 q 301 640 301 640 l 304 640 l 306 640 q 307 639 306 639 l 307 636 l 307 633 l 307 629 q 304 626 304 626 q 301 625 301 625 q 297 624 300 624 l 292 624 m 296 626 l 297 626 q 300 628 300 626 l 301 628 q 303 631 303 629 q 304 635 304 632 q 303 636 304 636 q 301 638 303 638 q 300 639 301 639 l 297 639 l 296 626 m 308 624 l 313 642 l 325 642 l 324 638 l 315 638 l 314 635 l 322 635 l 322 632 l 314 632 l 313 626 l 322 626 l 321 624 l 308 624 m 325 629 l 328 629 l 328 628 q 331 626 329 626 q 333 628 333 626 q 335 629 335 628 l 333 631 l 332 632 q 329 633 329 632 q 328 635 328 633 q 326 636 326 636 q 327 638 326 638 q 328 640 328 639 q 330 641 329 640 q 332 642 331 642 q 335 641 335 642 q 338 640 336 640 q 339 636 339 639 l 336 636 q 335 638 335 638 q 332 639 335 639 q 331 638 331 639 l 331 636 q 333 635 331 635 q 336 632 336 632 q 338 629 338 632 q 336 625 338 626 q 334 624 335 625 q 331 624 333 624 q 328 625 329 624 q 325 626 325 626 l 325 629 m 340 624 l 343 642 l 347 642 l 343 624 l 340 624 m 356 633 l 363 633 l 361 626 q 358 625 361 625 q 354 624 357 624 q 352 624 353 624 q 350 625 351 625 q 347 631 347 628 q 349 636 347 635 q 351 640 349 638 q 353 641 353 640 q 357 642 354 642 q 359 641 358 642 q 361 640 360 640 q 364 636 364 638 l 361 636 q 360 638 360 638 q 357 639 358 639 q 354 638 354 638 q 351 635 351 638 l 351 631 l 351 628 q 353 627 353 628 q 354 626 353 626 l 357 626 q 358 628 358 628 l 360 631 l 356 631 l 356 633 m 378 624 l 375 624 l 371 636 l 368 624 l 365 624 l 368 642 l 371 642 l 376 629 l 378 642 l 382 642 l 378 624 m 382 624 l 385 642 l 397 642 l 397 638 l 388 638 l 388 635 l 396 635 l 396 632 l 386 632 l 386 626 l 396 626 l 394 624 l 382 624 m 397 624 l 401 642 l 406 642 q 407 641 407 642 q 408 640 407 640 l 410 640 l 411 640 q 413 639 413 639 l 413 636 q 414 633 414 635 q 413 631 414 632 q 413 629 413 631 q 410 626 410 626 q 407 625 408 625 q 403 624 406 624 l 397 624 m 401 626 l 403 626 q 406 628 406 626 l 407 628 l 410 631 l 410 635 l 410 636 l 408 638 q 407 638 407 638 q 406 639 407 639 l 404 639 l 401 626 m 421 624 l 424 642 l 431 642 l 432 640 l 435 640 l 436 639 l 436 638 l 436 635 q 433 633 435 633 q 435 632 435 632 q 436 629 436 631 q 435 626 436 628 l 433 625 q 431 624 432 625 q 429 624 431 624 l 421 624 m 425 626 l 428 626 q 431 628 431 626 l 432 628 l 432 629 l 432 631 q 429 632 431 632 l 425 632 l 425 626 m 426 635 l 429 635 l 432 635 l 433 636 q 432 638 433 638 l 429 638 l 426 638 l 426 635 m 446 624 l 443 624 l 444 631 l 439 642 l 443 642 l 446 636 l 446 633 q 447 635 447 635 l 449 638 l 451 642 l 456 642 l 447 631 l 446 624 m 550 622 l 547 622 l 546 635 l 540 622 l 536 622 l 536 640 l 539 640 l 539 628 l 546 640 l 549 640 l 550 628 l 556 640 l 558 640 l 550 622 m 572 622 l 569 622 l 568 635 l 563 622 l 558 622 l 558 640 l 561 640 l 561 628 l 568 640 l 571 640 l 572 628 l 578 640 l 581 640 l 572 622 m 594 622 l 592 622 l 590 635 l 585 622 l 581 622 l 581 640 l 583 640 l 583 628 l 590 640 l 593 640 l 594 628 l 600 640 l 603 640 l 594 622 m 600 626 l 603 626 l 603 622 l 599 622 l 600 626 m 618 629 l 621 628 q 618 624 621 626 q 616 623 617 624 q 614 622 615 622 q 608 625 611 622 q 607 629 607 625 q 608 635 607 633 q 611 639 608 636 q 613 640 613 639 q 615 640 614 640 q 617 640 617 640 q 618 639 617 639 l 619 639 q 622 635 622 636 l 618 635 l 618 636 q 617 637 617 636 q 615 638 617 638 q 613 636 614 636 q 611 633 611 635 q 610 629 610 632 q 610 628 610 628 q 611 626 611 628 q 614 625 613 625 q 617 626 615 626 q 618 629 617 628 m 635 631 l 628 631 l 626 622 l 622 622 l 626 640 l 629 640 l 628 633 l 635 633 l 636 640 l 639 640 l 636 622 l 632 622 l 635 631 m 643 622 l 639 622 l 643 640 l 650 640 q 652 640 651 640 q 654 639 653 639 l 656 638 l 656 635 q 654 632 656 632 q 651 631 654 631 l 651 628 q 654 622 654 625 l 651 622 q 649 628 651 622 q 647 629 649 629 l 646 629 l 644 629 l 643 622 m 644 632 l 647 632 l 650 632 l 651 633 l 653 635 q 651 636 653 636 q 650 638 651 638 l 646 638 l 644 632 m 657 622 l 660 640 l 664 640 l 660 622 l 657 622 m 664 628 l 667 628 l 667 626 q 668 626 668 626 q 669 625 668 625 q 672 626 672 625 q 674 628 674 626 l 672 629 l 671 631 q 668 632 668 631 q 667 633 667 632 q 665 635 665 635 q 666 637 665 636 q 667 639 667 638 q 669 640 668 639 q 671 640 669 640 q 674 640 674 640 q 676 639 675 639 q 678 635 678 638 l 675 635 q 674 636 674 636 q 671 638 674 638 q 669 636 669 638 l 669 635 q 672 633 669 633 q 675 631 675 631 q 676 628 676 631 q 675 624 676 625 q 673 623 674 624 q 669 622 672 622 q 667 624 668 622 q 664 625 664 625 l 664 628 m 688 622 l 683 622 l 681 640 l 683 640 l 686 626 l 693 640 l 696 640 l 688 622 m 694 622 l 697 640 l 701 640 l 697 622 l 694 622 m 701 622 l 704 640 l 708 640 l 706 625 l 714 625 l 713 622 l 701 622 m 715 622 l 718 640 l 731 640 l 731 638 l 722 638 l 721 633 l 729 633 l 729 631 l 721 631 l 719 625 l 729 625 l 728 622 l 715 622 m 732 626 l 735 626 l 735 622 l 731 622 l 732 626 m 750 629 l 753 628 q 750 624 753 626 q 748 623 749 624 q 746 622 747 622 q 740 625 743 622 q 739 629 739 625 q 740 635 739 633 q 743 639 740 636 q 745 640 744 639 q 747 640 746 640 q 749 640 749 640 q 750 639 749 639 l 751 639 q 754 635 754 636 l 750 635 l 750 636 q 749 637 749 636 q 747 638 749 638 q 746 637 746 638 q 744 636 746 636 q 743 633 743 635 q 742 629 742 632 q 743 626 742 628 q 746 625 744 625 l 747 626 q 750 629 747 626 m 756 629 l 756 632 q 757 634 757 633 q 758 636 757 635 q 761 639 758 639 q 765 640 763 640 q 769 638 767 640 q 772 633 772 635 q 772 630 772 631 q 771 628 771 629 l 767 624 q 765 623 765 624 q 763 622 764 622 q 758 624 760 622 q 756 626 758 624 l 756 629 m 758 629 q 759 628 758 628 q 760 626 760 628 q 761 626 761 626 q 763 625 761 625 q 764 626 764 625 q 765 626 764 626 q 768 629 765 626 l 768 633 q 767 636 768 635 q 764 638 765 638 q 761 635 761 638 q 758 629 758 632 m 782 622 l 779 622 l 778 638 l 776 622 l 772 622 l 776 640 l 781 640 l 782 628 l 788 640 l 792 640 l 789 622 l 786 622 l 789 636 l 782 622 z "},"2":{"ha":1085,"x_min":50,"x_max":1035,"o":"m 526 511 q 481 430 501 467 q 433 344 460 393 q 319 436 363 374 q 283 506 297 467 q 268 593 268 544 q 283 682 268 643 q 318 751 297 721 q 433 843 361 811 l 433 667 l 526 667 l 526 960 q 382 925 442 956 q 278 850 322 894 q 206 743 236 808 q 183 675 192 711 q 174 596 174 639 q 192 480 174 529 q 236 390 210 431 q 379 264 290 310 q 410 251 394 257 q 444 240 426 244 q 522 228 479 231 q 525 228 522 228 l 526 228 l 526 235 l 526 511 m 550 675 q 596 756 575 719 q 643 842 617 792 q 757 749 714 810 q 794 680 779 718 q 808 592 808 642 q 794 503 808 543 q 758 435 779 464 q 643 342 715 374 l 643 519 l 550 519 l 550 226 q 694 261 635 231 q 799 336 754 292 q 871 443 844 382 q 894 510 885 474 q 903 589 903 547 q 885 706 903 656 q 840 796 868 756 q 777 867 813 836 q 697 921 742 899 q 632 946 669 935 q 594 953 614 950 q 554 957 575 957 q 553 958 556 957 q 550 958 551 958 l 550 951 l 550 675 m 543 101 q 354 138 443 101 q 194 246 265 175 q 87 406 124 317 q 50 594 50 494 q 87 783 50 694 q 194 942 124 872 q 354 1049 265 1013 q 543 1086 443 1086 q 731 1049 642 1086 q 890 942 819 1013 q 998 783 961 872 q 1035 594 1035 694 q 998 406 1035 494 q 890 246 961 317 q 731 138 819 175 q 543 101 642 101 m 543 1039 q 370 1004 451 1039 q 228 909 289 969 q 133 767 168 849 q 97 594 97 686 q 133 422 97 503 q 228 280 168 340 q 370 184 289 219 q 543 149 451 149 q 715 184 635 149 q 856 280 796 219 q 952 422 917 340 q 988 594 988 503 q 952 767 988 686 q 856 909 917 849 q 715 1004 796 969 q 543 1039 635 1039 m 326 569 l 340 567 q 328 550 336 556 q 310 544 317 544 q 290 551 300 544 q 283 572 283 561 q 289 593 283 582 q 301 607 293 603 q 318 613 308 613 q 336 607 325 613 q 343 592 343 600 l 331 590 l 326 599 q 318 600 324 600 q 308 597 311 600 q 300 586 301 593 q 297 572 297 578 q 301 560 297 564 q 310 556 303 556 q 319 560 315 556 q 326 569 324 563 m 390 575 l 365 575 l 358 546 l 344 546 l 358 611 l 372 611 l 367 586 l 392 586 l 397 611 l 411 611 l 397 546 l 383 546 l 390 575 m 425 546 l 411 546 l 425 611 l 454 611 q 465 610 463 611 q 472 604 471 607 q 475 594 475 599 q 469 581 475 585 q 454 574 467 576 l 460 568 q 465 558 463 564 q 469 546 467 553 l 456 546 q 453 553 454 549 q 449 563 451 557 q 445 568 446 565 q 442 572 444 571 l 436 572 l 431 572 l 425 546 m 432 583 l 439 583 l 454 583 q 457 585 456 585 q 460 588 458 586 q 461 594 461 590 q 458 599 461 599 q 450 600 457 600 l 436 600 l 432 583 m 476 546 l 490 611 l 503 611 l 489 546 l 476 546 m 504 567 l 517 568 q 519 560 517 563 q 529 556 521 556 q 539 558 536 556 q 542 564 542 560 q 540 569 542 568 q 531 574 539 569 l 519 579 q 514 585 515 581 q 513 593 513 588 q 518 607 513 601 q 535 613 524 613 q 553 607 547 613 q 560 593 560 600 l 547 592 q 543 599 547 596 q 535 601 542 601 q 528 600 529 601 q 525 594 525 599 q 526 590 525 592 q 531 588 528 589 q 536 585 533 588 q 546 581 543 582 q 551 578 549 579 q 556 565 556 571 q 549 551 556 558 q 529 544 542 544 q 515 547 524 544 q 507 556 508 551 q 504 567 504 558 m 621 546 l 607 546 l 594 611 l 608 611 l 617 561 l 643 611 l 657 611 l 621 546 m 649 546 l 663 611 l 675 611 l 661 546 l 649 546 m 675 546 l 689 611 l 701 611 l 690 557 l 724 557 l 721 546 l 675 546 m 731 546 l 743 611 l 792 611 l 790 600 l 754 600 l 751 586 l 785 586 l 783 575 l 750 575 l 746 557 l 783 557 l 781 546 l 731 546 m 292 624 l 294 642 l 300 642 q 301 640 301 640 l 304 640 l 306 640 q 307 639 306 639 l 307 636 l 307 633 l 307 629 q 304 626 304 626 q 301 625 301 625 q 297 624 300 624 l 292 624 m 296 626 l 297 626 q 300 628 300 626 l 301 628 q 303 631 303 629 q 304 635 304 632 q 303 636 304 636 q 301 638 303 638 q 300 639 301 639 l 297 639 l 296 626 m 308 624 l 313 642 l 325 642 l 324 638 l 315 638 l 314 635 l 322 635 l 322 632 l 314 632 l 313 626 l 322 626 l 321 624 l 308 624 m 325 629 l 328 629 l 328 628 q 331 626 329 626 q 333 628 333 626 q 335 629 335 628 l 333 631 l 332 632 q 329 633 329 632 q 328 635 328 633 q 326 636 326 636 q 327 638 326 638 q 328 640 328 639 q 330 641 329 640 q 332 642 331 642 q 335 641 335 642 q 338 640 336 640 q 339 636 339 639 l 336 636 q 335 638 335 638 q 332 639 335 639 q 331 638 331 639 l 331 636 q 333 635 331 635 q 336 632 336 632 q 338 629 338 632 q 336 625 338 626 q 334 624 335 625 q 331 624 333 624 q 328 625 329 624 q 325 626 325 626 l 325 629 m 340 624 l 343 642 l 347 642 l 343 624 l 340 624 m 356 633 l 363 633 l 361 626 q 358 625 361 625 q 354 624 357 624 q 352 624 353 624 q 350 625 351 625 q 347 631 347 628 q 349 636 347 635 q 351 640 349 638 q 353 641 353 640 q 357 642 354 642 q 359 641 358 642 q 361 640 360 640 q 364 636 364 638 l 361 636 q 360 638 360 638 q 357 639 358 639 q 354 638 354 638 q 351 635 351 638 l 351 631 l 351 628 q 353 627 353 628 q 354 626 353 626 l 357 626 q 358 628 358 628 l 360 631 l 356 631 l 356 633 m 378 624 l 375 624 l 371 636 l 368 624 l 365 624 l 368 642 l 371 642 l 376 629 l 378 642 l 382 642 l 378 624 m 382 624 l 385 642 l 397 642 l 397 638 l 388 638 l 388 635 l 396 635 l 396 632 l 386 632 l 386 626 l 396 626 l 394 624 l 382 624 m 397 624 l 401 642 l 406 642 q 407 641 407 642 q 408 640 407 640 l 410 640 l 411 640 q 413 639 413 639 l 413 636 q 414 633 414 635 q 413 631 414 632 q 413 629 413 631 q 410 626 410 626 q 407 625 408 625 q 403 624 406 624 l 397 624 m 401 626 l 403 626 q 406 628 406 626 l 407 628 l 410 631 l 410 635 l 410 636 l 408 638 q 407 638 407 638 q 406 639 407 639 l 404 639 l 401 626 m 421 624 l 424 642 l 431 642 l 432 640 l 435 640 l 436 639 l 436 638 l 436 635 q 433 633 435 633 q 435 632 435 632 q 436 629 436 631 q 435 626 436 628 l 433 625 q 431 624 432 625 q 429 624 431 624 l 421 624 m 425 626 l 428 626 q 431 628 431 626 l 432 628 l 432 629 l 432 631 q 429 632 431 632 l 425 632 l 425 626 m 426 635 l 429 635 l 432 635 l 433 636 q 432 638 433 638 l 429 638 l 426 638 l 426 635 m 446 624 l 443 624 l 444 631 l 439 642 l 443 642 l 446 636 l 446 633 q 447 635 447 635 l 449 638 l 451 642 l 456 642 l 447 631 l 446 624 m 550 622 l 547 622 l 546 635 l 540 622 l 536 622 l 536 640 l 539 640 l 539 628 l 546 640 l 549 640 l 550 628 l 556 640 l 558 640 l 550 622 m 572 622 l 569 622 l 568 635 l 563 622 l 558 622 l 558 640 l 561 640 l 561 628 l 568 640 l 571 640 l 572 628 l 578 640 l 581 640 l 572 622 m 594 622 l 592 622 l 590 635 l 585 622 l 581 622 l 581 640 l 583 640 l 583 628 l 590 640 l 593 640 l 594 628 l 600 640 l 603 640 l 594 622 m 600 626 l 603 626 l 603 622 l 599 622 l 600 626 m 618 629 l 621 628 q 618 624 621 626 q 616 623 617 624 q 614 622 615 622 q 608 625 611 622 q 607 629 607 625 q 608 635 607 633 q 611 639 608 636 q 613 640 613 639 q 615 640 614 640 q 617 640 617 640 q 618 639 617 639 l 619 639 q 622 635 622 636 l 618 635 l 618 636 q 617 637 617 636 q 615 638 617 638 q 613 636 614 636 q 611 633 611 635 q 610 629 610 632 q 610 628 610 628 q 611 626 611 628 q 614 625 613 625 q 617 626 615 626 q 618 629 617 628 m 635 631 l 628 631 l 626 622 l 622 622 l 626 640 l 629 640 l 628 633 l 635 633 l 636 640 l 639 640 l 636 622 l 632 622 l 635 631 m 643 622 l 639 622 l 643 640 l 650 640 q 652 640 651 640 q 654 639 653 639 l 656 638 l 656 635 q 654 632 656 632 q 651 631 654 631 l 651 628 q 654 622 654 625 l 651 622 q 649 628 651 622 q 647 629 649 629 l 646 629 l 644 629 l 643 622 m 644 632 l 647 632 l 650 632 l 651 633 l 653 635 q 651 636 653 636 q 650 638 651 638 l 646 638 l 644 632 m 657 622 l 660 640 l 664 640 l 660 622 l 657 622 m 664 628 l 667 628 l 667 626 q 668 626 668 626 q 669 625 668 625 q 672 626 672 625 q 674 628 674 626 l 672 629 l 671 631 q 668 632 668 631 q 667 633 667 632 q 665 635 665 635 q 666 637 665 636 q 667 639 667 638 q 669 640 668 639 q 671 640 669 640 q 674 640 674 640 q 676 639 675 639 q 678 635 678 638 l 675 635 q 674 636 674 636 q 671 638 674 638 q 669 636 669 638 l 669 635 q 672 633 669 633 q 675 631 675 631 q 676 628 676 631 q 675 624 676 625 q 673 623 674 624 q 669 622 672 622 q 667 624 668 622 q 664 625 664 625 l 664 628 m 688 622 l 683 622 l 681 640 l 683 640 l 686 626 l 693 640 l 696 640 l 688 622 m 694 622 l 697 640 l 701 640 l 697 622 l 694 622 m 701 622 l 704 640 l 708 640 l 706 625 l 714 625 l 713 622 l 701 622 m 715 622 l 718 640 l 731 640 l 731 638 l 722 638 l 721 633 l 729 633 l 729 631 l 721 631 l 719 625 l 729 625 l 728 622 l 715 622 m 732 626 l 735 626 l 735 622 l 731 622 l 732 626 m 750 629 l 753 628 q 750 624 753 626 q 748 623 749 624 q 746 622 747 622 q 740 625 743 622 q 739 629 739 625 q 740 635 739 633 q 743 639 740 636 q 745 640 744 639 q 747 640 746 640 q 749 640 749 640 q 750 639 749 639 l 751 639 q 754 635 754 636 l 750 635 l 750 636 q 749 637 749 636 q 747 638 749 638 q 746 637 746 638 q 744 636 746 636 q 743 633 743 635 q 742 629 742 632 q 743 626 742 628 q 746 625 744 625 l 747 626 q 750 629 747 626 m 756 629 l 756 632 q 757 634 757 633 q 758 636 757 635 q 761 639 758 639 q 765 640 763 640 q 769 638 767 640 q 772 633 772 635 q 772 630 772 631 q 771 628 771 629 l 767 624 q 765 623 765 624 q 763 622 764 622 q 758 624 760 622 q 756 626 758 624 l 756 629 m 758 629 q 759 628 758 628 q 760 626 760 628 q 761 626 761 626 q 763 625 761 625 q 764 626 764 625 q 765 626 764 626 q 768 629 765 626 l 768 633 q 767 636 768 635 q 764 638 765 638 q 761 635 761 638 q 758 629 758 632 m 782 622 l 779 622 l 778 638 l 776 622 l 772 622 l 776 640 l 781 640 l 782 628 l 788 640 l 792 640 l 789 622 l 786 622 l 789 636 l 782 622 z "},"3":{"ha":1085,"x_min":50,"x_max":1035,"o":"m 526 511 q 481 430 501 467 q 433 344 460 393 q 319 436 363 374 q 283 506 297 467 q 268 593 268 544 q 283 682 268 643 q 318 751 297 721 q 433 843 361 811 l 433 667 l 526 667 l 526 960 q 382 925 442 956 q 278 850 322 894 q 206 743 236 808 q 183 675 192 711 q 174 596 174 639 q 192 480 174 529 q 236 390 210 431 q 379 264 290 310 q 410 251 394 257 q 444 240 426 244 q 522 228 479 231 q 525 228 522 228 l 526 228 l 526 235 l 526 511 m 550 675 q 596 756 575 719 q 643 842 617 792 q 757 749 714 810 q 794 680 779 718 q 808 592 808 642 q 794 503 808 543 q 758 435 779 464 q 643 342 715 374 l 643 519 l 550 519 l 550 226 q 694 261 635 231 q 799 336 754 292 q 871 443 844 382 q 894 510 885 474 q 903 589 903 547 q 885 706 903 656 q 840 796 868 756 q 777 867 813 836 q 697 921 742 899 q 632 946 669 935 q 594 953 614 950 q 554 957 575 957 q 553 958 556 957 q 550 958 551 958 l 550 951 l 550 675 m 543 101 q 354 138 443 101 q 194 246 265 175 q 87 406 124 317 q 50 594 50 494 q 87 783 50 694 q 194 942 124 872 q 354 1049 265 1013 q 543 1086 443 1086 q 731 1049 642 1086 q 890 942 819 1013 q 998 783 961 872 q 1035 594 1035 694 q 998 406 1035 494 q 890 246 961 317 q 731 138 819 175 q 543 101 642 101 m 543 1039 q 370 1004 451 1039 q 228 909 289 969 q 133 767 168 849 q 97 594 97 686 q 133 422 97 503 q 228 280 168 340 q 370 184 289 219 q 543 149 451 149 q 715 184 635 149 q 856 280 796 219 q 952 422 917 340 q 988 594 988 503 q 952 767 988 686 q 856 909 917 849 q 715 1004 796 969 q 543 1039 635 1039 m 326 569 l 340 567 q 328 550 336 556 q 310 544 317 544 q 290 551 300 544 q 283 572 283 561 q 289 593 283 582 q 301 607 293 603 q 318 613 308 613 q 336 607 325 613 q 343 592 343 600 l 331 590 l 326 599 q 318 600 324 600 q 308 597 311 600 q 300 586 301 593 q 297 572 297 578 q 301 560 297 564 q 310 556 303 556 q 319 560 315 556 q 326 569 324 563 m 390 575 l 365 575 l 358 546 l 344 546 l 358 611 l 372 611 l 367 586 l 392 586 l 397 611 l 411 611 l 397 546 l 383 546 l 390 575 m 425 546 l 411 546 l 425 611 l 454 611 q 465 610 463 611 q 472 604 471 607 q 475 594 475 599 q 469 581 475 585 q 454 574 467 576 l 460 568 q 465 558 463 564 q 469 546 467 553 l 456 546 q 453 553 454 549 q 449 563 451 557 q 445 568 446 565 q 442 572 444 571 l 436 572 l 431 572 l 425 546 m 432 583 l 439 583 l 454 583 q 457 585 456 585 q 460 588 458 586 q 461 594 461 590 q 458 599 461 599 q 450 600 457 600 l 436 600 l 432 583 m 476 546 l 490 611 l 503 611 l 489 546 l 476 546 m 504 567 l 517 568 q 519 560 517 563 q 529 556 521 556 q 539 558 536 556 q 542 564 542 560 q 540 569 542 568 q 531 574 539 569 l 519 579 q 514 585 515 581 q 513 593 513 588 q 518 607 513 601 q 535 613 524 613 q 553 607 547 613 q 560 593 560 600 l 547 592 q 543 599 547 596 q 535 601 542 601 q 528 600 529 601 q 525 594 525 599 q 526 590 525 592 q 531 588 528 589 q 536 585 533 588 q 546 581 543 582 q 551 578 549 579 q 556 565 556 571 q 549 551 556 558 q 529 544 542 544 q 515 547 524 544 q 507 556 508 551 q 504 567 504 558 m 621 546 l 607 546 l 594 611 l 608 611 l 617 561 l 643 611 l 657 611 l 621 546 m 649 546 l 663 611 l 675 611 l 661 546 l 649 546 m 675 546 l 689 611 l 701 611 l 690 557 l 724 557 l 721 546 l 675 546 m 731 546 l 743 611 l 792 611 l 790 600 l 754 600 l 751 586 l 785 586 l 783 575 l 750 575 l 746 557 l 783 557 l 781 546 l 731 546 m 292 624 l 294 642 l 300 642 q 301 640 301 640 l 304 640 l 306 640 q 307 639 306 639 l 307 636 l 307 633 l 307 629 q 304 626 304 626 q 301 625 301 625 q 297 624 300 624 l 292 624 m 296 626 l 297 626 q 300 628 300 626 l 301 628 q 303 631 303 629 q 304 635 304 632 q 303 636 304 636 q 301 638 303 638 q 300 639 301 639 l 297 639 l 296 626 m 308 624 l 313 642 l 325 642 l 324 638 l 315 638 l 314 635 l 322 635 l 322 632 l 314 632 l 313 626 l 322 626 l 321 624 l 308 624 m 325 629 l 328 629 l 328 628 q 331 626 329 626 q 333 628 333 626 q 335 629 335 628 l 333 631 l 332 632 q 329 633 329 632 q 328 635 328 633 q 326 636 326 636 q 327 638 326 638 q 328 640 328 639 q 330 641 329 640 q 332 642 331 642 q 335 641 335 642 q 338 640 336 640 q 339 636 339 639 l 336 636 q 335 638 335 638 q 332 639 335 639 q 331 638 331 639 l 331 636 q 333 635 331 635 q 336 632 336 632 q 338 629 338 632 q 336 625 338 626 q 334 624 335 625 q 331 624 333 624 q 328 625 329 624 q 325 626 325 626 l 325 629 m 340 624 l 343 642 l 347 642 l 343 624 l 340 624 m 356 633 l 363 633 l 361 626 q 358 625 361 625 q 354 624 357 624 q 352 624 353 624 q 350 625 351 625 q 347 631 347 628 q 349 636 347 635 q 351 640 349 638 q 353 641 353 640 q 357 642 354 642 q 359 641 358 642 q 361 640 360 640 q 364 636 364 638 l 361 636 q 360 638 360 638 q 357 639 358 639 q 354 638 354 638 q 351 635 351 638 l 351 631 l 351 628 q 353 627 353 628 q 354 626 353 626 l 357 626 q 358 628 358 628 l 360 631 l 356 631 l 356 633 m 378 624 l 375 624 l 371 636 l 368 624 l 365 624 l 368 642 l 371 642 l 376 629 l 378 642 l 382 642 l 378 624 m 382 624 l 385 642 l 397 642 l 397 638 l 388 638 l 388 635 l 396 635 l 396 632 l 386 632 l 386 626 l 396 626 l 394 624 l 382 624 m 397 624 l 401 642 l 406 642 q 407 641 407 642 q 408 640 407 640 l 410 640 l 411 640 q 413 639 413 639 l 413 636 q 414 633 414 635 q 413 631 414 632 q 413 629 413 631 q 410 626 410 626 q 407 625 408 625 q 403 624 406 624 l 397 624 m 401 626 l 403 626 q 406 628 406 626 l 407 628 l 410 631 l 410 635 l 410 636 l 408 638 q 407 638 407 638 q 406 639 407 639 l 404 639 l 401 626 m 421 624 l 424 642 l 431 642 l 432 640 l 435 640 l 436 639 l 436 638 l 436 635 q 433 633 435 633 q 435 632 435 632 q 436 629 436 631 q 435 626 436 628 l 433 625 q 431 624 432 625 q 429 624 431 624 l 421 624 m 425 626 l 428 626 q 431 628 431 626 l 432 628 l 432 629 l 432 631 q 429 632 431 632 l 425 632 l 425 626 m 426 635 l 429 635 l 432 635 l 433 636 q 432 638 433 638 l 429 638 l 426 638 l 426 635 m 446 624 l 443 624 l 444 631 l 439 642 l 443 642 l 446 636 l 446 633 q 447 635 447 635 l 449 638 l 451 642 l 456 642 l 447 631 l 446 624 m 550 622 l 547 622 l 546 635 l 540 622 l 536 622 l 536 640 l 539 640 l 539 628 l 546 640 l 549 640 l 550 628 l 556 640 l 558 640 l 550 622 m 572 622 l 569 622 l 568 635 l 563 622 l 558 622 l 558 640 l 561 640 l 561 628 l 568 640 l 571 640 l 572 628 l 578 640 l 581 640 l 572 622 m 594 622 l 592 622 l 590 635 l 585 622 l 581 622 l 581 640 l 583 640 l 583 628 l 590 640 l 593 640 l 594 628 l 600 640 l 603 640 l 594 622 m 600 626 l 603 626 l 603 622 l 599 622 l 600 626 m 618 629 l 621 628 q 618 624 621 626 q 616 623 617 624 q 614 622 615 622 q 608 625 611 622 q 607 629 607 625 q 608 635 607 633 q 611 639 608 636 q 613 640 613 639 q 615 640 614 640 q 617 640 617 640 q 618 639 617 639 l 619 639 q 622 635 622 636 l 618 635 l 618 636 q 617 637 617 636 q 615 638 617 638 q 613 636 614 636 q 611 633 611 635 q 610 629 610 632 q 610 628 610 628 q 611 626 611 628 q 614 625 613 625 q 617 626 615 626 q 618 629 617 628 m 635 631 l 628 631 l 626 622 l 622 622 l 626 640 l 629 640 l 628 633 l 635 633 l 636 640 l 639 640 l 636 622 l 632 622 l 635 631 m 643 622 l 639 622 l 643 640 l 650 640 q 652 640 651 640 q 654 639 653 639 l 656 638 l 656 635 q 654 632 656 632 q 651 631 654 631 l 651 628 q 654 622 654 625 l 651 622 q 649 628 651 622 q 647 629 649 629 l 646 629 l 644 629 l 643 622 m 644 632 l 647 632 l 650 632 l 651 633 l 653 635 q 651 636 653 636 q 650 638 651 638 l 646 638 l 644 632 m 657 622 l 660 640 l 664 640 l 660 622 l 657 622 m 664 628 l 667 628 l 667 626 q 668 626 668 626 q 669 625 668 625 q 672 626 672 625 q 674 628 674 626 l 672 629 l 671 631 q 668 632 668 631 q 667 633 667 632 q 665 635 665 635 q 666 637 665 636 q 667 639 667 638 q 669 640 668 639 q 671 640 669 640 q 674 640 674 640 q 676 639 675 639 q 678 635 678 638 l 675 635 q 674 636 674 636 q 671 638 674 638 q 669 636 669 638 l 669 635 q 672 633 669 633 q 675 631 675 631 q 676 628 676 631 q 675 624 676 625 q 673 623 674 624 q 669 622 672 622 q 667 624 668 622 q 664 625 664 625 l 664 628 m 688 622 l 683 622 l 681 640 l 683 640 l 686 626 l 693 640 l 696 640 l 688 622 m 694 622 l 697 640 l 701 640 l 697 622 l 694 622 m 701 622 l 704 640 l 708 640 l 706 625 l 714 625 l 713 622 l 701 622 m 715 622 l 718 640 l 731 640 l 731 638 l 722 638 l 721 633 l 729 633 l 729 631 l 721 631 l 719 625 l 729 625 l 728 622 l 715 622 m 732 626 l 735 626 l 735 622 l 731 622 l 732 626 m 750 629 l 753 628 q 750 624 753 626 q 748 623 749 624 q 746 622 747 622 q 740 625 743 622 q 739 629 739 625 q 740 635 739 633 q 743 639 740 636 q 745 640 744 639 q 747 640 746 640 q 749 640 749 640 q 750 639 749 639 l 751 639 q 754 635 754 636 l 750 635 l 750 636 q 749 637 749 636 q 747 638 749 638 q 746 637 746 638 q 744 636 746 636 q 743 633 743 635 q 742 629 742 632 q 743 626 742 628 q 746 625 744 625 l 747 626 q 750 629 747 626 m 756 629 l 756 632 q 757 634 757 633 q 758 636 757 635 q 761 639 758 639 q 765 640 763 640 q 769 638 767 640 q 772 633 772 635 q 772 630 772 631 q 771 628 771 629 l 767 624 q 765 623 765 624 q 763 622 764 622 q 758 624 760 622 q 756 626 758 624 l 756 629 m 758 629 q 759 628 758 628 q 760 626 760 628 q 761 626 761 626 q 763 625 761 625 q 764 626 764 625 q 765 626 764 626 q 768 629 765 626 l 768 633 q 767 636 768 635 q 764 638 765 638 q 761 635 761 638 q 758 629 758 632 m 782 622 l 779 622 l 778 638 l 776 622 l 772 622 l 776 640 l 781 640 l 782 628 l 788 640 l 792 640 l 789 622 l 786 622 l 789 636 l 782 622 z "},"4":{"ha":1085,"x_min":50,"x_max":1035,"o":"m 526 511 q 481 430 501 467 q 433 344 460 393 q 319 436 363 374 q 283 506 297 467 q 268 593 268 544 q 283 682 268 643 q 318 751 297 721 q 433 843 361 811 l 433 667 l 526 667 l 526 960 q 382 925 442 956 q 278 850 322 894 q 206 743 236 808 q 183 675 192 711 q 174 596 174 639 q 192 480 174 529 q 236 390 210 431 q 379 264 290 310 q 410 251 394 257 q 444 240 426 244 q 522 228 479 231 q 525 228 522 228 l 526 228 l 526 235 l 526 511 m 550 675 q 596 756 575 719 q 643 842 617 792 q 757 749 714 810 q 794 680 779 718 q 808 592 808 642 q 794 503 808 543 q 758 435 779 464 q 643 342 715 374 l 643 519 l 550 519 l 550 226 q 694 261 635 231 q 799 336 754 292 q 871 443 844 382 q 894 510 885 474 q 903 589 903 547 q 885 706 903 656 q 840 796 868 756 q 777 867 813 836 q 697 921 742 899 q 632 946 669 935 q 594 953 614 950 q 554 957 575 957 q 553 958 556 957 q 550 958 551 958 l 550 951 l 550 675 m 543 101 q 354 138 443 101 q 194 246 265 175 q 87 406 124 317 q 50 594 50 494 q 87 783 50 694 q 194 942 124 872 q 354 1049 265 1013 q 543 1086 443 1086 q 731 1049 642 1086 q 890 942 819 1013 q 998 783 961 872 q 1035 594 1035 694 q 998 406 1035 494 q 890 246 961 317 q 731 138 819 175 q 543 101 642 101 m 543 1039 q 370 1004 451 1039 q 228 909 289 969 q 133 767 168 849 q 97 594 97 686 q 133 422 97 503 q 228 280 168 340 q 370 184 289 219 q 543 149 451 149 q 715 184 635 149 q 856 280 796 219 q 952 422 917 340 q 988 594 988 503 q 952 767 988 686 q 856 909 917 849 q 715 1004 796 969 q 543 1039 635 1039 m 326 569 l 340 567 q 328 550 336 556 q 310 544 317 544 q 290 551 300 544 q 283 572 283 561 q 289 593 283 582 q 301 607 293 603 q 318 613 308 613 q 336 607 325 613 q 343 592 343 600 l 331 590 l 326 599 q 318 600 324 600 q 308 597 311 600 q 300 586 301 593 q 297 572 297 578 q 301 560 297 564 q 310 556 303 556 q 319 560 315 556 q 326 569 324 563 m 390 575 l 365 575 l 358 546 l 344 546 l 358 611 l 372 611 l 367 586 l 392 586 l 397 611 l 411 611 l 397 546 l 383 546 l 390 575 m 425 546 l 411 546 l 425 611 l 454 611 q 465 610 463 611 q 472 604 471 607 q 475 594 475 599 q 469 581 475 585 q 454 574 467 576 l 460 568 q 465 558 463 564 q 469 546 467 553 l 456 546 q 453 553 454 549 q 449 563 451 557 q 445 568 446 565 q 442 572 444 571 l 436 572 l 431 572 l 425 546 m 432 583 l 439 583 l 454 583 q 457 585 456 585 q 460 588 458 586 q 461 594 461 590 q 458 599 461 599 q 450 600 457 600 l 436 600 l 432 583 m 476 546 l 490 611 l 503 611 l 489 546 l 476 546 m 504 567 l 517 568 q 519 560 517 563 q 529 556 521 556 q 539 558 536 556 q 542 564 542 560 q 540 569 542 568 q 531 574 539 569 l 519 579 q 514 585 515 581 q 513 593 513 588 q 518 607 513 601 q 535 613 524 613 q 553 607 547 613 q 560 593 560 600 l 547 592 q 543 599 547 596 q 535 601 542 601 q 528 600 529 601 q 525 594 525 599 q 526 590 525 592 q 531 588 528 589 q 536 585 533 588 q 546 581 543 582 q 551 578 549 579 q 556 565 556 571 q 549 551 556 558 q 529 544 542 544 q 515 547 524 544 q 507 556 508 551 q 504 567 504 558 m 621 546 l 607 546 l 594 611 l 608 611 l 617 561 l 643 611 l 657 611 l 621 546 m 649 546 l 663 611 l 675 611 l 661 546 l 649 546 m 675 546 l 689 611 l 701 611 l 690 557 l 724 557 l 721 546 l 675 546 m 731 546 l 743 611 l 792 611 l 790 600 l 754 600 l 751 586 l 785 586 l 783 575 l 750 575 l 746 557 l 783 557 l 781 546 l 731 546 m 292 624 l 294 642 l 300 642 q 301 640 301 640 l 304 640 l 306 640 q 307 639 306 639 l 307 636 l 307 633 l 307 629 q 304 626 304 626 q 301 625 301 625 q 297 624 300 624 l 292 624 m 296 626 l 297 626 q 300 628 300 626 l 301 628 q 303 631 303 629 q 304 635 304 632 q 303 636 304 636 q 301 638 303 638 q 300 639 301 639 l 297 639 l 296 626 m 308 624 l 313 642 l 325 642 l 324 638 l 315 638 l 314 635 l 322 635 l 322 632 l 314 632 l 313 626 l 322 626 l 321 624 l 308 624 m 325 629 l 328 629 l 328 628 q 331 626 329 626 q 333 628 333 626 q 335 629 335 628 l 333 631 l 332 632 q 329 633 329 632 q 328 635 328 633 q 326 636 326 636 q 327 638 326 638 q 328 640 328 639 q 330 641 329 640 q 332 642 331 642 q 335 641 335 642 q 338 640 336 640 q 339 636 339 639 l 336 636 q 335 638 335 638 q 332 639 335 639 q 331 638 331 639 l 331 636 q 333 635 331 635 q 336 632 336 632 q 338 629 338 632 q 336 625 338 626 q 334 624 335 625 q 331 624 333 624 q 328 625 329 624 q 325 626 325 626 l 325 629 m 340 624 l 343 642 l 347 642 l 343 624 l 340 624 m 356 633 l 363 633 l 361 626 q 358 625 361 625 q 354 624 357 624 q 352 624 353 624 q 350 625 351 625 q 347 631 347 628 q 349 636 347 635 q 351 640 349 638 q 353 641 353 640 q 357 642 354 642 q 359 641 358 642 q 361 640 360 640 q 364 636 364 638 l 361 636 q 360 638 360 638 q 357 639 358 639 q 354 638 354 638 q 351 635 351 638 l 351 631 l 351 628 q 353 627 353 628 q 354 626 353 626 l 357 626 q 358 628 358 628 l 360 631 l 356 631 l 356 633 m 378 624 l 375 624 l 371 636 l 368 624 l 365 624 l 368 642 l 371 642 l 376 629 l 378 642 l 382 642 l 378 624 m 382 624 l 385 642 l 397 642 l 397 638 l 388 638 l 388 635 l 396 635 l 396 632 l 386 632 l 386 626 l 396 626 l 394 624 l 382 624 m 397 624 l 401 642 l 406 642 q 407 641 407 642 q 408 640 407 640 l 410 640 l 411 640 q 413 639 413 639 l 413 636 q 414 633 414 635 q 413 631 414 632 q 413 629 413 631 q 410 626 410 626 q 407 625 408 625 q 403 624 406 624 l 397 624 m 401 626 l 403 626 q 406 628 406 626 l 407 628 l 410 631 l 410 635 l 410 636 l 408 638 q 407 638 407 638 q 406 639 407 639 l 404 639 l 401 626 m 421 624 l 424 642 l 431 642 l 432 640 l 435 640 l 436 639 l 436 638 l 436 635 q 433 633 435 633 q 435 632 435 632 q 436 629 436 631 q 435 626 436 628 l 433 625 q 431 624 432 625 q 429 624 431 624 l 421 624 m 425 626 l 428 626 q 431 628 431 626 l 432 628 l 432 629 l 432 631 q 429 632 431 632 l 425 632 l 425 626 m 426 635 l 429 635 l 432 635 l 433 636 q 432 638 433 638 l 429 638 l 426 638 l 426 635 m 446 624 l 443 624 l 444 631 l 439 642 l 443 642 l 446 636 l 446 633 q 447 635 447 635 l 449 638 l 451 642 l 456 642 l 447 631 l 446 624 m 550 622 l 547 622 l 546 635 l 540 622 l 536 622 l 536 640 l 539 640 l 539 628 l 546 640 l 549 640 l 550 628 l 556 640 l 558 640 l 550 622 m 572 622 l 569 622 l 568 635 l 563 622 l 558 622 l 558 640 l 561 640 l 561 628 l 568 640 l 571 640 l 572 628 l 578 640 l 581 640 l 572 622 m 594 622 l 592 622 l 590 635 l 585 622 l 581 622 l 581 640 l 583 640 l 583 628 l 590 640 l 593 640 l 594 628 l 600 640 l 603 640 l 594 622 m 600 626 l 603 626 l 603 622 l 599 622 l 600 626 m 618 629 l 621 628 q 618 624 621 626 q 616 623 617 624 q 614 622 615 622 q 608 625 611 622 q 607 629 607 625 q 608 635 607 633 q 611 639 608 636 q 613 640 613 639 q 615 640 614 640 q 617 640 617 640 q 618 639 617 639 l 619 639 q 622 635 622 636 l 618 635 l 618 636 q 617 637 617 636 q 615 638 617 638 q 613 636 614 636 q 611 633 611 635 q 610 629 610 632 q 610 628 610 628 q 611 626 611 628 q 614 625 613 625 q 617 626 615 626 q 618 629 617 628 m 635 631 l 628 631 l 626 622 l 622 622 l 626 640 l 629 640 l 628 633 l 635 633 l 636 640 l 639 640 l 636 622 l 632 622 l 635 631 m 643 622 l 639 622 l 643 640 l 650 640 q 652 640 651 640 q 654 639 653 639 l 656 638 l 656 635 q 654 632 656 632 q 651 631 654 631 l 651 628 q 654 622 654 625 l 651 622 q 649 628 651 622 q 647 629 649 629 l 646 629 l 644 629 l 643 622 m 644 632 l 647 632 l 650 632 l 651 633 l 653 635 q 651 636 653 636 q 650 638 651 638 l 646 638 l 644 632 m 657 622 l 660 640 l 664 640 l 660 622 l 657 622 m 664 628 l 667 628 l 667 626 q 668 626 668 626 q 669 625 668 625 q 672 626 672 625 q 674 628 674 626 l 672 629 l 671 631 q 668 632 668 631 q 667 633 667 632 q 665 635 665 635 q 666 637 665 636 q 667 639 667 638 q 669 640 668 639 q 671 640 669 640 q 674 640 674 640 q 676 639 675 639 q 678 635 678 638 l 675 635 q 674 636 674 636 q 671 638 674 638 q 669 636 669 638 l 669 635 q 672 633 669 633 q 675 631 675 631 q 676 628 676 631 q 675 624 676 625 q 673 623 674 624 q 669 622 672 622 q 667 624 668 622 q 664 625 664 625 l 664 628 m 688 622 l 683 622 l 681 640 l 683 640 l 686 626 l 693 640 l 696 640 l 688 622 m 694 622 l 697 640 l 701 640 l 697 622 l 694 622 m 701 622 l 704 640 l 708 640 l 706 625 l 714 625 l 713 622 l 701 622 m 715 622 l 718 640 l 731 640 l 731 638 l 722 638 l 721 633 l 729 633 l 729 631 l 721 631 l 719 625 l 729 625 l 728 622 l 715 622 m 732 626 l 735 626 l 735 622 l 731 622 l 732 626 m 750 629 l 753 628 q 750 624 753 626 q 748 623 749 624 q 746 622 747 622 q 740 625 743 622 q 739 629 739 625 q 740 635 739 633 q 743 639 740 636 q 745 640 744 639 q 747 640 746 640 q 749 640 749 640 q 750 639 749 639 l 751 639 q 754 635 754 636 l 750 635 l 750 636 q 749 637 749 636 q 747 638 749 638 q 746 637 746 638 q 744 636 746 636 q 743 633 743 635 q 742 629 742 632 q 743 626 742 628 q 746 625 744 625 l 747 626 q 750 629 747 626 m 756 629 l 756 632 q 757 634 757 633 q 758 636 757 635 q 761 639 758 639 q 765 640 763 640 q 769 638 767 640 q 772 633 772 635 q 772 630 772 631 q 771 628 771 629 l 767 624 q 765 623 765 624 q 763 622 764 622 q 758 624 760 622 q 756 626 758 624 l 756 629 m 758 629 q 759 628 758 628 q 760 626 760 628 q 761 626 761 626 q 763 625 761 625 q 764 626 764 625 q 765 626 764 626 q 768 629 765 626 l 768 633 q 767 636 768 635 q 764 638 765 638 q 761 635 761 638 q 758 629 758 632 m 782 622 l 779 622 l 778 638 l 776 622 l 772 622 l 776 640 l 781 640 l 782 628 l 788 640 l 792 640 l 789 622 l 786 622 l 789 636 l 782 622 z "},"5":{"ha":1085,"x_min":50,"x_max":1035,"o":"m 526 511 q 481 430 501 467 q 433 344 460 393 q 319 436 363 374 q 283 506 297 467 q 268 593 268 544 q 283 682 268 643 q 318 751 297 721 q 433 843 361 811 l 433 667 l 526 667 l 526 960 q 382 925 442 956 q 278 850 322 894 q 206 743 236 808 q 183 675 192 711 q 174 596 174 639 q 192 480 174 529 q 236 390 210 431 q 379 264 290 310 q 410 251 394 257 q 444 240 426 244 q 522 228 479 231 q 525 228 522 228 l 526 228 l 526 235 l 526 511 m 550 675 q 596 756 575 719 q 643 842 617 792 q 757 749 714 810 q 794 680 779 718 q 808 592 808 642 q 794 503 808 543 q 758 435 779 464 q 643 342 715 374 l 643 519 l 550 519 l 550 226 q 694 261 635 231 q 799 336 754 292 q 871 443 844 382 q 894 510 885 474 q 903 589 903 547 q 885 706 903 656 q 840 796 868 756 q 777 867 813 836 q 697 921 742 899 q 632 946 669 935 q 594 953 614 950 q 554 957 575 957 q 553 958 556 957 q 550 958 551 958 l 550 951 l 550 675 m 543 101 q 354 138 443 101 q 194 246 265 175 q 87 406 124 317 q 50 594 50 494 q 87 783 50 694 q 194 942 124 872 q 354 1049 265 1013 q 543 1086 443 1086 q 731 1049 642 1086 q 890 942 819 1013 q 998 783 961 872 q 1035 594 1035 694 q 998 406 1035 494 q 890 246 961 317 q 731 138 819 175 q 543 101 642 101 m 543 1039 q 370 1004 451 1039 q 228 909 289 969 q 133 767 168 849 q 97 594 97 686 q 133 422 97 503 q 228 280 168 340 q 370 184 289 219 q 543 149 451 149 q 715 184 635 149 q 856 280 796 219 q 952 422 917 340 q 988 594 988 503 q 952 767 988 686 q 856 909 917 849 q 715 1004 796 969 q 543 1039 635 1039 m 326 569 l 340 567 q 328 550 336 556 q 310 544 317 544 q 290 551 300 544 q 283 572 283 561 q 289 593 283 582 q 301 607 293 603 q 318 613 308 613 q 336 607 325 613 q 343 592 343 600 l 331 590 l 326 599 q 318 600 324 600 q 308 597 311 600 q 300 586 301 593 q 297 572 297 578 q 301 560 297 564 q 310 556 303 556 q 319 560 315 556 q 326 569 324 563 m 390 575 l 365 575 l 358 546 l 344 546 l 358 611 l 372 611 l 367 586 l 392 586 l 397 611 l 411 611 l 397 546 l 383 546 l 390 575 m 425 546 l 411 546 l 425 611 l 454 611 q 465 610 463 611 q 472 604 471 607 q 475 594 475 599 q 469 581 475 585 q 454 574 467 576 l 460 568 q 465 558 463 564 q 469 546 467 553 l 456 546 q 453 553 454 549 q 449 563 451 557 q 445 568 446 565 q 442 572 444 571 l 436 572 l 431 572 l 425 546 m 432 583 l 439 583 l 454 583 q 457 585 456 585 q 460 588 458 586 q 461 594 461 590 q 458 599 461 599 q 450 600 457 600 l 436 600 l 432 583 m 476 546 l 490 611 l 503 611 l 489 546 l 476 546 m 504 567 l 517 568 q 519 560 517 563 q 529 556 521 556 q 539 558 536 556 q 542 564 542 560 q 540 569 542 568 q 531 574 539 569 l 519 579 q 514 585 515 581 q 513 593 513 588 q 518 607 513 601 q 535 613 524 613 q 553 607 547 613 q 560 593 560 600 l 547 592 q 543 599 547 596 q 535 601 542 601 q 528 600 529 601 q 525 594 525 599 q 526 590 525 592 q 531 588 528 589 q 536 585 533 588 q 546 581 543 582 q 551 578 549 579 q 556 565 556 571 q 549 551 556 558 q 529 544 542 544 q 515 547 524 544 q 507 556 508 551 q 504 567 504 558 m 621 546 l 607 546 l 594 611 l 608 611 l 617 561 l 643 611 l 657 611 l 621 546 m 649 546 l 663 611 l 675 611 l 661 546 l 649 546 m 675 546 l 689 611 l 701 611 l 690 557 l 724 557 l 721 546 l 675 546 m 731 546 l 743 611 l 792 611 l 790 600 l 754 600 l 751 586 l 785 586 l 783 575 l 750 575 l 746 557 l 783 557 l 781 546 l 731 546 m 292 624 l 294 642 l 300 642 q 301 640 301 640 l 304 640 l 306 640 q 307 639 306 639 l 307 636 l 307 633 l 307 629 q 304 626 304 626 q 301 625 301 625 q 297 624 300 624 l 292 624 m 296 626 l 297 626 q 300 628 300 626 l 301 628 q 303 631 303 629 q 304 635 304 632 q 303 636 304 636 q 301 638 303 638 q 300 639 301 639 l 297 639 l 296 626 m 308 624 l 313 642 l 325 642 l 324 638 l 315 638 l 314 635 l 322 635 l 322 632 l 314 632 l 313 626 l 322 626 l 321 624 l 308 624 m 325 629 l 328 629 l 328 628 q 331 626 329 626 q 333 628 333 626 q 335 629 335 628 l 333 631 l 332 632 q 329 633 329 632 q 328 635 328 633 q 326 636 326 636 q 327 638 326 638 q 328 640 328 639 q 330 641 329 640 q 332 642 331 642 q 335 641 335 642 q 338 640 336 640 q 339 636 339 639 l 336 636 q 335 638 335 638 q 332 639 335 639 q 331 638 331 639 l 331 636 q 333 635 331 635 q 336 632 336 632 q 338 629 338 632 q 336 625 338 626 q 334 624 335 625 q 331 624 333 624 q 328 625 329 624 q 325 626 325 626 l 325 629 m 340 624 l 343 642 l 347 642 l 343 624 l 340 624 m 356 633 l 363 633 l 361 626 q 358 625 361 625 q 354 624 357 624 q 352 624 353 624 q 350 625 351 625 q 347 631 347 628 q 349 636 347 635 q 351 640 349 638 q 353 641 353 640 q 357 642 354 642 q 359 641 358 642 q 361 640 360 640 q 364 636 364 638 l 361 636 q 360 638 360 638 q 357 639 358 639 q 354 638 354 638 q 351 635 351 638 l 351 631 l 351 628 q 353 627 353 628 q 354 626 353 626 l 357 626 q 358 628 358 628 l 360 631 l 356 631 l 356 633 m 378 624 l 375 624 l 371 636 l 368 624 l 365 624 l 368 642 l 371 642 l 376 629 l 378 642 l 382 642 l 378 624 m 382 624 l 385 642 l 397 642 l 397 638 l 388 638 l 388 635 l 396 635 l 396 632 l 386 632 l 386 626 l 396 626 l 394 624 l 382 624 m 397 624 l 401 642 l 406 642 q 407 641 407 642 q 408 640 407 640 l 410 640 l 411 640 q 413 639 413 639 l 413 636 q 414 633 414 635 q 413 631 414 632 q 413 629 413 631 q 410 626 410 626 q 407 625 408 625 q 403 624 406 624 l 397 624 m 401 626 l 403 626 q 406 628 406 626 l 407 628 l 410 631 l 410 635 l 410 636 l 408 638 q 407 638 407 638 q 406 639 407 639 l 404 639 l 401 626 m 421 624 l 424 642 l 431 642 l 432 640 l 435 640 l 436 639 l 436 638 l 436 635 q 433 633 435 633 q 435 632 435 632 q 436 629 436 631 q 435 626 436 628 l 433 625 q 431 624 432 625 q 429 624 431 624 l 421 624 m 425 626 l 428 626 q 431 628 431 626 l 432 628 l 432 629 l 432 631 q 429 632 431 632 l 425 632 l 425 626 m 426 635 l 429 635 l 432 635 l 433 636 q 432 638 433 638 l 429 638 l 426 638 l 426 635 m 446 624 l 443 624 l 444 631 l 439 642 l 443 642 l 446 636 l 446 633 q 447 635 447 635 l 449 638 l 451 642 l 456 642 l 447 631 l 446 624 m 550 622 l 547 622 l 546 635 l 540 622 l 536 622 l 536 640 l 539 640 l 539 628 l 546 640 l 549 640 l 550 628 l 556 640 l 558 640 l 550 622 m 572 622 l 569 622 l 568 635 l 563 622 l 558 622 l 558 640 l 561 640 l 561 628 l 568 640 l 571 640 l 572 628 l 578 640 l 581 640 l 572 622 m 594 622 l 592 622 l 590 635 l 585 622 l 581 622 l 581 640 l 583 640 l 583 628 l 590 640 l 593 640 l 594 628 l 600 640 l 603 640 l 594 622 m 600 626 l 603 626 l 603 622 l 599 622 l 600 626 m 618 629 l 621 628 q 618 624 621 626 q 616 623 617 624 q 614 622 615 622 q 608 625 611 622 q 607 629 607 625 q 608 635 607 633 q 611 639 608 636 q 613 640 613 639 q 615 640 614 640 q 617 640 617 640 q 618 639 617 639 l 619 639 q 622 635 622 636 l 618 635 l 618 636 q 617 637 617 636 q 615 638 617 638 q 613 636 614 636 q 611 633 611 635 q 610 629 610 632 q 610 628 610 628 q 611 626 611 628 q 614 625 613 625 q 617 626 615 626 q 618 629 617 628 m 635 631 l 628 631 l 626 622 l 622 622 l 626 640 l 629 640 l 628 633 l 635 633 l 636 640 l 639 640 l 636 622 l 632 622 l 635 631 m 643 622 l 639 622 l 643 640 l 650 640 q 652 640 651 640 q 654 639 653 639 l 656 638 l 656 635 q 654 632 656 632 q 651 631 654 631 l 651 628 q 654 622 654 625 l 651 622 q 649 628 651 622 q 647 629 649 629 l 646 629 l 644 629 l 643 622 m 644 632 l 647 632 l 650 632 l 651 633 l 653 635 q 651 636 653 636 q 650 638 651 638 l 646 638 l 644 632 m 657 622 l 660 640 l 664 640 l 660 622 l 657 622 m 664 628 l 667 628 l 667 626 q 668 626 668 626 q 669 625 668 625 q 672 626 672 625 q 674 628 674 626 l 672 629 l 671 631 q 668 632 668 631 q 667 633 667 632 q 665 635 665 635 q 666 637 665 636 q 667 639 667 638 q 669 640 668 639 q 671 640 669 640 q 674 640 674 640 q 676 639 675 639 q 678 635 678 638 l 675 635 q 674 636 674 636 q 671 638 674 638 q 669 636 669 638 l 669 635 q 672 633 669 633 q 675 631 675 631 q 676 628 676 631 q 675 624 676 625 q 673 623 674 624 q 669 622 672 622 q 667 624 668 622 q 664 625 664 625 l 664 628 m 688 622 l 683 622 l 681 640 l 683 640 l 686 626 l 693 640 l 696 640 l 688 622 m 694 622 l 697 640 l 701 640 l 697 622 l 694 622 m 701 622 l 704 640 l 708 640 l 706 625 l 714 625 l 713 622 l 701 622 m 715 622 l 718 640 l 731 640 l 731 638 l 722 638 l 721 633 l 729 633 l 729 631 l 721 631 l 719 625 l 729 625 l 728 622 l 715 622 m 732 626 l 735 626 l 735 622 l 731 622 l 732 626 m 750 629 l 753 628 q 750 624 753 626 q 748 623 749 624 q 746 622 747 622 q 740 625 743 622 q 739 629 739 625 q 740 635 739 633 q 743 639 740 636 q 745 640 744 639 q 747 640 746 640 q 749 640 749 640 q 750 639 749 639 l 751 639 q 754 635 754 636 l 750 635 l 750 636 q 749 637 749 636 q 747 638 749 638 q 746 637 746 638 q 744 636 746 636 q 743 633 743 635 q 742 629 742 632 q 743 626 742 628 q 746 625 744 625 l 747 626 q 750 629 747 626 m 756 629 l 756 632 q 757 634 757 633 q 758 636 757 635 q 761 639 758 639 q 765 640 763 640 q 769 638 767 640 q 772 633 772 635 q 772 630 772 631 q 771 628 771 629 l 767 624 q 765 623 765 624 q 763 622 764 622 q 758 624 760 622 q 756 626 758 624 l 756 629 m 758 629 q 759 628 758 628 q 760 626 760 628 q 761 626 761 626 q 763 625 761 625 q 764 626 764 625 q 765 626 764 626 q 768 629 765 626 l 768 633 q 767 636 768 635 q 764 638 765 638 q 761 635 761 638 q 758 629 758 632 m 782 622 l 779 622 l 778 638 l 776 622 l 772 622 l 776 640 l 781 640 l 782 628 l 788 640 l 792 640 l 789 622 l 786 622 l 789 636 l 782 622 z "},"6":{"ha":1085,"x_min":50,"x_max":1035,"o":"m 526 511 q 481 430 501 467 q 433 344 460 393 q 319 436 363 374 q 283 506 297 467 q 268 593 268 544 q 283 682 268 643 q 318 751 297 721 q 433 843 361 811 l 433 667 l 526 667 l 526 960 q 382 925 442 956 q 278 850 322 894 q 206 743 236 808 q 183 675 192 711 q 174 596 174 639 q 192 480 174 529 q 236 390 210 431 q 379 264 290 310 q 410 251 394 257 q 444 240 426 244 q 522 228 479 231 q 525 228 522 228 l 526 228 l 526 235 l 526 511 m 550 675 q 596 756 575 719 q 643 842 617 792 q 757 749 714 810 q 794 680 779 718 q 808 592 808 642 q 794 503 808 543 q 758 435 779 464 q 643 342 715 374 l 643 519 l 550 519 l 550 226 q 694 261 635 231 q 799 336 754 292 q 871 443 844 382 q 894 510 885 474 q 903 589 903 547 q 885 706 903 656 q 840 796 868 756 q 777 867 813 836 q 697 921 742 899 q 632 946 669 935 q 594 953 614 950 q 554 957 575 957 q 553 958 556 957 q 550 958 551 958 l 550 951 l 550 675 m 543 101 q 354 138 443 101 q 194 246 265 175 q 87 406 124 317 q 50 594 50 494 q 87 783 50 694 q 194 942 124 872 q 354 1049 265 1013 q 543 1086 443 1086 q 731 1049 642 1086 q 890 942 819 1013 q 998 783 961 872 q 1035 594 1035 694 q 998 406 1035 494 q 890 246 961 317 q 731 138 819 175 q 543 101 642 101 m 543 1039 q 370 1004 451 1039 q 228 909 289 969 q 133 767 168 849 q 97 594 97 686 q 133 422 97 503 q 228 280 168 340 q 370 184 289 219 q 543 149 451 149 q 715 184 635 149 q 856 280 796 219 q 952 422 917 340 q 988 594 988 503 q 952 767 988 686 q 856 909 917 849 q 715 1004 796 969 q 543 1039 635 1039 m 326 569 l 340 567 q 328 550 336 556 q 310 544 317 544 q 290 551 300 544 q 283 572 283 561 q 289 593 283 582 q 301 607 293 603 q 318 613 308 613 q 336 607 325 613 q 343 592 343 600 l 331 590 l 326 599 q 318 600 324 600 q 308 597 311 600 q 300 586 301 593 q 297 572 297 578 q 301 560 297 564 q 310 556 303 556 q 319 560 315 556 q 326 569 324 563 m 390 575 l 365 575 l 358 546 l 344 546 l 358 611 l 372 611 l 367 586 l 392 586 l 397 611 l 411 611 l 397 546 l 383 546 l 390 575 m 425 546 l 411 546 l 425 611 l 454 611 q 465 610 463 611 q 472 604 471 607 q 475 594 475 599 q 469 581 475 585 q 454 574 467 576 l 460 568 q 465 558 463 564 q 469 546 467 553 l 456 546 q 453 553 454 549 q 449 563 451 557 q 445 568 446 565 q 442 572 444 571 l 436 572 l 431 572 l 425 546 m 432 583 l 439 583 l 454 583 q 457 585 456 585 q 460 588 458 586 q 461 594 461 590 q 458 599 461 599 q 450 600 457 600 l 436 600 l 432 583 m 476 546 l 490 611 l 503 611 l 489 546 l 476 546 m 504 567 l 517 568 q 519 560 517 563 q 529 556 521 556 q 539 558 536 556 q 542 564 542 560 q 540 569 542 568 q 531 574 539 569 l 519 579 q 514 585 515 581 q 513 593 513 588 q 518 607 513 601 q 535 613 524 613 q 553 607 547 613 q 560 593 560 600 l 547 592 q 543 599 547 596 q 535 601 542 601 q 528 600 529 601 q 525 594 525 599 q 526 590 525 592 q 531 588 528 589 q 536 585 533 588 q 546 581 543 582 q 551 578 549 579 q 556 565 556 571 q 549 551 556 558 q 529 544 542 544 q 515 547 524 544 q 507 556 508 551 q 504 567 504 558 m 621 546 l 607 546 l 594 611 l 608 611 l 617 561 l 643 611 l 657 611 l 621 546 m 649 546 l 663 611 l 675 611 l 661 546 l 649 546 m 675 546 l 689 611 l 701 611 l 690 557 l 724 557 l 721 546 l 675 546 m 731 546 l 743 611 l 792 611 l 790 600 l 754 600 l 751 586 l 785 586 l 783 575 l 750 575 l 746 557 l 783 557 l 781 546 l 731 546 m 292 624 l 294 642 l 300 642 q 301 640 301 640 l 304 640 l 306 640 q 307 639 306 639 l 307 636 l 307 633 l 307 629 q 304 626 304 626 q 301 625 301 625 q 297 624 300 624 l 292 624 m 296 626 l 297 626 q 300 628 300 626 l 301 628 q 303 631 303 629 q 304 635 304 632 q 303 636 304 636 q 301 638 303 638 q 300 639 301 639 l 297 639 l 296 626 m 308 624 l 313 642 l 325 642 l 324 638 l 315 638 l 314 635 l 322 635 l 322 632 l 314 632 l 313 626 l 322 626 l 321 624 l 308 624 m 325 629 l 328 629 l 328 628 q 331 626 329 626 q 333 628 333 626 q 335 629 335 628 l 333 631 l 332 632 q 329 633 329 632 q 328 635 328 633 q 326 636 326 636 q 327 638 326 638 q 328 640 328 639 q 330 641 329 640 q 332 642 331 642 q 335 641 335 642 q 338 640 336 640 q 339 636 339 639 l 336 636 q 335 638 335 638 q 332 639 335 639 q 331 638 331 639 l 331 636 q 333 635 331 635 q 336 632 336 632 q 338 629 338 632 q 336 625 338 626 q 334 624 335 625 q 331 624 333 624 q 328 625 329 624 q 325 626 325 626 l 325 629 m 340 624 l 343 642 l 347 642 l 343 624 l 340 624 m 356 633 l 363 633 l 361 626 q 358 625 361 625 q 354 624 357 624 q 352 624 353 624 q 350 625 351 625 q 347 631 347 628 q 349 636 347 635 q 351 640 349 638 q 353 641 353 640 q 357 642 354 642 q 359 641 358 642 q 361 640 360 640 q 364 636 364 638 l 361 636 q 360 638 360 638 q 357 639 358 639 q 354 638 354 638 q 351 635 351 638 l 351 631 l 351 628 q 353 627 353 628 q 354 626 353 626 l 357 626 q 358 628 358 628 l 360 631 l 356 631 l 356 633 m 378 624 l 375 624 l 371 636 l 368 624 l 365 624 l 368 642 l 371 642 l 376 629 l 378 642 l 382 642 l 378 624 m 382 624 l 385 642 l 397 642 l 397 638 l 388 638 l 388 635 l 396 635 l 396 632 l 386 632 l 386 626 l 396 626 l 394 624 l 382 624 m 397 624 l 401 642 l 406 642 q 407 641 407 642 q 408 640 407 640 l 410 640 l 411 640 q 413 639 413 639 l 413 636 q 414 633 414 635 q 413 631 414 632 q 413 629 413 631 q 410 626 410 626 q 407 625 408 625 q 403 624 406 624 l 397 624 m 401 626 l 403 626 q 406 628 406 626 l 407 628 l 410 631 l 410 635 l 410 636 l 408 638 q 407 638 407 638 q 406 639 407 639 l 404 639 l 401 626 m 421 624 l 424 642 l 431 642 l 432 640 l 435 640 l 436 639 l 436 638 l 436 635 q 433 633 435 633 q 435 632 435 632 q 436 629 436 631 q 435 626 436 628 l 433 625 q 431 624 432 625 q 429 624 431 624 l 421 624 m 425 626 l 428 626 q 431 628 431 626 l 432 628 l 432 629 l 432 631 q 429 632 431 632 l 425 632 l 425 626 m 426 635 l 429 635 l 432 635 l 433 636 q 432 638 433 638 l 429 638 l 426 638 l 426 635 m 446 624 l 443 624 l 444 631 l 439 642 l 443 642 l 446 636 l 446 633 q 447 635 447 635 l 449 638 l 451 642 l 456 642 l 447 631 l 446 624 m 550 622 l 547 622 l 546 635 l 540 622 l 536 622 l 536 640 l 539 640 l 539 628 l 546 640 l 549 640 l 550 628 l 556 640 l 558 640 l 550 622 m 572 622 l 569 622 l 568 635 l 563 622 l 558 622 l 558 640 l 561 640 l 561 628 l 568 640 l 571 640 l 572 628 l 578 640 l 581 640 l 572 622 m 594 622 l 592 622 l 590 635 l 585 622 l 581 622 l 581 640 l 583 640 l 583 628 l 590 640 l 593 640 l 594 628 l 600 640 l 603 640 l 594 622 m 600 626 l 603 626 l 603 622 l 599 622 l 600 626 m 618 629 l 621 628 q 618 624 621 626 q 616 623 617 624 q 614 622 615 622 q 608 625 611 622 q 607 629 607 625 q 608 635 607 633 q 611 639 608 636 q 613 640 613 639 q 615 640 614 640 q 617 640 617 640 q 618 639 617 639 l 619 639 q 622 635 622 636 l 618 635 l 618 636 q 617 637 617 636 q 615 638 617 638 q 613 636 614 636 q 611 633 611 635 q 610 629 610 632 q 610 628 610 628 q 611 626 611 628 q 614 625 613 625 q 617 626 615 626 q 618 629 617 628 m 635 631 l 628 631 l 626 622 l 622 622 l 626 640 l 629 640 l 628 633 l 635 633 l 636 640 l 639 640 l 636 622 l 632 622 l 635 631 m 643 622 l 639 622 l 643 640 l 650 640 q 652 640 651 640 q 654 639 653 639 l 656 638 l 656 635 q 654 632 656 632 q 651 631 654 631 l 651 628 q 654 622 654 625 l 651 622 q 649 628 651 622 q 647 629 649 629 l 646 629 l 644 629 l 643 622 m 644 632 l 647 632 l 650 632 l 651 633 l 653 635 q 651 636 653 636 q 650 638 651 638 l 646 638 l 644 632 m 657 622 l 660 640 l 664 640 l 660 622 l 657 622 m 664 628 l 667 628 l 667 626 q 668 626 668 626 q 669 625 668 625 q 672 626 672 625 q 674 628 674 626 l 672 629 l 671 631 q 668 632 668 631 q 667 633 667 632 q 665 635 665 635 q 666 637 665 636 q 667 639 667 638 q 669 640 668 639 q 671 640 669 640 q 674 640 674 640 q 676 639 675 639 q 678 635 678 638 l 675 635 q 674 636 674 636 q 671 638 674 638 q 669 636 669 638 l 669 635 q 672 633 669 633 q 675 631 675 631 q 676 628 676 631 q 675 624 676 625 q 673 623 674 624 q 669 622 672 622 q 667 624 668 622 q 664 625 664 625 l 664 628 m 688 622 l 683 622 l 681 640 l 683 640 l 686 626 l 693 640 l 696 640 l 688 622 m 694 622 l 697 640 l 701 640 l 697 622 l 694 622 m 701 622 l 704 640 l 708 640 l 706 625 l 714 625 l 713 622 l 701 622 m 715 622 l 718 640 l 731 640 l 731 638 l 722 638 l 721 633 l 729 633 l 729 631 l 721 631 l 719 625 l 729 625 l 728 622 l 715 622 m 732 626 l 735 626 l 735 622 l 731 622 l 732 626 m 750 629 l 753 628 q 750 624 753 626 q 748 623 749 624 q 746 622 747 622 q 740 625 743 622 q 739 629 739 625 q 740 635 739 633 q 743 639 740 636 q 745 640 744 639 q 747 640 746 640 q 749 640 749 640 q 750 639 749 639 l 751 639 q 754 635 754 636 l 750 635 l 750 636 q 749 637 749 636 q 747 638 749 638 q 746 637 746 638 q 744 636 746 636 q 743 633 743 635 q 742 629 742 632 q 743 626 742 628 q 746 625 744 625 l 747 626 q 750 629 747 626 m 756 629 l 756 632 q 757 634 757 633 q 758 636 757 635 q 761 639 758 639 q 765 640 763 640 q 769 638 767 640 q 772 633 772 635 q 772 630 772 631 q 771 628 771 629 l 767 624 q 765 623 765 624 q 763 622 764 622 q 758 624 760 622 q 756 626 758 624 l 756 629 m 758 629 q 759 628 758 628 q 760 626 760 628 q 761 626 761 626 q 763 625 761 625 q 764 626 764 625 q 765 626 764 626 q 768 629 765 626 l 768 633 q 767 636 768 635 q 764 638 765 638 q 761 635 761 638 q 758 629 758 632 m 782 622 l 779 622 l 778 638 l 776 622 l 772 622 l 776 640 l 781 640 l 782 628 l 788 640 l 792 640 l 789 622 l 786 622 l 789 636 l 782 622 z "},"7":{"ha":1085,"x_min":50,"x_max":1035,"o":"m 526 511 q 481 430 501 467 q 433 344 460 393 q 319 436 363 374 q 283 506 297 467 q 268 593 268 544 q 283 682 268 643 q 318 751 297 721 q 433 843 361 811 l 433 667 l 526 667 l 526 960 q 382 925 442 956 q 278 850 322 894 q 206 743 236 808 q 183 675 192 711 q 174 596 174 639 q 192 480 174 529 q 236 390 210 431 q 379 264 290 310 q 410 251 394 257 q 444 240 426 244 q 522 228 479 231 q 525 228 522 228 l 526 228 l 526 235 l 526 511 m 550 675 q 596 756 575 719 q 643 842 617 792 q 757 749 714 810 q 794 680 779 718 q 808 592 808 642 q 794 503 808 543 q 758 435 779 464 q 643 342 715 374 l 643 519 l 550 519 l 550 226 q 694 261 635 231 q 799 336 754 292 q 871 443 844 382 q 894 510 885 474 q 903 589 903 547 q 885 706 903 656 q 840 796 868 756 q 777 867 813 836 q 697 921 742 899 q 632 946 669 935 q 594 953 614 950 q 554 957 575 957 q 553 958 556 957 q 550 958 551 958 l 550 951 l 550 675 m 543 101 q 354 138 443 101 q 194 246 265 175 q 87 406 124 317 q 50 594 50 494 q 87 783 50 694 q 194 942 124 872 q 354 1049 265 1013 q 543 1086 443 1086 q 731 1049 642 1086 q 890 942 819 1013 q 998 783 961 872 q 1035 594 1035 694 q 998 406 1035 494 q 890 246 961 317 q 731 138 819 175 q 543 101 642 101 m 543 1039 q 370 1004 451 1039 q 228 909 289 969 q 133 767 168 849 q 97 594 97 686 q 133 422 97 503 q 228 280 168 340 q 370 184 289 219 q 543 149 451 149 q 715 184 635 149 q 856 280 796 219 q 952 422 917 340 q 988 594 988 503 q 952 767 988 686 q 856 909 917 849 q 715 1004 796 969 q 543 1039 635 1039 m 326 569 l 340 567 q 328 550 336 556 q 310 544 317 544 q 290 551 300 544 q 283 572 283 561 q 289 593 283 582 q 301 607 293 603 q 318 613 308 613 q 336 607 325 613 q 343 592 343 600 l 331 590 l 326 599 q 318 600 324 600 q 308 597 311 600 q 300 586 301 593 q 297 572 297 578 q 301 560 297 564 q 310 556 303 556 q 319 560 315 556 q 326 569 324 563 m 390 575 l 365 575 l 358 546 l 344 546 l 358 611 l 372 611 l 367 586 l 392 586 l 397 611 l 411 611 l 397 546 l 383 546 l 390 575 m 425 546 l 411 546 l 425 611 l 454 611 q 465 610 463 611 q 472 604 471 607 q 475 594 475 599 q 469 581 475 585 q 454 574 467 576 l 460 568 q 465 558 463 564 q 469 546 467 553 l 456 546 q 453 553 454 549 q 449 563 451 557 q 445 568 446 565 q 442 572 444 571 l 436 572 l 431 572 l 425 546 m 432 583 l 439 583 l 454 583 q 457 585 456 585 q 460 588 458 586 q 461 594 461 590 q 458 599 461 599 q 450 600 457 600 l 436 600 l 432 583 m 476 546 l 490 611 l 503 611 l 489 546 l 476 546 m 504 567 l 517 568 q 519 560 517 563 q 529 556 521 556 q 539 558 536 556 q 542 564 542 560 q 540 569 542 568 q 531 574 539 569 l 519 579 q 514 585 515 581 q 513 593 513 588 q 518 607 513 601 q 535 613 524 613 q 553 607 547 613 q 560 593 560 600 l 547 592 q 543 599 547 596 q 535 601 542 601 q 528 600 529 601 q 525 594 525 599 q 526 590 525 592 q 531 588 528 589 q 536 585 533 588 q 546 581 543 582 q 551 578 549 579 q 556 565 556 571 q 549 551 556 558 q 529 544 542 544 q 515 547 524 544 q 507 556 508 551 q 504 567 504 558 m 621 546 l 607 546 l 594 611 l 608 611 l 617 561 l 643 611 l 657 611 l 621 546 m 649 546 l 663 611 l 675 611 l 661 546 l 649 546 m 675 546 l 689 611 l 701 611 l 690 557 l 724 557 l 721 546 l 675 546 m 731 546 l 743 611 l 792 611 l 790 600 l 754 600 l 751 586 l 785 586 l 783 575 l 750 575 l 746 557 l 783 557 l 781 546 l 731 546 m 292 624 l 294 642 l 300 642 q 301 640 301 640 l 304 640 l 306 640 q 307 639 306 639 l 307 636 l 307 633 l 307 629 q 304 626 304 626 q 301 625 301 625 q 297 624 300 624 l 292 624 m 296 626 l 297 626 q 300 628 300 626 l 301 628 q 303 631 303 629 q 304 635 304 632 q 303 636 304 636 q 301 638 303 638 q 300 639 301 639 l 297 639 l 296 626 m 308 624 l 313 642 l 325 642 l 324 638 l 315 638 l 314 635 l 322 635 l 322 632 l 314 632 l 313 626 l 322 626 l 321 624 l 308 624 m 325 629 l 328 629 l 328 628 q 331 626 329 626 q 333 628 333 626 q 335 629 335 628 l 333 631 l 332 632 q 329 633 329 632 q 328 635 328 633 q 326 636 326 636 q 327 638 326 638 q 328 640 328 639 q 330 641 329 640 q 332 642 331 642 q 335 641 335 642 q 338 640 336 640 q 339 636 339 639 l 336 636 q 335 638 335 638 q 332 639 335 639 q 331 638 331 639 l 331 636 q 333 635 331 635 q 336 632 336 632 q 338 629 338 632 q 336 625 338 626 q 334 624 335 625 q 331 624 333 624 q 328 625 329 624 q 325 626 325 626 l 325 629 m 340 624 l 343 642 l 347 642 l 343 624 l 340 624 m 356 633 l 363 633 l 361 626 q 358 625 361 625 q 354 624 357 624 q 352 624 353 624 q 350 625 351 625 q 347 631 347 628 q 349 636 347 635 q 351 640 349 638 q 353 641 353 640 q 357 642 354 642 q 359 641 358 642 q 361 640 360 640 q 364 636 364 638 l 361 636 q 360 638 360 638 q 357 639 358 639 q 354 638 354 638 q 351 635 351 638 l 351 631 l 351 628 q 353 627 353 628 q 354 626 353 626 l 357 626 q 358 628 358 628 l 360 631 l 356 631 l 356 633 m 378 624 l 375 624 l 371 636 l 368 624 l 365 624 l 368 642 l 371 642 l 376 629 l 378 642 l 382 642 l 378 624 m 382 624 l 385 642 l 397 642 l 397 638 l 388 638 l 388 635 l 396 635 l 396 632 l 386 632 l 386 626 l 396 626 l 394 624 l 382 624 m 397 624 l 401 642 l 406 642 q 407 641 407 642 q 408 640 407 640 l 410 640 l 411 640 q 413 639 413 639 l 413 636 q 414 633 414 635 q 413 631 414 632 q 413 629 413 631 q 410 626 410 626 q 407 625 408 625 q 403 624 406 624 l 397 624 m 401 626 l 403 626 q 406 628 406 626 l 407 628 l 410 631 l 410 635 l 410 636 l 408 638 q 407 638 407 638 q 406 639 407 639 l 404 639 l 401 626 m 421 624 l 424 642 l 431 642 l 432 640 l 435 640 l 436 639 l 436 638 l 436 635 q 433 633 435 633 q 435 632 435 632 q 436 629 436 631 q 435 626 436 628 l 433 625 q 431 624 432 625 q 429 624 431 624 l 421 624 m 425 626 l 428 626 q 431 628 431 626 l 432 628 l 432 629 l 432 631 q 429 632 431 632 l 425 632 l 425 626 m 426 635 l 429 635 l 432 635 l 433 636 q 432 638 433 638 l 429 638 l 426 638 l 426 635 m 446 624 l 443 624 l 444 631 l 439 642 l 443 642 l 446 636 l 446 633 q 447 635 447 635 l 449 638 l 451 642 l 456 642 l 447 631 l 446 624 m 550 622 l 547 622 l 546 635 l 540 622 l 536 622 l 536 640 l 539 640 l 539 628 l 546 640 l 549 640 l 550 628 l 556 640 l 558 640 l 550 622 m 572 622 l 569 622 l 568 635 l 563 622 l 558 622 l 558 640 l 561 640 l 561 628 l 568 640 l 571 640 l 572 628 l 578 640 l 581 640 l 572 622 m 594 622 l 592 622 l 590 635 l 585 622 l 581 622 l 581 640 l 583 640 l 583 628 l 590 640 l 593 640 l 594 628 l 600 640 l 603 640 l 594 622 m 600 626 l 603 626 l 603 622 l 599 622 l 600 626 m 618 629 l 621 628 q 618 624 621 626 q 616 623 617 624 q 614 622 615 622 q 608 625 611 622 q 607 629 607 625 q 608 635 607 633 q 611 639 608 636 q 613 640 613 639 q 615 640 614 640 q 617 640 617 640 q 618 639 617 639 l 619 639 q 622 635 622 636 l 618 635 l 618 636 q 617 637 617 636 q 615 638 617 638 q 613 636 614 636 q 611 633 611 635 q 610 629 610 632 q 610 628 610 628 q 611 626 611 628 q 614 625 613 625 q 617 626 615 626 q 618 629 617 628 m 635 631 l 628 631 l 626 622 l 622 622 l 626 640 l 629 640 l 628 633 l 635 633 l 636 640 l 639 640 l 636 622 l 632 622 l 635 631 m 643 622 l 639 622 l 643 640 l 650 640 q 652 640 651 640 q 654 639 653 639 l 656 638 l 656 635 q 654 632 656 632 q 651 631 654 631 l 651 628 q 654 622 654 625 l 651 622 q 649 628 651 622 q 647 629 649 629 l 646 629 l 644 629 l 643 622 m 644 632 l 647 632 l 650 632 l 651 633 l 653 635 q 651 636 653 636 q 650 638 651 638 l 646 638 l 644 632 m 657 622 l 660 640 l 664 640 l 660 622 l 657 622 m 664 628 l 667 628 l 667 626 q 668 626 668 626 q 669 625 668 625 q 672 626 672 625 q 674 628 674 626 l 672 629 l 671 631 q 668 632 668 631 q 667 633 667 632 q 665 635 665 635 q 666 637 665 636 q 667 639 667 638 q 669 640 668 639 q 671 640 669 640 q 674 640 674 640 q 676 639 675 639 q 678 635 678 638 l 675 635 q 674 636 674 636 q 671 638 674 638 q 669 636 669 638 l 669 635 q 672 633 669 633 q 675 631 675 631 q 676 628 676 631 q 675 624 676 625 q 673 623 674 624 q 669 622 672 622 q 667 624 668 622 q 664 625 664 625 l 664 628 m 688 622 l 683 622 l 681 640 l 683 640 l 686 626 l 693 640 l 696 640 l 688 622 m 694 622 l 697 640 l 701 640 l 697 622 l 694 622 m 701 622 l 704 640 l 708 640 l 706 625 l 714 625 l 713 622 l 701 622 m 715 622 l 718 640 l 731 640 l 731 638 l 722 638 l 721 633 l 729 633 l 729 631 l 721 631 l 719 625 l 729 625 l 728 622 l 715 622 m 732 626 l 735 626 l 735 622 l 731 622 l 732 626 m 750 629 l 753 628 q 750 624 753 626 q 748 623 749 624 q 746 622 747 622 q 740 625 743 622 q 739 629 739 625 q 740 635 739 633 q 743 639 740 636 q 745 640 744 639 q 747 640 746 640 q 749 640 749 640 q 750 639 749 639 l 751 639 q 754 635 754 636 l 750 635 l 750 636 q 749 637 749 636 q 747 638 749 638 q 746 637 746 638 q 744 636 746 636 q 743 633 743 635 q 742 629 742 632 q 743 626 742 628 q 746 625 744 625 l 747 626 q 750 629 747 626 m 756 629 l 756 632 q 757 634 757 633 q 758 636 757 635 q 761 639 758 639 q 765 640 763 640 q 769 638 767 640 q 772 633 772 635 q 772 630 772 631 q 771 628 771 629 l 767 624 q 765 623 765 624 q 763 622 764 622 q 758 624 760 622 q 756 626 758 624 l 756 629 m 758 629 q 759 628 758 628 q 760 626 760 628 q 761 626 761 626 q 763 625 761 625 q 764 626 764 625 q 765 626 764 626 q 768 629 765 626 l 768 633 q 767 636 768 635 q 764 638 765 638 q 761 635 761 638 q 758 629 758 632 m 782 622 l 779 622 l 778 638 l 776 622 l 772 622 l 776 640 l 781 640 l 782 628 l 788 640 l 792 640 l 789 622 l 786 622 l 789 636 l 782 622 z "},"8":{"ha":1085,"x_min":50,"x_max":1035,"o":"m 526 511 q 481 430 501 467 q 433 344 460 393 q 319 436 363 374 q 283 506 297 467 q 268 593 268 544 q 283 682 268 643 q 318 751 297 721 q 433 843 361 811 l 433 667 l 526 667 l 526 960 q 382 925 442 956 q 278 850 322 894 q 206 743 236 808 q 183 675 192 711 q 174 596 174 639 q 192 480 174 529 q 236 390 210 431 q 379 264 290 310 q 410 251 394 257 q 444 240 426 244 q 522 228 479 231 q 525 228 522 228 l 526 228 l 526 235 l 526 511 m 550 675 q 596 756 575 719 q 643 842 617 792 q 757 749 714 810 q 794 680 779 718 q 808 592 808 642 q 794 503 808 543 q 758 435 779 464 q 643 342 715 374 l 643 519 l 550 519 l 550 226 q 694 261 635 231 q 799 336 754 292 q 871 443 844 382 q 894 510 885 474 q 903 589 903 547 q 885 706 903 656 q 840 796 868 756 q 777 867 813 836 q 697 921 742 899 q 632 946 669 935 q 594 953 614 950 q 554 957 575 957 q 553 958 556 957 q 550 958 551 958 l 550 951 l 550 675 m 543 101 q 354 138 443 101 q 194 246 265 175 q 87 406 124 317 q 50 594 50 494 q 87 783 50 694 q 194 942 124 872 q 354 1049 265 1013 q 543 1086 443 1086 q 731 1049 642 1086 q 890 942 819 1013 q 998 783 961 872 q 1035 594 1035 694 q 998 406 1035 494 q 890 246 961 317 q 731 138 819 175 q 543 101 642 101 m 543 1039 q 370 1004 451 1039 q 228 909 289 969 q 133 767 168 849 q 97 594 97 686 q 133 422 97 503 q 228 280 168 340 q 370 184 289 219 q 543 149 451 149 q 715 184 635 149 q 856 280 796 219 q 952 422 917 340 q 988 594 988 503 q 952 767 988 686 q 856 909 917 849 q 715 1004 796 969 q 543 1039 635 1039 m 326 569 l 340 567 q 328 550 336 556 q 310 544 317 544 q 290 551 300 544 q 283 572 283 561 q 289 593 283 582 q 301 607 293 603 q 318 613 308 613 q 336 607 325 613 q 343 592 343 600 l 331 590 l 326 599 q 318 600 324 600 q 308 597 311 600 q 300 586 301 593 q 297 572 297 578 q 301 560 297 564 q 310 556 303 556 q 319 560 315 556 q 326 569 324 563 m 390 575 l 365 575 l 358 546 l 344 546 l 358 611 l 372 611 l 367 586 l 392 586 l 397 611 l 411 611 l 397 546 l 383 546 l 390 575 m 425 546 l 411 546 l 425 611 l 454 611 q 465 610 463 611 q 472 604 471 607 q 475 594 475 599 q 469 581 475 585 q 454 574 467 576 l 460 568 q 465 558 463 564 q 469 546 467 553 l 456 546 q 453 553 454 549 q 449 563 451 557 q 445 568 446 565 q 442 572 444 571 l 436 572 l 431 572 l 425 546 m 432 583 l 439 583 l 454 583 q 457 585 456 585 q 460 588 458 586 q 461 594 461 590 q 458 599 461 599 q 450 600 457 600 l 436 600 l 432 583 m 476 546 l 490 611 l 503 611 l 489 546 l 476 546 m 504 567 l 517 568 q 519 560 517 563 q 529 556 521 556 q 539 558 536 556 q 542 564 542 560 q 540 569 542 568 q 531 574 539 569 l 519 579 q 514 585 515 581 q 513 593 513 588 q 518 607 513 601 q 535 613 524 613 q 553 607 547 613 q 560 593 560 600 l 547 592 q 543 599 547 596 q 535 601 542 601 q 528 600 529 601 q 525 594 525 599 q 526 590 525 592 q 531 588 528 589 q 536 585 533 588 q 546 581 543 582 q 551 578 549 579 q 556 565 556 571 q 549 551 556 558 q 529 544 542 544 q 515 547 524 544 q 507 556 508 551 q 504 567 504 558 m 621 546 l 607 546 l 594 611 l 608 611 l 617 561 l 643 611 l 657 611 l 621 546 m 649 546 l 663 611 l 675 611 l 661 546 l 649 546 m 675 546 l 689 611 l 701 611 l 690 557 l 724 557 l 721 546 l 675 546 m 731 546 l 743 611 l 792 611 l 790 600 l 754 600 l 751 586 l 785 586 l 783 575 l 750 575 l 746 557 l 783 557 l 781 546 l 731 546 m 292 624 l 294 642 l 300 642 q 301 640 301 640 l 304 640 l 306 640 q 307 639 306 639 l 307 636 l 307 633 l 307 629 q 304 626 304 626 q 301 625 301 625 q 297 624 300 624 l 292 624 m 296 626 l 297 626 q 300 628 300 626 l 301 628 q 303 631 303 629 q 304 635 304 632 q 303 636 304 636 q 301 638 303 638 q 300 639 301 639 l 297 639 l 296 626 m 308 624 l 313 642 l 325 642 l 324 638 l 315 638 l 314 635 l 322 635 l 322 632 l 314 632 l 313 626 l 322 626 l 321 624 l 308 624 m 325 629 l 328 629 l 328 628 q 331 626 329 626 q 333 628 333 626 q 335 629 335 628 l 333 631 l 332 632 q 329 633 329 632 q 328 635 328 633 q 326 636 326 636 q 327 638 326 638 q 328 640 328 639 q 330 641 329 640 q 332 642 331 642 q 335 641 335 642 q 338 640 336 640 q 339 636 339 639 l 336 636 q 335 638 335 638 q 332 639 335 639 q 331 638 331 639 l 331 636 q 333 635 331 635 q 336 632 336 632 q 338 629 338 632 q 336 625 338 626 q 334 624 335 625 q 331 624 333 624 q 328 625 329 624 q 325 626 325 626 l 325 629 m 340 624 l 343 642 l 347 642 l 343 624 l 340 624 m 356 633 l 363 633 l 361 626 q 358 625 361 625 q 354 624 357 624 q 352 624 353 624 q 350 625 351 625 q 347 631 347 628 q 349 636 347 635 q 351 640 349 638 q 353 641 353 640 q 357 642 354 642 q 359 641 358 642 q 361 640 360 640 q 364 636 364 638 l 361 636 q 360 638 360 638 q 357 639 358 639 q 354 638 354 638 q 351 635 351 638 l 351 631 l 351 628 q 353 627 353 628 q 354 626 353 626 l 357 626 q 358 628 358 628 l 360 631 l 356 631 l 356 633 m 378 624 l 375 624 l 371 636 l 368 624 l 365 624 l 368 642 l 371 642 l 376 629 l 378 642 l 382 642 l 378 624 m 382 624 l 385 642 l 397 642 l 397 638 l 388 638 l 388 635 l 396 635 l 396 632 l 386 632 l 386 626 l 396 626 l 394 624 l 382 624 m 397 624 l 401 642 l 406 642 q 407 641 407 642 q 408 640 407 640 l 410 640 l 411 640 q 413 639 413 639 l 413 636 q 414 633 414 635 q 413 631 414 632 q 413 629 413 631 q 410 626 410 626 q 407 625 408 625 q 403 624 406 624 l 397 624 m 401 626 l 403 626 q 406 628 406 626 l 407 628 l 410 631 l 410 635 l 410 636 l 408 638 q 407 638 407 638 q 406 639 407 639 l 404 639 l 401 626 m 421 624 l 424 642 l 431 642 l 432 640 l 435 640 l 436 639 l 436 638 l 436 635 q 433 633 435 633 q 435 632 435 632 q 436 629 436 631 q 435 626 436 628 l 433 625 q 431 624 432 625 q 429 624 431 624 l 421 624 m 425 626 l 428 626 q 431 628 431 626 l 432 628 l 432 629 l 432 631 q 429 632 431 632 l 425 632 l 425 626 m 426 635 l 429 635 l 432 635 l 433 636 q 432 638 433 638 l 429 638 l 426 638 l 426 635 m 446 624 l 443 624 l 444 631 l 439 642 l 443 642 l 446 636 l 446 633 q 447 635 447 635 l 449 638 l 451 642 l 456 642 l 447 631 l 446 624 m 550 622 l 547 622 l 546 635 l 540 622 l 536 622 l 536 640 l 539 640 l 539 628 l 546 640 l 549 640 l 550 628 l 556 640 l 558 640 l 550 622 m 572 622 l 569 622 l 568 635 l 563 622 l 558 622 l 558 640 l 561 640 l 561 628 l 568 640 l 571 640 l 572 628 l 578 640 l 581 640 l 572 622 m 594 622 l 592 622 l 590 635 l 585 622 l 581 622 l 581 640 l 583 640 l 583 628 l 590 640 l 593 640 l 594 628 l 600 640 l 603 640 l 594 622 m 600 626 l 603 626 l 603 622 l 599 622 l 600 626 m 618 629 l 621 628 q 618 624 621 626 q 616 623 617 624 q 614 622 615 622 q 608 625 611 622 q 607 629 607 625 q 608 635 607 633 q 611 639 608 636 q 613 640 613 639 q 615 640 614 640 q 617 640 617 640 q 618 639 617 639 l 619 639 q 622 635 622 636 l 618 635 l 618 636 q 617 637 617 636 q 615 638 617 638 q 613 636 614 636 q 611 633 611 635 q 610 629 610 632 q 610 628 610 628 q 611 626 611 628 q 614 625 613 625 q 617 626 615 626 q 618 629 617 628 m 635 631 l 628 631 l 626 622 l 622 622 l 626 640 l 629 640 l 628 633 l 635 633 l 636 640 l 639 640 l 636 622 l 632 622 l 635 631 m 643 622 l 639 622 l 643 640 l 650 640 q 652 640 651 640 q 654 639 653 639 l 656 638 l 656 635 q 654 632 656 632 q 651 631 654 631 l 651 628 q 654 622 654 625 l 651 622 q 649 628 651 622 q 647 629 649 629 l 646 629 l 644 629 l 643 622 m 644 632 l 647 632 l 650 632 l 651 633 l 653 635 q 651 636 653 636 q 650 638 651 638 l 646 638 l 644 632 m 657 622 l 660 640 l 664 640 l 660 622 l 657 622 m 664 628 l 667 628 l 667 626 q 668 626 668 626 q 669 625 668 625 q 672 626 672 625 q 674 628 674 626 l 672 629 l 671 631 q 668 632 668 631 q 667 633 667 632 q 665 635 665 635 q 666 637 665 636 q 667 639 667 638 q 669 640 668 639 q 671 640 669 640 q 674 640 674 640 q 676 639 675 639 q 678 635 678 638 l 675 635 q 674 636 674 636 q 671 638 674 638 q 669 636 669 638 l 669 635 q 672 633 669 633 q 675 631 675 631 q 676 628 676 631 q 675 624 676 625 q 673 623 674 624 q 669 622 672 622 q 667 624 668 622 q 664 625 664 625 l 664 628 m 688 622 l 683 622 l 681 640 l 683 640 l 686 626 l 693 640 l 696 640 l 688 622 m 694 622 l 697 640 l 701 640 l 697 622 l 694 622 m 701 622 l 704 640 l 708 640 l 706 625 l 714 625 l 713 622 l 701 622 m 715 622 l 718 640 l 731 640 l 731 638 l 722 638 l 721 633 l 729 633 l 729 631 l 721 631 l 719 625 l 729 625 l 728 622 l 715 622 m 732 626 l 735 626 l 735 622 l 731 622 l 732 626 m 750 629 l 753 628 q 750 624 753 626 q 748 623 749 624 q 746 622 747 622 q 740 625 743 622 q 739 629 739 625 q 740 635 739 633 q 743 639 740 636 q 745 640 744 639 q 747 640 746 640 q 749 640 749 640 q 750 639 749 639 l 751 639 q 754 635 754 636 l 750 635 l 750 636 q 749 637 749 636 q 747 638 749 638 q 746 637 746 638 q 744 636 746 636 q 743 633 743 635 q 742 629 742 632 q 743 626 742 628 q 746 625 744 625 l 747 626 q 750 629 747 626 m 756 629 l 756 632 q 757 634 757 633 q 758 636 757 635 q 761 639 758 639 q 765 640 763 640 q 769 638 767 640 q 772 633 772 635 q 772 630 772 631 q 771 628 771 629 l 767 624 q 765 623 765 624 q 763 622 764 622 q 758 624 760 622 q 756 626 758 624 l 756 629 m 758 629 q 759 628 758 628 q 760 626 760 628 q 761 626 761 626 q 763 625 761 625 q 764 626 764 625 q 765 626 764 626 q 768 629 765 626 l 768 633 q 767 636 768 635 q 764 638 765 638 q 761 635 761 638 q 758 629 758 632 m 782 622 l 779 622 l 778 638 l 776 622 l 772 622 l 776 640 l 781 640 l 782 628 l 788 640 l 792 640 l 789 622 l 786 622 l 789 636 l 782 622 z "},"9":{"ha":1085,"x_min":50,"x_max":1035,"o":"m 526 511 q 481 430 501 467 q 433 344 460 393 q 319 436 363 374 q 283 506 297 467 q 268 593 268 544 q 283 682 268 643 q 318 751 297 721 q 433 843 361 811 l 433 667 l 526 667 l 526 960 q 382 925 442 956 q 278 850 322 894 q 206 743 236 808 q 183 675 192 711 q 174 596 174 639 q 192 480 174 529 q 236 390 210 431 q 379 264 290 310 q 410 251 394 257 q 444 240 426 244 q 522 228 479 231 q 525 228 522 228 l 526 228 l 526 235 l 526 511 m 550 675 q 596 756 575 719 q 643 842 617 792 q 757 749 714 810 q 794 680 779 718 q 808 592 808 642 q 794 503 808 543 q 758 435 779 464 q 643 342 715 374 l 643 519 l 550 519 l 550 226 q 694 261 635 231 q 799 336 754 292 q 871 443 844 382 q 894 510 885 474 q 903 589 903 547 q 885 706 903 656 q 840 796 868 756 q 777 867 813 836 q 697 921 742 899 q 632 946 669 935 q 594 953 614 950 q 554 957 575 957 q 553 958 556 957 q 550 958 551 958 l 550 951 l 550 675 m 543 101 q 354 138 443 101 q 194 246 265 175 q 87 406 124 317 q 50 594 50 494 q 87 783 50 694 q 194 942 124 872 q 354 1049 265 1013 q 543 1086 443 1086 q 731 1049 642 1086 q 890 942 819 1013 q 998 783 961 872 q 1035 594 1035 694 q 998 406 1035 494 q 890 246 961 317 q 731 138 819 175 q 543 101 642 101 m 543 1039 q 370 1004 451 1039 q 228 909 289 969 q 133 767 168 849 q 97 594 97 686 q 133 422 97 503 q 228 280 168 340 q 370 184 289 219 q 543 149 451 149 q 715 184 635 149 q 856 280 796 219 q 952 422 917 340 q 988 594 988 503 q 952 767 988 686 q 856 909 917 849 q 715 1004 796 969 q 543 1039 635 1039 m 326 569 l 340 567 q 328 550 336 556 q 310 544 317 544 q 290 551 300 544 q 283 572 283 561 q 289 593 283 582 q 301 607 293 603 q 318 613 308 613 q 336 607 325 613 q 343 592 343 600 l 331 590 l 326 599 q 318 600 324 600 q 308 597 311 600 q 300 586 301 593 q 297 572 297 578 q 301 560 297 564 q 310 556 303 556 q 319 560 315 556 q 326 569 324 563 m 390 575 l 365 575 l 358 546 l 344 546 l 358 611 l 372 611 l 367 586 l 392 586 l 397 611 l 411 611 l 397 546 l 383 546 l 390 575 m 425 546 l 411 546 l 425 611 l 454 611 q 465 610 463 611 q 472 604 471 607 q 475 594 475 599 q 469 581 475 585 q 454 574 467 576 l 460 568 q 465 558 463 564 q 469 546 467 553 l 456 546 q 453 553 454 549 q 449 563 451 557 q 445 568 446 565 q 442 572 444 571 l 436 572 l 431 572 l 425 546 m 432 583 l 439 583 l 454 583 q 457 585 456 585 q 460 588 458 586 q 461 594 461 590 q 458 599 461 599 q 450 600 457 600 l 436 600 l 432 583 m 476 546 l 490 611 l 503 611 l 489 546 l 476 546 m 504 567 l 517 568 q 519 560 517 563 q 529 556 521 556 q 539 558 536 556 q 542 564 542 560 q 540 569 542 568 q 531 574 539 569 l 519 579 q 514 585 515 581 q 513 593 513 588 q 518 607 513 601 q 535 613 524 613 q 553 607 547 613 q 560 593 560 600 l 547 592 q 543 599 547 596 q 535 601 542 601 q 528 600 529 601 q 525 594 525 599 q 526 590 525 592 q 531 588 528 589 q 536 585 533 588 q 546 581 543 582 q 551 578 549 579 q 556 565 556 571 q 549 551 556 558 q 529 544 542 544 q 515 547 524 544 q 507 556 508 551 q 504 567 504 558 m 621 546 l 607 546 l 594 611 l 608 611 l 617 561 l 643 611 l 657 611 l 621 546 m 649 546 l 663 611 l 675 611 l 661 546 l 649 546 m 675 546 l 689 611 l 701 611 l 690 557 l 724 557 l 721 546 l 675 546 m 731 546 l 743 611 l 792 611 l 790 600 l 754 600 l 751 586 l 785 586 l 783 575 l 750 575 l 746 557 l 783 557 l 781 546 l 731 546 m 292 624 l 294 642 l 300 642 q 301 640 301 640 l 304 640 l 306 640 q 307 639 306 639 l 307 636 l 307 633 l 307 629 q 304 626 304 626 q 301 625 301 625 q 297 624 300 624 l 292 624 m 296 626 l 297 626 q 300 628 300 626 l 301 628 q 303 631 303 629 q 304 635 304 632 q 303 636 304 636 q 301 638 303 638 q 300 639 301 639 l 297 639 l 296 626 m 308 624 l 313 642 l 325 642 l 324 638 l 315 638 l 314 635 l 322 635 l 322 632 l 314 632 l 313 626 l 322 626 l 321 624 l 308 624 m 325 629 l 328 629 l 328 628 q 331 626 329 626 q 333 628 333 626 q 335 629 335 628 l 333 631 l 332 632 q 329 633 329 632 q 328 635 328 633 q 326 636 326 636 q 327 638 326 638 q 328 640 328 639 q 330 641 329 640 q 332 642 331 642 q 335 641 335 642 q 338 640 336 640 q 339 636 339 639 l 336 636 q 335 638 335 638 q 332 639 335 639 q 331 638 331 639 l 331 636 q 333 635 331 635 q 336 632 336 632 q 338 629 338 632 q 336 625 338 626 q 334 624 335 625 q 331 624 333 624 q 328 625 329 624 q 325 626 325 626 l 325 629 m 340 624 l 343 642 l 347 642 l 343 624 l 340 624 m 356 633 l 363 633 l 361 626 q 358 625 361 625 q 354 624 357 624 q 352 624 353 624 q 350 625 351 625 q 347 631 347 628 q 349 636 347 635 q 351 640 349 638 q 353 641 353 640 q 357 642 354 642 q 359 641 358 642 q 361 640 360 640 q 364 636 364 638 l 361 636 q 360 638 360 638 q 357 639 358 639 q 354 638 354 638 q 351 635 351 638 l 351 631 l 351 628 q 353 627 353 628 q 354 626 353 626 l 357 626 q 358 628 358 628 l 360 631 l 356 631 l 356 633 m 378 624 l 375 624 l 371 636 l 368 624 l 365 624 l 368 642 l 371 642 l 376 629 l 378 642 l 382 642 l 378 624 m 382 624 l 385 642 l 397 642 l 397 638 l 388 638 l 388 635 l 396 635 l 396 632 l 386 632 l 386 626 l 396 626 l 394 624 l 382 624 m 397 624 l 401 642 l 406 642 q 407 641 407 642 q 408 640 407 640 l 410 640 l 411 640 q 413 639 413 639 l 413 636 q 414 633 414 635 q 413 631 414 632 q 413 629 413 631 q 410 626 410 626 q 407 625 408 625 q 403 624 406 624 l 397 624 m 401 626 l 403 626 q 406 628 406 626 l 407 628 l 410 631 l 410 635 l 410 636 l 408 638 q 407 638 407 638 q 406 639 407 639 l 404 639 l 401 626 m 421 624 l 424 642 l 431 642 l 432 640 l 435 640 l 436 639 l 436 638 l 436 635 q 433 633 435 633 q 435 632 435 632 q 436 629 436 631 q 435 626 436 628 l 433 625 q 431 624 432 625 q 429 624 431 624 l 421 624 m 425 626 l 428 626 q 431 628 431 626 l 432 628 l 432 629 l 432 631 q 429 632 431 632 l 425 632 l 425 626 m 426 635 l 429 635 l 432 635 l 433 636 q 432 638 433 638 l 429 638 l 426 638 l 426 635 m 446 624 l 443 624 l 444 631 l 439 642 l 443 642 l 446 636 l 446 633 q 447 635 447 635 l 449 638 l 451 642 l 456 642 l 447 631 l 446 624 m 550 622 l 547 622 l 546 635 l 540 622 l 536 622 l 536 640 l 539 640 l 539 628 l 546 640 l 549 640 l 550 628 l 556 640 l 558 640 l 550 622 m 572 622 l 569 622 l 568 635 l 563 622 l 558 622 l 558 640 l 561 640 l 561 628 l 568 640 l 571 640 l 572 628 l 578 640 l 581 640 l 572 622 m 594 622 l 592 622 l 590 635 l 585 622 l 581 622 l 581 640 l 583 640 l 583 628 l 590 640 l 593 640 l 594 628 l 600 640 l 603 640 l 594 622 m 600 626 l 603 626 l 603 622 l 599 622 l 600 626 m 618 629 l 621 628 q 618 624 621 626 q 616 623 617 624 q 614 622 615 622 q 608 625 611 622 q 607 629 607 625 q 608 635 607 633 q 611 639 608 636 q 613 640 613 639 q 615 640 614 640 q 617 640 617 640 q 618 639 617 639 l 619 639 q 622 635 622 636 l 618 635 l 618 636 q 617 637 617 636 q 615 638 617 638 q 613 636 614 636 q 611 633 611 635 q 610 629 610 632 q 610 628 610 628 q 611 626 611 628 q 614 625 613 625 q 617 626 615 626 q 618 629 617 628 m 635 631 l 628 631 l 626 622 l 622 622 l 626 640 l 629 640 l 628 633 l 635 633 l 636 640 l 639 640 l 636 622 l 632 622 l 635 631 m 643 622 l 639 622 l 643 640 l 650 640 q 652 640 651 640 q 654 639 653 639 l 656 638 l 656 635 q 654 632 656 632 q 651 631 654 631 l 651 628 q 654 622 654 625 l 651 622 q 649 628 651 622 q 647 629 649 629 l 646 629 l 644 629 l 643 622 m 644 632 l 647 632 l 650 632 l 651 633 l 653 635 q 651 636 653 636 q 650 638 651 638 l 646 638 l 644 632 m 657 622 l 660 640 l 664 640 l 660 622 l 657 622 m 664 628 l 667 628 l 667 626 q 668 626 668 626 q 669 625 668 625 q 672 626 672 625 q 674 628 674 626 l 672 629 l 671 631 q 668 632 668 631 q 667 633 667 632 q 665 635 665 635 q 666 637 665 636 q 667 639 667 638 q 669 640 668 639 q 671 640 669 640 q 674 640 674 640 q 676 639 675 639 q 678 635 678 638 l 675 635 q 674 636 674 636 q 671 638 674 638 q 669 636 669 638 l 669 635 q 672 633 669 633 q 675 631 675 631 q 676 628 676 631 q 675 624 676 625 q 673 623 674 624 q 669 622 672 622 q 667 624 668 622 q 664 625 664 625 l 664 628 m 688 622 l 683 622 l 681 640 l 683 640 l 686 626 l 693 640 l 696 640 l 688 622 m 694 622 l 697 640 l 701 640 l 697 622 l 694 622 m 701 622 l 704 640 l 708 640 l 706 625 l 714 625 l 713 622 l 701 622 m 715 622 l 718 640 l 731 640 l 731 638 l 722 638 l 721 633 l 729 633 l 729 631 l 721 631 l 719 625 l 729 625 l 728 622 l 715 622 m 732 626 l 735 626 l 735 622 l 731 622 l 732 626 m 750 629 l 753 628 q 750 624 753 626 q 748 623 749 624 q 746 622 747 622 q 740 625 743 622 q 739 629 739 625 q 740 635 739 633 q 743 639 740 636 q 745 640 744 639 q 747 640 746 640 q 749 640 749 640 q 750 639 749 639 l 751 639 q 754 635 754 636 l 750 635 l 750 636 q 749 637 749 636 q 747 638 749 638 q 746 637 746 638 q 744 636 746 636 q 743 633 743 635 q 742 629 742 632 q 743 626 742 628 q 746 625 744 625 l 747 626 q 750 629 747 626 m 756 629 l 756 632 q 757 634 757 633 q 758 636 757 635 q 761 639 758 639 q 765 640 763 640 q 769 638 767 640 q 772 633 772 635 q 772 630 772 631 q 771 628 771 629 l 767 624 q 765 623 765 624 q 763 622 764 622 q 758 624 760 622 q 756 626 758 624 l 756 629 m 758 629 q 759 628 758 628 q 760 626 760 628 q 761 626 761 626 q 763 625 761 625 q 764 626 764 625 q 765 626 764 626 q 768 629 765 626 l 768 633 q 767 636 768 635 q 764 638 765 638 q 761 635 761 638 q 758 629 758 632 m 782 622 l 779 622 l 778 638 l 776 622 l 772 622 l 776 640 l 781 640 l 782 628 l 788 640 l 792 640 l 789 622 l 786 622 l 789 636 l 782 622 z "},"\u0000":{"ha":0,"x_min":0,"x_max":0,"o":""},"\r":{"ha":0,"x_min":0,"x_max":0,"o":""}," ":{"ha":669,"x_min":0,"x_max":0,"o":""},"!":{"ha":315,"x_min":103,"x_max":215,"o":"m 164 824 q 166 812 165 817 q 168 801 167 807 q 169 799 168 799 q 169 796 169 799 q 172 777 171 788 q 175 756 174 767 l 175 743 q 176 738 175 740 q 176 732 176 735 l 176 706 q 176 688 176 699 q 178 667 176 678 q 179 649 179 660 q 179 626 179 638 q 181 599 181 615 q 183 571 182 583 q 183 551 183 561 q 183 531 182 542 q 184 525 183 528 q 185 519 185 522 q 185 488 186 504 q 185 454 185 471 q 186 417 185 435 q 185 389 188 400 q 182 382 183 383 q 179 375 181 381 q 181 367 179 368 q 185 349 186 358 l 185 346 l 183 346 q 183 341 182 343 q 181 339 183 339 q 178 333 182 336 q 176 328 178 328 q 180 327 179 324 q 183 331 181 331 q 185 319 185 329 q 183 317 183 319 q 181 317 183 315 l 181 318 l 179 319 q 171 321 178 321 q 168 319 169 319 q 166 323 167 319 q 164 328 165 326 q 160 329 161 328 q 154 328 154 329 q 151 326 151 328 q 149 328 150 325 q 147 532 149 431 q 147 738 146 633 q 146 726 146 736 q 144 690 146 710 q 140 650 142 669 q 140 647 142 647 q 139 649 139 647 q 138 733 140 688 q 147 807 135 778 l 147 818 q 152 824 146 825 q 164 824 158 822 m 139 635 q 140 635 140 635 q 141 618 142 626 q 140 603 140 610 q 142 599 142 600 q 143 594 142 597 q 142 573 143 583 q 143 551 142 563 q 143 528 143 543 q 144 501 143 514 q 145 498 144 499 q 146 494 146 497 q 147 465 147 479 q 146 436 146 451 q 146 352 146 394 q 147 269 146 310 q 142 263 147 264 q 138 257 138 263 q 139 252 139 254 q 140 247 139 250 q 145 244 143 244 q 147 240 147 243 q 145 210 147 224 q 143 179 143 196 q 146 174 140 174 q 151 176 151 172 q 150 182 150 179 q 151 211 153 194 q 149 240 149 228 q 150 243 149 243 q 153 246 151 243 q 158 243 158 247 q 157 236 157 239 q 161 232 160 233 q 165 231 163 231 q 176 240 174 231 q 174 245 175 243 q 169 250 172 247 l 163 250 q 158 250 158 247 q 160 254 158 253 q 160 258 161 256 q 163 260 160 261 q 168 260 165 258 q 174 258 171 256 q 181 258 178 261 q 183 239 183 249 q 183 218 183 229 q 181 215 181 217 q 178 214 181 214 q 176 213 178 213 q 174 211 174 214 q 169 208 169 211 q 165 204 169 204 q 164 213 165 210 q 164 221 163 215 q 162 215 161 218 q 163 210 163 213 q 162 192 161 203 q 160 174 163 181 q 166 174 163 175 q 169 176 169 174 q 172 176 171 179 q 175 174 172 174 q 170 172 172 171 q 165 172 168 172 l 135 172 q 133 195 135 183 q 129 219 131 207 l 129 228 q 128 246 128 235 q 128 268 128 257 q 129 270 128 269 q 129 272 131 271 l 128 274 q 128 278 128 275 q 131 283 129 282 l 135 288 q 135 292 136 289 q 139 293 135 296 q 138 297 139 296 q 136 301 136 299 q 143 325 146 311 q 129 342 139 336 q 130 424 132 383 q 129 504 128 464 q 130 508 129 507 q 131 511 131 508 q 132 531 132 522 q 133 551 132 540 q 133 556 133 556 l 135 557 l 135 571 q 137 602 135 585 q 139 635 139 619 m 149 315 q 153 313 151 314 q 160 311 156 311 q 158 306 161 308 q 157 300 156 304 q 164 288 157 292 q 167 285 165 285 q 169 282 168 285 q 175 285 172 283 q 183 286 178 286 l 183 268 q 178 269 182 271 q 175 271 175 268 q 163 264 169 268 q 149 267 156 260 q 149 276 151 268 q 149 286 146 283 q 150 290 151 288 q 149 297 149 292 l 149 315 m 157 1 q 152 5 153 1 q 150 11 151 8 q 147 13 147 11 l 143 13 q 139 11 140 13 q 136 10 136 8 q 132 11 133 10 q 128 14 131 13 q 125 18 126 15 q 121 20 124 18 q 118 25 118 22 l 118 28 l 117 29 q 115 31 115 29 l 115 33 l 114 33 q 113 38 113 36 q 111 40 114 40 q 112 48 113 43 q 114 54 111 53 q 108 59 111 57 q 104 64 106 61 q 110 90 103 78 q 111 92 111 92 q 114 95 113 94 q 118 99 115 96 q 124 105 122 103 q 133 110 126 107 q 145 114 138 113 q 160 114 153 115 q 163 113 163 114 q 165 113 163 113 q 176 111 172 113 l 178 110 q 179 108 178 108 q 185 107 182 107 q 186 105 186 106 q 188 103 186 104 q 192 101 190 101 q 196 99 194 100 q 198 95 197 97 q 200 90 199 93 q 206 83 204 86 q 210 42 215 65 q 210 39 210 39 q 208 37 210 38 q 207 35 207 36 q 206 30 206 32 q 204 25 206 28 q 199 22 201 22 q 194 18 197 21 q 191 13 192 15 q 188 11 190 11 q 185 10 186 11 q 183 8 185 8 q 180 6 181 8 q 176 4 179 4 l 175 4 q 167 2 172 4 q 157 1 163 0 m 133 71 q 134 74 133 74 q 135 78 135 75 q 130 75 129 78 q 133 71 131 72 m 153 56 q 156 55 154 56 q 160 54 157 54 q 156 63 161 60 q 153 60 156 60 q 153 56 151 60 m 156 15 q 163 6 154 8 q 167 13 167 10 q 156 15 164 21 z "},":":{"ha":1085,"x_min":50,"x_max":1035,"o":"m 526 511 q 481 430 501 467 q 433 344 460 393 q 319 436 363 374 q 283 506 297 467 q 268 593 268 544 q 283 682 268 643 q 318 751 297 721 q 433 843 361 811 l 433 667 l 526 667 l 526 960 q 382 925 442 956 q 278 850 322 894 q 206 743 236 808 q 183 675 192 711 q 174 596 174 639 q 192 480 174 529 q 236 390 210 431 q 379 264 290 310 q 410 251 394 257 q 444 240 426 244 q 522 228 479 231 q 525 228 522 228 l 526 228 l 526 235 l 526 511 m 550 675 q 596 756 575 719 q 643 842 617 792 q 757 749 714 810 q 794 680 779 718 q 808 592 808 642 q 794 503 808 543 q 758 435 779 464 q 643 342 715 374 l 643 519 l 550 519 l 550 226 q 694 261 635 231 q 799 336 754 292 q 871 443 844 382 q 894 510 885 474 q 903 589 903 547 q 885 706 903 656 q 840 796 868 756 q 777 867 813 836 q 697 921 742 899 q 632 946 669 935 q 594 953 614 950 q 554 957 575 957 q 553 958 556 957 q 550 958 551 958 l 550 951 l 550 675 m 543 101 q 354 138 443 101 q 194 246 265 175 q 87 406 124 317 q 50 594 50 494 q 87 783 50 694 q 194 942 124 872 q 354 1049 265 1013 q 543 1086 443 1086 q 731 1049 642 1086 q 890 942 819 1013 q 998 783 961 872 q 1035 594 1035 694 q 998 406 1035 494 q 890 246 961 317 q 731 138 819 175 q 543 101 642 101 m 543 1039 q 370 1004 451 1039 q 228 909 289 969 q 133 767 168 849 q 97 594 97 686 q 133 422 97 503 q 228 280 168 340 q 370 184 289 219 q 543 149 451 149 q 715 184 635 149 q 856 280 796 219 q 952 422 917 340 q 988 594 988 503 q 952 767 988 686 q 856 909 917 849 q 715 1004 796 969 q 543 1039 635 1039 m 326 569 l 340 567 q 328 550 336 556 q 310 544 317 544 q 290 551 300 544 q 283 572 283 561 q 289 593 283 582 q 301 607 293 603 q 318 613 308 613 q 336 607 325 613 q 343 592 343 600 l 331 590 l 326 599 q 318 600 324 600 q 308 597 311 600 q 300 586 301 593 q 297 572 297 578 q 301 560 297 564 q 310 556 303 556 q 319 560 315 556 q 326 569 324 563 m 390 575 l 365 575 l 358 546 l 344 546 l 358 611 l 372 611 l 367 586 l 392 586 l 397 611 l 411 611 l 397 546 l 383 546 l 390 575 m 425 546 l 411 546 l 425 611 l 454 611 q 465 610 463 611 q 472 604 471 607 q 475 594 475 599 q 469 581 475 585 q 454 574 467 576 l 460 568 q 465 558 463 564 q 469 546 467 553 l 456 546 q 453 553 454 549 q 449 563 451 557 q 445 568 446 565 q 442 572 444 571 l 436 572 l 431 572 l 425 546 m 432 583 l 439 583 l 454 583 q 457 585 456 585 q 460 588 458 586 q 461 594 461 590 q 458 599 461 599 q 450 600 457 600 l 436 600 l 432 583 m 476 546 l 490 611 l 503 611 l 489 546 l 476 546 m 504 567 l 517 568 q 519 560 517 563 q 529 556 521 556 q 539 558 536 556 q 542 564 542 560 q 540 569 542 568 q 531 574 539 569 l 519 579 q 514 585 515 581 q 513 593 513 588 q 518 607 513 601 q 535 613 524 613 q 553 607 547 613 q 560 593 560 600 l 547 592 q 543 599 547 596 q 535 601 542 601 q 528 600 529 601 q 525 594 525 599 q 526 590 525 592 q 531 588 528 589 q 536 585 533 588 q 546 581 543 582 q 551 578 549 579 q 556 565 556 571 q 549 551 556 558 q 529 544 542 544 q 515 547 524 544 q 507 556 508 551 q 504 567 504 558 m 621 546 l 607 546 l 594 611 l 608 611 l 617 561 l 643 611 l 657 611 l 621 546 m 649 546 l 663 611 l 675 611 l 661 546 l 649 546 m 675 546 l 689 611 l 701 611 l 690 557 l 724 557 l 721 546 l 675 546 m 731 546 l 743 611 l 792 611 l 790 600 l 754 600 l 751 586 l 785 586 l 783 575 l 750 575 l 746 557 l 783 557 l 781 546 l 731 546 m 292 624 l 294 642 l 300 642 q 301 640 301 640 l 304 640 l 306 640 q 307 639 306 639 l 307 636 l 307 633 l 307 629 q 304 626 304 626 q 301 625 301 625 q 297 624 300 624 l 292 624 m 296 626 l 297 626 q 300 628 300 626 l 301 628 q 303 631 303 629 q 304 635 304 632 q 303 636 304 636 q 301 638 303 638 q 300 639 301 639 l 297 639 l 296 626 m 308 624 l 313 642 l 325 642 l 324 638 l 315 638 l 314 635 l 322 635 l 322 632 l 314 632 l 313 626 l 322 626 l 321 624 l 308 624 m 325 629 l 328 629 l 328 628 q 331 626 329 626 q 333 628 333 626 q 335 629 335 628 l 333 631 l 332 632 q 329 633 329 632 q 328 635 328 633 q 326 636 326 636 q 327 638 326 638 q 328 640 328 639 q 330 641 329 640 q 332 642 331 642 q 335 641 335 642 q 338 640 336 640 q 339 636 339 639 l 336 636 q 335 638 335 638 q 332 639 335 639 q 331 638 331 639 l 331 636 q 333 635 331 635 q 336 632 336 632 q 338 629 338 632 q 336 625 338 626 q 334 624 335 625 q 331 624 333 624 q 328 625 329 624 q 325 626 325 626 l 325 629 m 340 624 l 343 642 l 347 642 l 343 624 l 340 624 m 356 633 l 363 633 l 361 626 q 358 625 361 625 q 354 624 357 624 q 352 624 353 624 q 350 625 351 625 q 347 631 347 628 q 349 636 347 635 q 351 640 349 638 q 353 641 353 640 q 357 642 354 642 q 359 641 358 642 q 361 640 360 640 q 364 636 364 638 l 361 636 q 360 638 360 638 q 357 639 358 639 q 354 638 354 638 q 351 635 351 638 l 351 631 l 351 628 q 353 627 353 628 q 354 626 353 626 l 357 626 q 358 628 358 628 l 360 631 l 356 631 l 356 633 m 378 624 l 375 624 l 371 636 l 368 624 l 365 624 l 368 642 l 371 642 l 376 629 l 378 642 l 382 642 l 378 624 m 382 624 l 385 642 l 397 642 l 397 638 l 388 638 l 388 635 l 396 635 l 396 632 l 386 632 l 386 626 l 396 626 l 394 624 l 382 624 m 397 624 l 401 642 l 406 642 q 407 641 407 642 q 408 640 407 640 l 410 640 l 411 640 q 413 639 413 639 l 413 636 q 414 633 414 635 q 413 631 414 632 q 413 629 413 631 q 410 626 410 626 q 407 625 408 625 q 403 624 406 624 l 397 624 m 401 626 l 403 626 q 406 628 406 626 l 407 628 l 410 631 l 410 635 l 410 636 l 408 638 q 407 638 407 638 q 406 639 407 639 l 404 639 l 401 626 m 421 624 l 424 642 l 431 642 l 432 640 l 435 640 l 436 639 l 436 638 l 436 635 q 433 633 435 633 q 435 632 435 632 q 436 629 436 631 q 435 626 436 628 l 433 625 q 431 624 432 625 q 429 624 431 624 l 421 624 m 425 626 l 428 626 q 431 628 431 626 l 432 628 l 432 629 l 432 631 q 429 632 431 632 l 425 632 l 425 626 m 426 635 l 429 635 l 432 635 l 433 636 q 432 638 433 638 l 429 638 l 426 638 l 426 635 m 446 624 l 443 624 l 444 631 l 439 642 l 443 642 l 446 636 l 446 633 q 447 635 447 635 l 449 638 l 451 642 l 456 642 l 447 631 l 446 624 m 550 622 l 547 622 l 546 635 l 540 622 l 536 622 l 536 640 l 539 640 l 539 628 l 546 640 l 549 640 l 550 628 l 556 640 l 558 640 l 550 622 m 572 622 l 569 622 l 568 635 l 563 622 l 558 622 l 558 640 l 561 640 l 561 628 l 568 640 l 571 640 l 572 628 l 578 640 l 581 640 l 572 622 m 594 622 l 592 622 l 590 635 l 585 622 l 581 622 l 581 640 l 583 640 l 583 628 l 590 640 l 593 640 l 594 628 l 600 640 l 603 640 l 594 622 m 600 626 l 603 626 l 603 622 l 599 622 l 600 626 m 618 629 l 621 628 q 618 624 621 626 q 616 623 617 624 q 614 622 615 622 q 608 625 611 622 q 607 629 607 625 q 608 635 607 633 q 611 639 608 636 q 613 640 613 639 q 615 640 614 640 q 617 640 617 640 q 618 639 617 639 l 619 639 q 622 635 622 636 l 618 635 l 618 636 q 617 637 617 636 q 615 638 617 638 q 613 636 614 636 q 611 633 611 635 q 610 629 610 632 q 610 628 610 628 q 611 626 611 628 q 614 625 613 625 q 617 626 615 626 q 618 629 617 628 m 635 631 l 628 631 l 626 622 l 622 622 l 626 640 l 629 640 l 628 633 l 635 633 l 636 640 l 639 640 l 636 622 l 632 622 l 635 631 m 643 622 l 639 622 l 643 640 l 650 640 q 652 640 651 640 q 654 639 653 639 l 656 638 l 656 635 q 654 632 656 632 q 651 631 654 631 l 651 628 q 654 622 654 625 l 651 622 q 649 628 651 622 q 647 629 649 629 l 646 629 l 644 629 l 643 622 m 644 632 l 647 632 l 650 632 l 651 633 l 653 635 q 651 636 653 636 q 650 638 651 638 l 646 638 l 644 632 m 657 622 l 660 640 l 664 640 l 660 622 l 657 622 m 664 628 l 667 628 l 667 626 q 668 626 668 626 q 669 625 668 625 q 672 626 672 625 q 674 628 674 626 l 672 629 l 671 631 q 668 632 668 631 q 667 633 667 632 q 665 635 665 635 q 666 637 665 636 q 667 639 667 638 q 669 640 668 639 q 671 640 669 640 q 674 640 674 640 q 676 639 675 639 q 678 635 678 638 l 675 635 q 674 636 674 636 q 671 638 674 638 q 669 636 669 638 l 669 635 q 672 633 669 633 q 675 631 675 631 q 676 628 676 631 q 675 624 676 625 q 673 623 674 624 q 669 622 672 622 q 667 624 668 622 q 664 625 664 625 l 664 628 m 688 622 l 683 622 l 681 640 l 683 640 l 686 626 l 693 640 l 696 640 l 688 622 m 694 622 l 697 640 l 701 640 l 697 622 l 694 622 m 701 622 l 704 640 l 708 640 l 706 625 l 714 625 l 713 622 l 701 622 m 715 622 l 718 640 l 731 640 l 731 638 l 722 638 l 721 633 l 729 633 l 729 631 l 721 631 l 719 625 l 729 625 l 728 622 l 715 622 m 732 626 l 735 626 l 735 622 l 731 622 l 732 626 m 750 629 l 753 628 q 750 624 753 626 q 748 623 749 624 q 746 622 747 622 q 740 625 743 622 q 739 629 739 625 q 740 635 739 633 q 743 639 740 636 q 745 640 744 639 q 747 640 746 640 q 749 640 749 640 q 750 639 749 639 l 751 639 q 754 635 754 636 l 750 635 l 750 636 q 749 637 749 636 q 747 638 749 638 q 746 637 746 638 q 744 636 746 636 q 743 633 743 635 q 742 629 742 632 q 743 626 742 628 q 746 625 744 625 l 747 626 q 750 629 747 626 m 756 629 l 756 632 q 757 634 757 633 q 758 636 757 635 q 761 639 758 639 q 765 640 763 640 q 769 638 767 640 q 772 633 772 635 q 772 630 772 631 q 771 628 771 629 l 767 624 q 765 623 765 624 q 763 622 764 622 q 758 624 760 622 q 756 626 758 624 l 756 629 m 758 629 q 759 628 758 628 q 760 626 760 628 q 761 626 761 626 q 763 625 761 625 q 764 626 764 625 q 765 626 764 626 q 768 629 765 626 l 768 633 q 767 636 768 635 q 764 638 765 638 q 761 635 761 638 q 758 629 758 632 m 782 622 l 779 622 l 778 638 l 776 622 l 772 622 l 776 640 l 781 640 l 782 628 l 788 640 l 792 640 l 789 622 l 786 622 l 789 636 l 782 622 z "},";":{"ha":1085,"x_min":50,"x_max":1035,"o":"m 526 511 q 481 430 501 467 q 433 344 460 393 q 319 436 363 374 q 283 506 297 467 q 268 593 268 544 q 283 682 268 643 q 318 751 297 721 q 433 843 361 811 l 433 667 l 526 667 l 526 960 q 382 925 442 956 q 278 850 322 894 q 206 743 236 808 q 183 675 192 711 q 174 596 174 639 q 192 480 174 529 q 236 390 210 431 q 379 264 290 310 q 410 251 394 257 q 444 240 426 244 q 522 228 479 231 q 525 228 522 228 l 526 228 l 526 235 l 526 511 m 550 675 q 596 756 575 719 q 643 842 617 792 q 757 749 714 810 q 794 680 779 718 q 808 592 808 642 q 794 503 808 543 q 758 435 779 464 q 643 342 715 374 l 643 519 l 550 519 l 550 226 q 694 261 635 231 q 799 336 754 292 q 871 443 844 382 q 894 510 885 474 q 903 589 903 547 q 885 706 903 656 q 840 796 868 756 q 777 867 813 836 q 697 921 742 899 q 632 946 669 935 q 594 953 614 950 q 554 957 575 957 q 553 958 556 957 q 550 958 551 958 l 550 951 l 550 675 m 543 101 q 354 138 443 101 q 194 246 265 175 q 87 406 124 317 q 50 594 50 494 q 87 783 50 694 q 194 942 124 872 q 354 1049 265 1013 q 543 1086 443 1086 q 731 1049 642 1086 q 890 942 819 1013 q 998 783 961 872 q 1035 594 1035 694 q 998 406 1035 494 q 890 246 961 317 q 731 138 819 175 q 543 101 642 101 m 543 1039 q 370 1004 451 1039 q 228 909 289 969 q 133 767 168 849 q 97 594 97 686 q 133 422 97 503 q 228 280 168 340 q 370 184 289 219 q 543 149 451 149 q 715 184 635 149 q 856 280 796 219 q 952 422 917 340 q 988 594 988 503 q 952 767 988 686 q 856 909 917 849 q 715 1004 796 969 q 543 1039 635 1039 m 326 569 l 340 567 q 328 550 336 556 q 310 544 317 544 q 290 551 300 544 q 283 572 283 561 q 289 593 283 582 q 301 607 293 603 q 318 613 308 613 q 336 607 325 613 q 343 592 343 600 l 331 590 l 326 599 q 318 600 324 600 q 308 597 311 600 q 300 586 301 593 q 297 572 297 578 q 301 560 297 564 q 310 556 303 556 q 319 560 315 556 q 326 569 324 563 m 390 575 l 365 575 l 358 546 l 344 546 l 358 611 l 372 611 l 367 586 l 392 586 l 397 611 l 411 611 l 397 546 l 383 546 l 390 575 m 425 546 l 411 546 l 425 611 l 454 611 q 465 610 463 611 q 472 604 471 607 q 475 594 475 599 q 469 581 475 585 q 454 574 467 576 l 460 568 q 465 558 463 564 q 469 546 467 553 l 456 546 q 453 553 454 549 q 449 563 451 557 q 445 568 446 565 q 442 572 444 571 l 436 572 l 431 572 l 425 546 m 432 583 l 439 583 l 454 583 q 457 585 456 585 q 460 588 458 586 q 461 594 461 590 q 458 599 461 599 q 450 600 457 600 l 436 600 l 432 583 m 476 546 l 490 611 l 503 611 l 489 546 l 476 546 m 504 567 l 517 568 q 519 560 517 563 q 529 556 521 556 q 539 558 536 556 q 542 564 542 560 q 540 569 542 568 q 531 574 539 569 l 519 579 q 514 585 515 581 q 513 593 513 588 q 518 607 513 601 q 535 613 524 613 q 553 607 547 613 q 560 593 560 600 l 547 592 q 543 599 547 596 q 535 601 542 601 q 528 600 529 601 q 525 594 525 599 q 526 590 525 592 q 531 588 528 589 q 536 585 533 588 q 546 581 543 582 q 551 578 549 579 q 556 565 556 571 q 549 551 556 558 q 529 544 542 544 q 515 547 524 544 q 507 556 508 551 q 504 567 504 558 m 621 546 l 607 546 l 594 611 l 608 611 l 617 561 l 643 611 l 657 611 l 621 546 m 649 546 l 663 611 l 675 611 l 661 546 l 649 546 m 675 546 l 689 611 l 701 611 l 690 557 l 724 557 l 721 546 l 675 546 m 731 546 l 743 611 l 792 611 l 790 600 l 754 600 l 751 586 l 785 586 l 783 575 l 750 575 l 746 557 l 783 557 l 781 546 l 731 546 m 292 624 l 294 642 l 300 642 q 301 640 301 640 l 304 640 l 306 640 q 307 639 306 639 l 307 636 l 307 633 l 307 629 q 304 626 304 626 q 301 625 301 625 q 297 624 300 624 l 292 624 m 296 626 l 297 626 q 300 628 300 626 l 301 628 q 303 631 303 629 q 304 635 304 632 q 303 636 304 636 q 301 638 303 638 q 300 639 301 639 l 297 639 l 296 626 m 308 624 l 313 642 l 325 642 l 324 638 l 315 638 l 314 635 l 322 635 l 322 632 l 314 632 l 313 626 l 322 626 l 321 624 l 308 624 m 325 629 l 328 629 l 328 628 q 331 626 329 626 q 333 628 333 626 q 335 629 335 628 l 333 631 l 332 632 q 329 633 329 632 q 328 635 328 633 q 326 636 326 636 q 327 638 326 638 q 328 640 328 639 q 330 641 329 640 q 332 642 331 642 q 335 641 335 642 q 338 640 336 640 q 339 636 339 639 l 336 636 q 335 638 335 638 q 332 639 335 639 q 331 638 331 639 l 331 636 q 333 635 331 635 q 336 632 336 632 q 338 629 338 632 q 336 625 338 626 q 334 624 335 625 q 331 624 333 624 q 328 625 329 624 q 325 626 325 626 l 325 629 m 340 624 l 343 642 l 347 642 l 343 624 l 340 624 m 356 633 l 363 633 l 361 626 q 358 625 361 625 q 354 624 357 624 q 352 624 353 624 q 350 625 351 625 q 347 631 347 628 q 349 636 347 635 q 351 640 349 638 q 353 641 353 640 q 357 642 354 642 q 359 641 358 642 q 361 640 360 640 q 364 636 364 638 l 361 636 q 360 638 360 638 q 357 639 358 639 q 354 638 354 638 q 351 635 351 638 l 351 631 l 351 628 q 353 627 353 628 q 354 626 353 626 l 357 626 q 358 628 358 628 l 360 631 l 356 631 l 356 633 m 378 624 l 375 624 l 371 636 l 368 624 l 365 624 l 368 642 l 371 642 l 376 629 l 378 642 l 382 642 l 378 624 m 382 624 l 385 642 l 397 642 l 397 638 l 388 638 l 388 635 l 396 635 l 396 632 l 386 632 l 386 626 l 396 626 l 394 624 l 382 624 m 397 624 l 401 642 l 406 642 q 407 641 407 642 q 408 640 407 640 l 410 640 l 411 640 q 413 639 413 639 l 413 636 q 414 633 414 635 q 413 631 414 632 q 413 629 413 631 q 410 626 410 626 q 407 625 408 625 q 403 624 406 624 l 397 624 m 401 626 l 403 626 q 406 628 406 626 l 407 628 l 410 631 l 410 635 l 410 636 l 408 638 q 407 638 407 638 q 406 639 407 639 l 404 639 l 401 626 m 421 624 l 424 642 l 431 642 l 432 640 l 435 640 l 436 639 l 436 638 l 436 635 q 433 633 435 633 q 435 632 435 632 q 436 629 436 631 q 435 626 436 628 l 433 625 q 431 624 432 625 q 429 624 431 624 l 421 624 m 425 626 l 428 626 q 431 628 431 626 l 432 628 l 432 629 l 432 631 q 429 632 431 632 l 425 632 l 425 626 m 426 635 l 429 635 l 432 635 l 433 636 q 432 638 433 638 l 429 638 l 426 638 l 426 635 m 446 624 l 443 624 l 444 631 l 439 642 l 443 642 l 446 636 l 446 633 q 447 635 447 635 l 449 638 l 451 642 l 456 642 l 447 631 l 446 624 m 550 622 l 547 622 l 546 635 l 540 622 l 536 622 l 536 640 l 539 640 l 539 628 l 546 640 l 549 640 l 550 628 l 556 640 l 558 640 l 550 622 m 572 622 l 569 622 l 568 635 l 563 622 l 558 622 l 558 640 l 561 640 l 561 628 l 568 640 l 571 640 l 572 628 l 578 640 l 581 640 l 572 622 m 594 622 l 592 622 l 590 635 l 585 622 l 581 622 l 581 640 l 583 640 l 583 628 l 590 640 l 593 640 l 594 628 l 600 640 l 603 640 l 594 622 m 600 626 l 603 626 l 603 622 l 599 622 l 600 626 m 618 629 l 621 628 q 618 624 621 626 q 616 623 617 624 q 614 622 615 622 q 608 625 611 622 q 607 629 607 625 q 608 635 607 633 q 611 639 608 636 q 613 640 613 639 q 615 640 614 640 q 617 640 617 640 q 618 639 617 639 l 619 639 q 622 635 622 636 l 618 635 l 618 636 q 617 637 617 636 q 615 638 617 638 q 613 636 614 636 q 611 633 611 635 q 610 629 610 632 q 610 628 610 628 q 611 626 611 628 q 614 625 613 625 q 617 626 615 626 q 618 629 617 628 m 635 631 l 628 631 l 626 622 l 622 622 l 626 640 l 629 640 l 628 633 l 635 633 l 636 640 l 639 640 l 636 622 l 632 622 l 635 631 m 643 622 l 639 622 l 643 640 l 650 640 q 652 640 651 640 q 654 639 653 639 l 656 638 l 656 635 q 654 632 656 632 q 651 631 654 631 l 651 628 q 654 622 654 625 l 651 622 q 649 628 651 622 q 647 629 649 629 l 646 629 l 644 629 l 643 622 m 644 632 l 647 632 l 650 632 l 651 633 l 653 635 q 651 636 653 636 q 650 638 651 638 l 646 638 l 644 632 m 657 622 l 660 640 l 664 640 l 660 622 l 657 622 m 664 628 l 667 628 l 667 626 q 668 626 668 626 q 669 625 668 625 q 672 626 672 625 q 674 628 674 626 l 672 629 l 671 631 q 668 632 668 631 q 667 633 667 632 q 665 635 665 635 q 666 637 665 636 q 667 639 667 638 q 669 640 668 639 q 671 640 669 640 q 674 640 674 640 q 676 639 675 639 q 678 635 678 638 l 675 635 q 674 636 674 636 q 671 638 674 638 q 669 636 669 638 l 669 635 q 672 633 669 633 q 675 631 675 631 q 676 628 676 631 q 675 624 676 625 q 673 623 674 624 q 669 622 672 622 q 667 624 668 622 q 664 625 664 625 l 664 628 m 688 622 l 683 622 l 681 640 l 683 640 l 686 626 l 693 640 l 696 640 l 688 622 m 694 622 l 697 640 l 701 640 l 697 622 l 694 622 m 701 622 l 704 640 l 708 640 l 706 625 l 714 625 l 713 622 l 701 622 m 715 622 l 718 640 l 731 640 l 731 638 l 722 638 l 721 633 l 729 633 l 729 631 l 721 631 l 719 625 l 729 625 l 728 622 l 715 622 m 732 626 l 735 626 l 735 622 l 731 622 l 732 626 m 750 629 l 753 628 q 750 624 753 626 q 748 623 749 624 q 746 622 747 622 q 740 625 743 622 q 739 629 739 625 q 740 635 739 633 q 743 639 740 636 q 745 640 744 639 q 747 640 746 640 q 749 640 749 640 q 750 639 749 639 l 751 639 q 754 635 754 636 l 750 635 l 750 636 q 749 637 749 636 q 747 638 749 638 q 746 637 746 638 q 744 636 746 636 q 743 633 743 635 q 742 629 742 632 q 743 626 742 628 q 746 625 744 625 l 747 626 q 750 629 747 626 m 756 629 l 756 632 q 757 634 757 633 q 758 636 757 635 q 761 639 758 639 q 765 640 763 640 q 769 638 767 640 q 772 633 772 635 q 772 630 772 631 q 771 628 771 629 l 767 624 q 765 623 765 624 q 763 622 764 622 q 758 624 760 622 q 756 626 758 624 l 756 629 m 758 629 q 759 628 758 628 q 760 626 760 628 q 761 626 761 626 q 763 625 761 625 q 764 626 764 625 q 765 626 764 626 q 768 629 765 626 l 768 633 q 767 636 768 635 q 764 638 765 638 q 761 635 761 638 q 758 629 758 632 m 782 622 l 779 622 l 778 638 l 776 622 l 772 622 l 776 640 l 781 640 l 782 628 l 788 640 l 792 640 l 789 622 l 786 622 l 789 636 l 782 622 z "},"<":{"ha":1085,"x_min":50,"x_max":1035,"o":"m 526 511 q 481 430 501 467 q 433 344 460 393 q 319 436 363 374 q 283 506 297 467 q 268 593 268 544 q 283 682 268 643 q 318 751 297 721 q 433 843 361 811 l 433 667 l 526 667 l 526 960 q 382 925 442 956 q 278 850 322 894 q 206 743 236 808 q 183 675 192 711 q 174 596 174 639 q 192 480 174 529 q 236 390 210 431 q 379 264 290 310 q 410 251 394 257 q 444 240 426 244 q 522 228 479 231 q 525 228 522 228 l 526 228 l 526 235 l 526 511 m 550 675 q 596 756 575 719 q 643 842 617 792 q 757 749 714 810 q 794 680 779 718 q 808 592 808 642 q 794 503 808 543 q 758 435 779 464 q 643 342 715 374 l 643 519 l 550 519 l 550 226 q 694 261 635 231 q 799 336 754 292 q 871 443 844 382 q 894 510 885 474 q 903 589 903 547 q 885 706 903 656 q 840 796 868 756 q 777 867 813 836 q 697 921 742 899 q 632 946 669 935 q 594 953 614 950 q 554 957 575 957 q 553 958 556 957 q 550 958 551 958 l 550 951 l 550 675 m 543 101 q 354 138 443 101 q 194 246 265 175 q 87 406 124 317 q 50 594 50 494 q 87 783 50 694 q 194 942 124 872 q 354 1049 265 1013 q 543 1086 443 1086 q 731 1049 642 1086 q 890 942 819 1013 q 998 783 961 872 q 1035 594 1035 694 q 998 406 1035 494 q 890 246 961 317 q 731 138 819 175 q 543 101 642 101 m 543 1039 q 370 1004 451 1039 q 228 909 289 969 q 133 767 168 849 q 97 594 97 686 q 133 422 97 503 q 228 280 168 340 q 370 184 289 219 q 543 149 451 149 q 715 184 635 149 q 856 280 796 219 q 952 422 917 340 q 988 594 988 503 q 952 767 988 686 q 856 909 917 849 q 715 1004 796 969 q 543 1039 635 1039 m 326 569 l 340 567 q 328 550 336 556 q 310 544 317 544 q 290 551 300 544 q 283 572 283 561 q 289 593 283 582 q 301 607 293 603 q 318 613 308 613 q 336 607 325 613 q 343 592 343 600 l 331 590 l 326 599 q 318 600 324 600 q 308 597 311 600 q 300 586 301 593 q 297 572 297 578 q 301 560 297 564 q 310 556 303 556 q 319 560 315 556 q 326 569 324 563 m 390 575 l 365 575 l 358 546 l 344 546 l 358 611 l 372 611 l 367 586 l 392 586 l 397 611 l 411 611 l 397 546 l 383 546 l 390 575 m 425 546 l 411 546 l 425 611 l 454 611 q 465 610 463 611 q 472 604 471 607 q 475 594 475 599 q 469 581 475 585 q 454 574 467 576 l 460 568 q 465 558 463 564 q 469 546 467 553 l 456 546 q 453 553 454 549 q 449 563 451 557 q 445 568 446 565 q 442 572 444 571 l 436 572 l 431 572 l 425 546 m 432 583 l 439 583 l 454 583 q 457 585 456 585 q 460 588 458 586 q 461 594 461 590 q 458 599 461 599 q 450 600 457 600 l 436 600 l 432 583 m 476 546 l 490 611 l 503 611 l 489 546 l 476 546 m 504 567 l 517 568 q 519 560 517 563 q 529 556 521 556 q 539 558 536 556 q 542 564 542 560 q 540 569 542 568 q 531 574 539 569 l 519 579 q 514 585 515 581 q 513 593 513 588 q 518 607 513 601 q 535 613 524 613 q 553 607 547 613 q 560 593 560 600 l 547 592 q 543 599 547 596 q 535 601 542 601 q 528 600 529 601 q 525 594 525 599 q 526 590 525 592 q 531 588 528 589 q 536 585 533 588 q 546 581 543 582 q 551 578 549 579 q 556 565 556 571 q 549 551 556 558 q 529 544 542 544 q 515 547 524 544 q 507 556 508 551 q 504 567 504 558 m 621 546 l 607 546 l 594 611 l 608 611 l 617 561 l 643 611 l 657 611 l 621 546 m 649 546 l 663 611 l 675 611 l 661 546 l 649 546 m 675 546 l 689 611 l 701 611 l 690 557 l 724 557 l 721 546 l 675 546 m 731 546 l 743 611 l 792 611 l 790 600 l 754 600 l 751 586 l 785 586 l 783 575 l 750 575 l 746 557 l 783 557 l 781 546 l 731 546 m 292 624 l 294 642 l 300 642 q 301 640 301 640 l 304 640 l 306 640 q 307 639 306 639 l 307 636 l 307 633 l 307 629 q 304 626 304 626 q 301 625 301 625 q 297 624 300 624 l 292 624 m 296 626 l 297 626 q 300 628 300 626 l 301 628 q 303 631 303 629 q 304 635 304 632 q 303 636 304 636 q 301 638 303 638 q 300 639 301 639 l 297 639 l 296 626 m 308 624 l 313 642 l 325 642 l 324 638 l 315 638 l 314 635 l 322 635 l 322 632 l 314 632 l 313 626 l 322 626 l 321 624 l 308 624 m 325 629 l 328 629 l 328 628 q 331 626 329 626 q 333 628 333 626 q 335 629 335 628 l 333 631 l 332 632 q 329 633 329 632 q 328 635 328 633 q 326 636 326 636 q 327 638 326 638 q 328 640 328 639 q 330 641 329 640 q 332 642 331 642 q 335 641 335 642 q 338 640 336 640 q 339 636 339 639 l 336 636 q 335 638 335 638 q 332 639 335 639 q 331 638 331 639 l 331 636 q 333 635 331 635 q 336 632 336 632 q 338 629 338 632 q 336 625 338 626 q 334 624 335 625 q 331 624 333 624 q 328 625 329 624 q 325 626 325 626 l 325 629 m 340 624 l 343 642 l 347 642 l 343 624 l 340 624 m 356 633 l 363 633 l 361 626 q 358 625 361 625 q 354 624 357 624 q 352 624 353 624 q 350 625 351 625 q 347 631 347 628 q 349 636 347 635 q 351 640 349 638 q 353 641 353 640 q 357 642 354 642 q 359 641 358 642 q 361 640 360 640 q 364 636 364 638 l 361 636 q 360 638 360 638 q 357 639 358 639 q 354 638 354 638 q 351 635 351 638 l 351 631 l 351 628 q 353 627 353 628 q 354 626 353 626 l 357 626 q 358 628 358 628 l 360 631 l 356 631 l 356 633 m 378 624 l 375 624 l 371 636 l 368 624 l 365 624 l 368 642 l 371 642 l 376 629 l 378 642 l 382 642 l 378 624 m 382 624 l 385 642 l 397 642 l 397 638 l 388 638 l 388 635 l 396 635 l 396 632 l 386 632 l 386 626 l 396 626 l 394 624 l 382 624 m 397 624 l 401 642 l 406 642 q 407 641 407 642 q 408 640 407 640 l 410 640 l 411 640 q 413 639 413 639 l 413 636 q 414 633 414 635 q 413 631 414 632 q 413 629 413 631 q 410 626 410 626 q 407 625 408 625 q 403 624 406 624 l 397 624 m 401 626 l 403 626 q 406 628 406 626 l 407 628 l 410 631 l 410 635 l 410 636 l 408 638 q 407 638 407 638 q 406 639 407 639 l 404 639 l 401 626 m 421 624 l 424 642 l 431 642 l 432 640 l 435 640 l 436 639 l 436 638 l 436 635 q 433 633 435 633 q 435 632 435 632 q 436 629 436 631 q 435 626 436 628 l 433 625 q 431 624 432 625 q 429 624 431 624 l 421 624 m 425 626 l 428 626 q 431 628 431 626 l 432 628 l 432 629 l 432 631 q 429 632 431 632 l 425 632 l 425 626 m 426 635 l 429 635 l 432 635 l 433 636 q 432 638 433 638 l 429 638 l 426 638 l 426 635 m 446 624 l 443 624 l 444 631 l 439 642 l 443 642 l 446 636 l 446 633 q 447 635 447 635 l 449 638 l 451 642 l 456 642 l 447 631 l 446 624 m 550 622 l 547 622 l 546 635 l 540 622 l 536 622 l 536 640 l 539 640 l 539 628 l 546 640 l 549 640 l 550 628 l 556 640 l 558 640 l 550 622 m 572 622 l 569 622 l 568 635 l 563 622 l 558 622 l 558 640 l 561 640 l 561 628 l 568 640 l 571 640 l 572 628 l 578 640 l 581 640 l 572 622 m 594 622 l 592 622 l 590 635 l 585 622 l 581 622 l 581 640 l 583 640 l 583 628 l 590 640 l 593 640 l 594 628 l 600 640 l 603 640 l 594 622 m 600 626 l 603 626 l 603 622 l 599 622 l 600 626 m 618 629 l 621 628 q 618 624 621 626 q 616 623 617 624 q 614 622 615 622 q 608 625 611 622 q 607 629 607 625 q 608 635 607 633 q 611 639 608 636 q 613 640 613 639 q 615 640 614 640 q 617 640 617 640 q 618 639 617 639 l 619 639 q 622 635 622 636 l 618 635 l 618 636 q 617 637 617 636 q 615 638 617 638 q 613 636 614 636 q 611 633 611 635 q 610 629 610 632 q 610 628 610 628 q 611 626 611 628 q 614 625 613 625 q 617 626 615 626 q 618 629 617 628 m 635 631 l 628 631 l 626 622 l 622 622 l 626 640 l 629 640 l 628 633 l 635 633 l 636 640 l 639 640 l 636 622 l 632 622 l 635 631 m 643 622 l 639 622 l 643 640 l 650 640 q 652 640 651 640 q 654 639 653 639 l 656 638 l 656 635 q 654 632 656 632 q 651 631 654 631 l 651 628 q 654 622 654 625 l 651 622 q 649 628 651 622 q 647 629 649 629 l 646 629 l 644 629 l 643 622 m 644 632 l 647 632 l 650 632 l 651 633 l 653 635 q 651 636 653 636 q 650 638 651 638 l 646 638 l 644 632 m 657 622 l 660 640 l 664 640 l 660 622 l 657 622 m 664 628 l 667 628 l 667 626 q 668 626 668 626 q 669 625 668 625 q 672 626 672 625 q 674 628 674 626 l 672 629 l 671 631 q 668 632 668 631 q 667 633 667 632 q 665 635 665 635 q 666 637 665 636 q 667 639 667 638 q 669 640 668 639 q 671 640 669 640 q 674 640 674 640 q 676 639 675 639 q 678 635 678 638 l 675 635 q 674 636 674 636 q 671 638 674 638 q 669 636 669 638 l 669 635 q 672 633 669 633 q 675 631 675 631 q 676 628 676 631 q 675 624 676 625 q 673 623 674 624 q 669 622 672 622 q 667 624 668 622 q 664 625 664 625 l 664 628 m 688 622 l 683 622 l 681 640 l 683 640 l 686 626 l 693 640 l 696 640 l 688 622 m 694 622 l 697 640 l 701 640 l 697 622 l 694 622 m 701 622 l 704 640 l 708 640 l 706 625 l 714 625 l 713 622 l 701 622 m 715 622 l 718 640 l 731 640 l 731 638 l 722 638 l 721 633 l 729 633 l 729 631 l 721 631 l 719 625 l 729 625 l 728 622 l 715 622 m 732 626 l 735 626 l 735 622 l 731 622 l 732 626 m 750 629 l 753 628 q 750 624 753 626 q 748 623 749 624 q 746 622 747 622 q 740 625 743 622 q 739 629 739 625 q 740 635 739 633 q 743 639 740 636 q 745 640 744 639 q 747 640 746 640 q 749 640 749 640 q 750 639 749 639 l 751 639 q 754 635 754 636 l 750 635 l 750 636 q 749 637 749 636 q 747 638 749 638 q 746 637 746 638 q 744 636 746 636 q 743 633 743 635 q 742 629 742 632 q 743 626 742 628 q 746 625 744 625 l 747 626 q 750 629 747 626 m 756 629 l 756 632 q 757 634 757 633 q 758 636 757 635 q 761 639 758 639 q 765 640 763 640 q 769 638 767 640 q 772 633 772 635 q 772 630 772 631 q 771 628 771 629 l 767 624 q 765 623 765 624 q 763 622 764 622 q 758 624 760 622 q 756 626 758 624 l 756 629 m 758 629 q 759 628 758 628 q 760 626 760 628 q 761 626 761 626 q 763 625 761 625 q 764 626 764 625 q 765 626 764 626 q 768 629 765 626 l 768 633 q 767 636 768 635 q 764 638 765 638 q 761 635 761 638 q 758 629 758 632 m 782 622 l 779 622 l 778 638 l 776 622 l 772 622 l 776 640 l 781 640 l 782 628 l 788 640 l 792 640 l 789 622 l 786 622 l 789 636 l 782 622 z "},"=":{"ha":1085,"x_min":50,"x_max":1035,"o":"m 526 511 q 481 430 501 467 q 433 344 460 393 q 319 436 363 374 q 283 506 297 467 q 268 593 268 544 q 283 682 268 643 q 318 751 297 721 q 433 843 361 811 l 433 667 l 526 667 l 526 960 q 382 925 442 956 q 278 850 322 894 q 206 743 236 808 q 183 675 192 711 q 174 596 174 639 q 192 480 174 529 q 236 390 210 431 q 379 264 290 310 q 410 251 394 257 q 444 240 426 244 q 522 228 479 231 q 525 228 522 228 l 526 228 l 526 235 l 526 511 m 550 675 q 596 756 575 719 q 643 842 617 792 q 757 749 714 810 q 794 680 779 718 q 808 592 808 642 q 794 503 808 543 q 758 435 779 464 q 643 342 715 374 l 643 519 l 550 519 l 550 226 q 694 261 635 231 q 799 336 754 292 q 871 443 844 382 q 894 510 885 474 q 903 589 903 547 q 885 706 903 656 q 840 796 868 756 q 777 867 813 836 q 697 921 742 899 q 632 946 669 935 q 594 953 614 950 q 554 957 575 957 q 553 958 556 957 q 550 958 551 958 l 550 951 l 550 675 m 543 101 q 354 138 443 101 q 194 246 265 175 q 87 406 124 317 q 50 594 50 494 q 87 783 50 694 q 194 942 124 872 q 354 1049 265 1013 q 543 1086 443 1086 q 731 1049 642 1086 q 890 942 819 1013 q 998 783 961 872 q 1035 594 1035 694 q 998 406 1035 494 q 890 246 961 317 q 731 138 819 175 q 543 101 642 101 m 543 1039 q 370 1004 451 1039 q 228 909 289 969 q 133 767 168 849 q 97 594 97 686 q 133 422 97 503 q 228 280 168 340 q 370 184 289 219 q 543 149 451 149 q 715 184 635 149 q 856 280 796 219 q 952 422 917 340 q 988 594 988 503 q 952 767 988 686 q 856 909 917 849 q 715 1004 796 969 q 543 1039 635 1039 m 326 569 l 340 567 q 328 550 336 556 q 310 544 317 544 q 290 551 300 544 q 283 572 283 561 q 289 593 283 582 q 301 607 293 603 q 318 613 308 613 q 336 607 325 613 q 343 592 343 600 l 331 590 l 326 599 q 318 600 324 600 q 308 597 311 600 q 300 586 301 593 q 297 572 297 578 q 301 560 297 564 q 310 556 303 556 q 319 560 315 556 q 326 569 324 563 m 390 575 l 365 575 l 358 546 l 344 546 l 358 611 l 372 611 l 367 586 l 392 586 l 397 611 l 411 611 l 397 546 l 383 546 l 390 575 m 425 546 l 411 546 l 425 611 l 454 611 q 465 610 463 611 q 472 604 471 607 q 475 594 475 599 q 469 581 475 585 q 454 574 467 576 l 460 568 q 465 558 463 564 q 469 546 467 553 l 456 546 q 453 553 454 549 q 449 563 451 557 q 445 568 446 565 q 442 572 444 571 l 436 572 l 431 572 l 425 546 m 432 583 l 439 583 l 454 583 q 457 585 456 585 q 460 588 458 586 q 461 594 461 590 q 458 599 461 599 q 450 600 457 600 l 436 600 l 432 583 m 476 546 l 490 611 l 503 611 l 489 546 l 476 546 m 504 567 l 517 568 q 519 560 517 563 q 529 556 521 556 q 539 558 536 556 q 542 564 542 560 q 540 569 542 568 q 531 574 539 569 l 519 579 q 514 585 515 581 q 513 593 513 588 q 518 607 513 601 q 535 613 524 613 q 553 607 547 613 q 560 593 560 600 l 547 592 q 543 599 547 596 q 535 601 542 601 q 528 600 529 601 q 525 594 525 599 q 526 590 525 592 q 531 588 528 589 q 536 585 533 588 q 546 581 543 582 q 551 578 549 579 q 556 565 556 571 q 549 551 556 558 q 529 544 542 544 q 515 547 524 544 q 507 556 508 551 q 504 567 504 558 m 621 546 l 607 546 l 594 611 l 608 611 l 617 561 l 643 611 l 657 611 l 621 546 m 649 546 l 663 611 l 675 611 l 661 546 l 649 546 m 675 546 l 689 611 l 701 611 l 690 557 l 724 557 l 721 546 l 675 546 m 731 546 l 743 611 l 792 611 l 790 600 l 754 600 l 751 586 l 785 586 l 783 575 l 750 575 l 746 557 l 783 557 l 781 546 l 731 546 m 292 624 l 294 642 l 300 642 q 301 640 301 640 l 304 640 l 306 640 q 307 639 306 639 l 307 636 l 307 633 l 307 629 q 304 626 304 626 q 301 625 301 625 q 297 624 300 624 l 292 624 m 296 626 l 297 626 q 300 628 300 626 l 301 628 q 303 631 303 629 q 304 635 304 632 q 303 636 304 636 q 301 638 303 638 q 300 639 301 639 l 297 639 l 296 626 m 308 624 l 313 642 l 325 642 l 324 638 l 315 638 l 314 635 l 322 635 l 322 632 l 314 632 l 313 626 l 322 626 l 321 624 l 308 624 m 325 629 l 328 629 l 328 628 q 331 626 329 626 q 333 628 333 626 q 335 629 335 628 l 333 631 l 332 632 q 329 633 329 632 q 328 635 328 633 q 326 636 326 636 q 327 638 326 638 q 328 640 328 639 q 330 641 329 640 q 332 642 331 642 q 335 641 335 642 q 338 640 336 640 q 339 636 339 639 l 336 636 q 335 638 335 638 q 332 639 335 639 q 331 638 331 639 l 331 636 q 333 635 331 635 q 336 632 336 632 q 338 629 338 632 q 336 625 338 626 q 334 624 335 625 q 331 624 333 624 q 328 625 329 624 q 325 626 325 626 l 325 629 m 340 624 l 343 642 l 347 642 l 343 624 l 340 624 m 356 633 l 363 633 l 361 626 q 358 625 361 625 q 354 624 357 624 q 352 624 353 624 q 350 625 351 625 q 347 631 347 628 q 349 636 347 635 q 351 640 349 638 q 353 641 353 640 q 357 642 354 642 q 359 641 358 642 q 361 640 360 640 q 364 636 364 638 l 361 636 q 360 638 360 638 q 357 639 358 639 q 354 638 354 638 q 351 635 351 638 l 351 631 l 351 628 q 353 627 353 628 q 354 626 353 626 l 357 626 q 358 628 358 628 l 360 631 l 356 631 l 356 633 m 378 624 l 375 624 l 371 636 l 368 624 l 365 624 l 368 642 l 371 642 l 376 629 l 378 642 l 382 642 l 378 624 m 382 624 l 385 642 l 397 642 l 397 638 l 388 638 l 388 635 l 396 635 l 396 632 l 386 632 l 386 626 l 396 626 l 394 624 l 382 624 m 397 624 l 401 642 l 406 642 q 407 641 407 642 q 408 640 407 640 l 410 640 l 411 640 q 413 639 413 639 l 413 636 q 414 633 414 635 q 413 631 414 632 q 413 629 413 631 q 410 626 410 626 q 407 625 408 625 q 403 624 406 624 l 397 624 m 401 626 l 403 626 q 406 628 406 626 l 407 628 l 410 631 l 410 635 l 410 636 l 408 638 q 407 638 407 638 q 406 639 407 639 l 404 639 l 401 626 m 421 624 l 424 642 l 431 642 l 432 640 l 435 640 l 436 639 l 436 638 l 436 635 q 433 633 435 633 q 435 632 435 632 q 436 629 436 631 q 435 626 436 628 l 433 625 q 431 624 432 625 q 429 624 431 624 l 421 624 m 425 626 l 428 626 q 431 628 431 626 l 432 628 l 432 629 l 432 631 q 429 632 431 632 l 425 632 l 425 626 m 426 635 l 429 635 l 432 635 l 433 636 q 432 638 433 638 l 429 638 l 426 638 l 426 635 m 446 624 l 443 624 l 444 631 l 439 642 l 443 642 l 446 636 l 446 633 q 447 635 447 635 l 449 638 l 451 642 l 456 642 l 447 631 l 446 624 m 550 622 l 547 622 l 546 635 l 540 622 l 536 622 l 536 640 l 539 640 l 539 628 l 546 640 l 549 640 l 550 628 l 556 640 l 558 640 l 550 622 m 572 622 l 569 622 l 568 635 l 563 622 l 558 622 l 558 640 l 561 640 l 561 628 l 568 640 l 571 640 l 572 628 l 578 640 l 581 640 l 572 622 m 594 622 l 592 622 l 590 635 l 585 622 l 581 622 l 581 640 l 583 640 l 583 628 l 590 640 l 593 640 l 594 628 l 600 640 l 603 640 l 594 622 m 600 626 l 603 626 l 603 622 l 599 622 l 600 626 m 618 629 l 621 628 q 618 624 621 626 q 616 623 617 624 q 614 622 615 622 q 608 625 611 622 q 607 629 607 625 q 608 635 607 633 q 611 639 608 636 q 613 640 613 639 q 615 640 614 640 q 617 640 617 640 q 618 639 617 639 l 619 639 q 622 635 622 636 l 618 635 l 618 636 q 617 637 617 636 q 615 638 617 638 q 613 636 614 636 q 611 633 611 635 q 610 629 610 632 q 610 628 610 628 q 611 626 611 628 q 614 625 613 625 q 617 626 615 626 q 618 629 617 628 m 635 631 l 628 631 l 626 622 l 622 622 l 626 640 l 629 640 l 628 633 l 635 633 l 636 640 l 639 640 l 636 622 l 632 622 l 635 631 m 643 622 l 639 622 l 643 640 l 650 640 q 652 640 651 640 q 654 639 653 639 l 656 638 l 656 635 q 654 632 656 632 q 651 631 654 631 l 651 628 q 654 622 654 625 l 651 622 q 649 628 651 622 q 647 629 649 629 l 646 629 l 644 629 l 643 622 m 644 632 l 647 632 l 650 632 l 651 633 l 653 635 q 651 636 653 636 q 650 638 651 638 l 646 638 l 644 632 m 657 622 l 660 640 l 664 640 l 660 622 l 657 622 m 664 628 l 667 628 l 667 626 q 668 626 668 626 q 669 625 668 625 q 672 626 672 625 q 674 628 674 626 l 672 629 l 671 631 q 668 632 668 631 q 667 633 667 632 q 665 635 665 635 q 666 637 665 636 q 667 639 667 638 q 669 640 668 639 q 671 640 669 640 q 674 640 674 640 q 676 639 675 639 q 678 635 678 638 l 675 635 q 674 636 674 636 q 671 638 674 638 q 669 636 669 638 l 669 635 q 672 633 669 633 q 675 631 675 631 q 676 628 676 631 q 675 624 676 625 q 673 623 674 624 q 669 622 672 622 q 667 624 668 622 q 664 625 664 625 l 664 628 m 688 622 l 683 622 l 681 640 l 683 640 l 686 626 l 693 640 l 696 640 l 688 622 m 694 622 l 697 640 l 701 640 l 697 622 l 694 622 m 701 622 l 704 640 l 708 640 l 706 625 l 714 625 l 713 622 l 701 622 m 715 622 l 718 640 l 731 640 l 731 638 l 722 638 l 721 633 l 729 633 l 729 631 l 721 631 l 719 625 l 729 625 l 728 622 l 715 622 m 732 626 l 735 626 l 735 622 l 731 622 l 732 626 m 750 629 l 753 628 q 750 624 753 626 q 748 623 749 624 q 746 622 747 622 q 740 625 743 622 q 739 629 739 625 q 740 635 739 633 q 743 639 740 636 q 745 640 744 639 q 747 640 746 640 q 749 640 749 640 q 750 639 749 639 l 751 639 q 754 635 754 636 l 750 635 l 750 636 q 749 637 749 636 q 747 638 749 638 q 746 637 746 638 q 744 636 746 636 q 743 633 743 635 q 742 629 742 632 q 743 626 742 628 q 746 625 744 625 l 747 626 q 750 629 747 626 m 756 629 l 756 632 q 757 634 757 633 q 758 636 757 635 q 761 639 758 639 q 765 640 763 640 q 769 638 767 640 q 772 633 772 635 q 772 630 772 631 q 771 628 771 629 l 767 624 q 765 623 765 624 q 763 622 764 622 q 758 624 760 622 q 756 626 758 624 l 756 629 m 758 629 q 759 628 758 628 q 760 626 760 628 q 761 626 761 626 q 763 625 761 625 q 764 626 764 625 q 765 626 764 626 q 768 629 765 626 l 768 633 q 767 636 768 635 q 764 638 765 638 q 761 635 761 638 q 758 629 758 632 m 782 622 l 779 622 l 778 638 l 776 622 l 772 622 l 776 640 l 781 640 l 782 628 l 788 640 l 792 640 l 789 622 l 786 622 l 789 636 l 782 622 z "},">":{"ha":1085,"x_min":50,"x_max":1035,"o":"m 526 511 q 481 430 501 467 q 433 344 460 393 q 319 436 363 374 q 283 506 297 467 q 268 593 268 544 q 283 682 268 643 q 318 751 297 721 q 433 843 361 811 l 433 667 l 526 667 l 526 960 q 382 925 442 956 q 278 850 322 894 q 206 743 236 808 q 183 675 192 711 q 174 596 174 639 q 192 480 174 529 q 236 390 210 431 q 379 264 290 310 q 410 251 394 257 q 444 240 426 244 q 522 228 479 231 q 525 228 522 228 l 526 228 l 526 235 l 526 511 m 550 675 q 596 756 575 719 q 643 842 617 792 q 757 749 714 810 q 794 680 779 718 q 808 592 808 642 q 794 503 808 543 q 758 435 779 464 q 643 342 715 374 l 643 519 l 550 519 l 550 226 q 694 261 635 231 q 799 336 754 292 q 871 443 844 382 q 894 510 885 474 q 903 589 903 547 q 885 706 903 656 q 840 796 868 756 q 777 867 813 836 q 697 921 742 899 q 632 946 669 935 q 594 953 614 950 q 554 957 575 957 q 553 958 556 957 q 550 958 551 958 l 550 951 l 550 675 m 543 101 q 354 138 443 101 q 194 246 265 175 q 87 406 124 317 q 50 594 50 494 q 87 783 50 694 q 194 942 124 872 q 354 1049 265 1013 q 543 1086 443 1086 q 731 1049 642 1086 q 890 942 819 1013 q 998 783 961 872 q 1035 594 1035 694 q 998 406 1035 494 q 890 246 961 317 q 731 138 819 175 q 543 101 642 101 m 543 1039 q 370 1004 451 1039 q 228 909 289 969 q 133 767 168 849 q 97 594 97 686 q 133 422 97 503 q 228 280 168 340 q 370 184 289 219 q 543 149 451 149 q 715 184 635 149 q 856 280 796 219 q 952 422 917 340 q 988 594 988 503 q 952 767 988 686 q 856 909 917 849 q 715 1004 796 969 q 543 1039 635 1039 m 326 569 l 340 567 q 328 550 336 556 q 310 544 317 544 q 290 551 300 544 q 283 572 283 561 q 289 593 283 582 q 301 607 293 603 q 318 613 308 613 q 336 607 325 613 q 343 592 343 600 l 331 590 l 326 599 q 318 600 324 600 q 308 597 311 600 q 300 586 301 593 q 297 572 297 578 q 301 560 297 564 q 310 556 303 556 q 319 560 315 556 q 326 569 324 563 m 390 575 l 365 575 l 358 546 l 344 546 l 358 611 l 372 611 l 367 586 l 392 586 l 397 611 l 411 611 l 397 546 l 383 546 l 390 575 m 425 546 l 411 546 l 425 611 l 454 611 q 465 610 463 611 q 472 604 471 607 q 475 594 475 599 q 469 581 475 585 q 454 574 467 576 l 460 568 q 465 558 463 564 q 469 546 467 553 l 456 546 q 453 553 454 549 q 449 563 451 557 q 445 568 446 565 q 442 572 444 571 l 436 572 l 431 572 l 425 546 m 432 583 l 439 583 l 454 583 q 457 585 456 585 q 460 588 458 586 q 461 594 461 590 q 458 599 461 599 q 450 600 457 600 l 436 600 l 432 583 m 476 546 l 490 611 l 503 611 l 489 546 l 476 546 m 504 567 l 517 568 q 519 560 517 563 q 529 556 521 556 q 539 558 536 556 q 542 564 542 560 q 540 569 542 568 q 531 574 539 569 l 519 579 q 514 585 515 581 q 513 593 513 588 q 518 607 513 601 q 535 613 524 613 q 553 607 547 613 q 560 593 560 600 l 547 592 q 543 599 547 596 q 535 601 542 601 q 528 600 529 601 q 525 594 525 599 q 526 590 525 592 q 531 588 528 589 q 536 585 533 588 q 546 581 543 582 q 551 578 549 579 q 556 565 556 571 q 549 551 556 558 q 529 544 542 544 q 515 547 524 544 q 507 556 508 551 q 504 567 504 558 m 621 546 l 607 546 l 594 611 l 608 611 l 617 561 l 643 611 l 657 611 l 621 546 m 649 546 l 663 611 l 675 611 l 661 546 l 649 546 m 675 546 l 689 611 l 701 611 l 690 557 l 724 557 l 721 546 l 675 546 m 731 546 l 743 611 l 792 611 l 790 600 l 754 600 l 751 586 l 785 586 l 783 575 l 750 575 l 746 557 l 783 557 l 781 546 l 731 546 m 292 624 l 294 642 l 300 642 q 301 640 301 640 l 304 640 l 306 640 q 307 639 306 639 l 307 636 l 307 633 l 307 629 q 304 626 304 626 q 301 625 301 625 q 297 624 300 624 l 292 624 m 296 626 l 297 626 q 300 628 300 626 l 301 628 q 303 631 303 629 q 304 635 304 632 q 303 636 304 636 q 301 638 303 638 q 300 639 301 639 l 297 639 l 296 626 m 308 624 l 313 642 l 325 642 l 324 638 l 315 638 l 314 635 l 322 635 l 322 632 l 314 632 l 313 626 l 322 626 l 321 624 l 308 624 m 325 629 l 328 629 l 328 628 q 331 626 329 626 q 333 628 333 626 q 335 629 335 628 l 333 631 l 332 632 q 329 633 329 632 q 328 635 328 633 q 326 636 326 636 q 327 638 326 638 q 328 640 328 639 q 330 641 329 640 q 332 642 331 642 q 335 641 335 642 q 338 640 336 640 q 339 636 339 639 l 336 636 q 335 638 335 638 q 332 639 335 639 q 331 638 331 639 l 331 636 q 333 635 331 635 q 336 632 336 632 q 338 629 338 632 q 336 625 338 626 q 334 624 335 625 q 331 624 333 624 q 328 625 329 624 q 325 626 325 626 l 325 629 m 340 624 l 343 642 l 347 642 l 343 624 l 340 624 m 356 633 l 363 633 l 361 626 q 358 625 361 625 q 354 624 357 624 q 352 624 353 624 q 350 625 351 625 q 347 631 347 628 q 349 636 347 635 q 351 640 349 638 q 353 641 353 640 q 357 642 354 642 q 359 641 358 642 q 361 640 360 640 q 364 636 364 638 l 361 636 q 360 638 360 638 q 357 639 358 639 q 354 638 354 638 q 351 635 351 638 l 351 631 l 351 628 q 353 627 353 628 q 354 626 353 626 l 357 626 q 358 628 358 628 l 360 631 l 356 631 l 356 633 m 378 624 l 375 624 l 371 636 l 368 624 l 365 624 l 368 642 l 371 642 l 376 629 l 378 642 l 382 642 l 378 624 m 382 624 l 385 642 l 397 642 l 397 638 l 388 638 l 388 635 l 396 635 l 396 632 l 386 632 l 386 626 l 396 626 l 394 624 l 382 624 m 397 624 l 401 642 l 406 642 q 407 641 407 642 q 408 640 407 640 l 410 640 l 411 640 q 413 639 413 639 l 413 636 q 414 633 414 635 q 413 631 414 632 q 413 629 413 631 q 410 626 410 626 q 407 625 408 625 q 403 624 406 624 l 397 624 m 401 626 l 403 626 q 406 628 406 626 l 407 628 l 410 631 l 410 635 l 410 636 l 408 638 q 407 638 407 638 q 406 639 407 639 l 404 639 l 401 626 m 421 624 l 424 642 l 431 642 l 432 640 l 435 640 l 436 639 l 436 638 l 436 635 q 433 633 435 633 q 435 632 435 632 q 436 629 436 631 q 435 626 436 628 l 433 625 q 431 624 432 625 q 429 624 431 624 l 421 624 m 425 626 l 428 626 q 431 628 431 626 l 432 628 l 432 629 l 432 631 q 429 632 431 632 l 425 632 l 425 626 m 426 635 l 429 635 l 432 635 l 433 636 q 432 638 433 638 l 429 638 l 426 638 l 426 635 m 446 624 l 443 624 l 444 631 l 439 642 l 443 642 l 446 636 l 446 633 q 447 635 447 635 l 449 638 l 451 642 l 456 642 l 447 631 l 446 624 m 550 622 l 547 622 l 546 635 l 540 622 l 536 622 l 536 640 l 539 640 l 539 628 l 546 640 l 549 640 l 550 628 l 556 640 l 558 640 l 550 622 m 572 622 l 569 622 l 568 635 l 563 622 l 558 622 l 558 640 l 561 640 l 561 628 l 568 640 l 571 640 l 572 628 l 578 640 l 581 640 l 572 622 m 594 622 l 592 622 l 590 635 l 585 622 l 581 622 l 581 640 l 583 640 l 583 628 l 590 640 l 593 640 l 594 628 l 600 640 l 603 640 l 594 622 m 600 626 l 603 626 l 603 622 l 599 622 l 600 626 m 618 629 l 621 628 q 618 624 621 626 q 616 623 617 624 q 614 622 615 622 q 608 625 611 622 q 607 629 607 625 q 608 635 607 633 q 611 639 608 636 q 613 640 613 639 q 615 640 614 640 q 617 640 617 640 q 618 639 617 639 l 619 639 q 622 635 622 636 l 618 635 l 618 636 q 617 637 617 636 q 615 638 617 638 q 613 636 614 636 q 611 633 611 635 q 610 629 610 632 q 610 628 610 628 q 611 626 611 628 q 614 625 613 625 q 617 626 615 626 q 618 629 617 628 m 635 631 l 628 631 l 626 622 l 622 622 l 626 640 l 629 640 l 628 633 l 635 633 l 636 640 l 639 640 l 636 622 l 632 622 l 635 631 m 643 622 l 639 622 l 643 640 l 650 640 q 652 640 651 640 q 654 639 653 639 l 656 638 l 656 635 q 654 632 656 632 q 651 631 654 631 l 651 628 q 654 622 654 625 l 651 622 q 649 628 651 622 q 647 629 649 629 l 646 629 l 644 629 l 643 622 m 644 632 l 647 632 l 650 632 l 651 633 l 653 635 q 651 636 653 636 q 650 638 651 638 l 646 638 l 644 632 m 657 622 l 660 640 l 664 640 l 660 622 l 657 622 m 664 628 l 667 628 l 667 626 q 668 626 668 626 q 669 625 668 625 q 672 626 672 625 q 674 628 674 626 l 672 629 l 671 631 q 668 632 668 631 q 667 633 667 632 q 665 635 665 635 q 666 637 665 636 q 667 639 667 638 q 669 640 668 639 q 671 640 669 640 q 674 640 674 640 q 676 639 675 639 q 678 635 678 638 l 675 635 q 674 636 674 636 q 671 638 674 638 q 669 636 669 638 l 669 635 q 672 633 669 633 q 675 631 675 631 q 676 628 676 631 q 675 624 676 625 q 673 623 674 624 q 669 622 672 622 q 667 624 668 622 q 664 625 664 625 l 664 628 m 688 622 l 683 622 l 681 640 l 683 640 l 686 626 l 693 640 l 696 640 l 688 622 m 694 622 l 697 640 l 701 640 l 697 622 l 694 622 m 701 622 l 704 640 l 708 640 l 706 625 l 714 625 l 713 622 l 701 622 m 715 622 l 718 640 l 731 640 l 731 638 l 722 638 l 721 633 l 729 633 l 729 631 l 721 631 l 719 625 l 729 625 l 728 622 l 715 622 m 732 626 l 735 626 l 735 622 l 731 622 l 732 626 m 750 629 l 753 628 q 750 624 753 626 q 748 623 749 624 q 746 622 747 622 q 740 625 743 622 q 739 629 739 625 q 740 635 739 633 q 743 639 740 636 q 745 640 744 639 q 747 640 746 640 q 749 640 749 640 q 750 639 749 639 l 751 639 q 754 635 754 636 l 750 635 l 750 636 q 749 637 749 636 q 747 638 749 638 q 746 637 746 638 q 744 636 746 636 q 743 633 743 635 q 742 629 742 632 q 743 626 742 628 q 746 625 744 625 l 747 626 q 750 629 747 626 m 756 629 l 756 632 q 757 634 757 633 q 758 636 757 635 q 761 639 758 639 q 765 640 763 640 q 769 638 767 640 q 772 633 772 635 q 772 630 772 631 q 771 628 771 629 l 767 624 q 765 623 765 624 q 763 622 764 622 q 758 624 760 622 q 756 626 758 624 l 756 629 m 758 629 q 759 628 758 628 q 760 626 760 628 q 761 626 761 626 q 763 625 761 625 q 764 626 764 625 q 765 626 764 626 q 768 629 765 626 l 768 633 q 767 636 768 635 q 764 638 765 638 q 761 635 761 638 q 758 629 758 632 m 782 622 l 779 622 l 778 638 l 776 622 l 772 622 l 776 640 l 781 640 l 782 628 l 788 640 l 792 640 l 789 622 l 786 622 l 789 636 l 782 622 z "},"?":{"ha":1085,"x_min":50,"x_max":1035,"o":"m 526 511 q 481 430 501 467 q 433 344 460 393 q 319 436 363 374 q 283 506 297 467 q 268 593 268 544 q 283 682 268 643 q 318 751 297 721 q 433 843 361 811 l 433 667 l 526 667 l 526 960 q 382 925 442 956 q 278 850 322 894 q 206 743 236 808 q 183 675 192 711 q 174 596 174 639 q 192 480 174 529 q 236 390 210 431 q 379 264 290 310 q 410 251 394 257 q 444 240 426 244 q 522 228 479 231 q 525 228 522 228 l 526 228 l 526 235 l 526 511 m 550 675 q 596 756 575 719 q 643 842 617 792 q 757 749 714 810 q 794 680 779 718 q 808 592 808 642 q 794 503 808 543 q 758 435 779 464 q 643 342 715 374 l 643 519 l 550 519 l 550 226 q 694 261 635 231 q 799 336 754 292 q 871 443 844 382 q 894 510 885 474 q 903 589 903 547 q 885 706 903 656 q 840 796 868 756 q 777 867 813 836 q 697 921 742 899 q 632 946 669 935 q 594 953 614 950 q 554 957 575 957 q 553 958 556 957 q 550 958 551 958 l 550 951 l 550 675 m 543 101 q 354 138 443 101 q 194 246 265 175 q 87 406 124 317 q 50 594 50 494 q 87 783 50 694 q 194 942 124 872 q 354 1049 265 1013 q 543 1086 443 1086 q 731 1049 642 1086 q 890 942 819 1013 q 998 783 961 872 q 1035 594 1035 694 q 998 406 1035 494 q 890 246 961 317 q 731 138 819 175 q 543 101 642 101 m 543 1039 q 370 1004 451 1039 q 228 909 289 969 q 133 767 168 849 q 97 594 97 686 q 133 422 97 503 q 228 280 168 340 q 370 184 289 219 q 543 149 451 149 q 715 184 635 149 q 856 280 796 219 q 952 422 917 340 q 988 594 988 503 q 952 767 988 686 q 856 909 917 849 q 715 1004 796 969 q 543 1039 635 1039 m 326 569 l 340 567 q 328 550 336 556 q 310 544 317 544 q 290 551 300 544 q 283 572 283 561 q 289 593 283 582 q 301 607 293 603 q 318 613 308 613 q 336 607 325 613 q 343 592 343 600 l 331 590 l 326 599 q 318 600 324 600 q 308 597 311 600 q 300 586 301 593 q 297 572 297 578 q 301 560 297 564 q 310 556 303 556 q 319 560 315 556 q 326 569 324 563 m 390 575 l 365 575 l 358 546 l 344 546 l 358 611 l 372 611 l 367 586 l 392 586 l 397 611 l 411 611 l 397 546 l 383 546 l 390 575 m 425 546 l 411 546 l 425 611 l 454 611 q 465 610 463 611 q 472 604 471 607 q 475 594 475 599 q 469 581 475 585 q 454 574 467 576 l 460 568 q 465 558 463 564 q 469 546 467 553 l 456 546 q 453 553 454 549 q 449 563 451 557 q 445 568 446 565 q 442 572 444 571 l 436 572 l 431 572 l 425 546 m 432 583 l 439 583 l 454 583 q 457 585 456 585 q 460 588 458 586 q 461 594 461 590 q 458 599 461 599 q 450 600 457 600 l 436 600 l 432 583 m 476 546 l 490 611 l 503 611 l 489 546 l 476 546 m 504 567 l 517 568 q 519 560 517 563 q 529 556 521 556 q 539 558 536 556 q 542 564 542 560 q 540 569 542 568 q 531 574 539 569 l 519 579 q 514 585 515 581 q 513 593 513 588 q 518 607 513 601 q 535 613 524 613 q 553 607 547 613 q 560 593 560 600 l 547 592 q 543 599 547 596 q 535 601 542 601 q 528 600 529 601 q 525 594 525 599 q 526 590 525 592 q 531 588 528 589 q 536 585 533 588 q 546 581 543 582 q 551 578 549 579 q 556 565 556 571 q 549 551 556 558 q 529 544 542 544 q 515 547 524 544 q 507 556 508 551 q 504 567 504 558 m 621 546 l 607 546 l 594 611 l 608 611 l 617 561 l 643 611 l 657 611 l 621 546 m 649 546 l 663 611 l 675 611 l 661 546 l 649 546 m 675 546 l 689 611 l 701 611 l 690 557 l 724 557 l 721 546 l 675 546 m 731 546 l 743 611 l 792 611 l 790 600 l 754 600 l 751 586 l 785 586 l 783 575 l 750 575 l 746 557 l 783 557 l 781 546 l 731 546 m 292 624 l 294 642 l 300 642 q 301 640 301 640 l 304 640 l 306 640 q 307 639 306 639 l 307 636 l 307 633 l 307 629 q 304 626 304 626 q 301 625 301 625 q 297 624 300 624 l 292 624 m 296 626 l 297 626 q 300 628 300 626 l 301 628 q 303 631 303 629 q 304 635 304 632 q 303 636 304 636 q 301 638 303 638 q 300 639 301 639 l 297 639 l 296 626 m 308 624 l 313 642 l 325 642 l 324 638 l 315 638 l 314 635 l 322 635 l 322 632 l 314 632 l 313 626 l 322 626 l 321 624 l 308 624 m 325 629 l 328 629 l 328 628 q 331 626 329 626 q 333 628 333 626 q 335 629 335 628 l 333 631 l 332 632 q 329 633 329 632 q 328 635 328 633 q 326 636 326 636 q 327 638 326 638 q 328 640 328 639 q 330 641 329 640 q 332 642 331 642 q 335 641 335 642 q 338 640 336 640 q 339 636 339 639 l 336 636 q 335 638 335 638 q 332 639 335 639 q 331 638 331 639 l 331 636 q 333 635 331 635 q 336 632 336 632 q 338 629 338 632 q 336 625 338 626 q 334 624 335 625 q 331 624 333 624 q 328 625 329 624 q 325 626 325 626 l 325 629 m 340 624 l 343 642 l 347 642 l 343 624 l 340 624 m 356 633 l 363 633 l 361 626 q 358 625 361 625 q 354 624 357 624 q 352 624 353 624 q 350 625 351 625 q 347 631 347 628 q 349 636 347 635 q 351 640 349 638 q 353 641 353 640 q 357 642 354 642 q 359 641 358 642 q 361 640 360 640 q 364 636 364 638 l 361 636 q 360 638 360 638 q 357 639 358 639 q 354 638 354 638 q 351 635 351 638 l 351 631 l 351 628 q 353 627 353 628 q 354 626 353 626 l 357 626 q 358 628 358 628 l 360 631 l 356 631 l 356 633 m 378 624 l 375 624 l 371 636 l 368 624 l 365 624 l 368 642 l 371 642 l 376 629 l 378 642 l 382 642 l 378 624 m 382 624 l 385 642 l 397 642 l 397 638 l 388 638 l 388 635 l 396 635 l 396 632 l 386 632 l 386 626 l 396 626 l 394 624 l 382 624 m 397 624 l 401 642 l 406 642 q 407 641 407 642 q 408 640 407 640 l 410 640 l 411 640 q 413 639 413 639 l 413 636 q 414 633 414 635 q 413 631 414 632 q 413 629 413 631 q 410 626 410 626 q 407 625 408 625 q 403 624 406 624 l 397 624 m 401 626 l 403 626 q 406 628 406 626 l 407 628 l 410 631 l 410 635 l 410 636 l 408 638 q 407 638 407 638 q 406 639 407 639 l 404 639 l 401 626 m 421 624 l 424 642 l 431 642 l 432 640 l 435 640 l 436 639 l 436 638 l 436 635 q 433 633 435 633 q 435 632 435 632 q 436 629 436 631 q 435 626 436 628 l 433 625 q 431 624 432 625 q 429 624 431 624 l 421 624 m 425 626 l 428 626 q 431 628 431 626 l 432 628 l 432 629 l 432 631 q 429 632 431 632 l 425 632 l 425 626 m 426 635 l 429 635 l 432 635 l 433 636 q 432 638 433 638 l 429 638 l 426 638 l 426 635 m 446 624 l 443 624 l 444 631 l 439 642 l 443 642 l 446 636 l 446 633 q 447 635 447 635 l 449 638 l 451 642 l 456 642 l 447 631 l 446 624 m 550 622 l 547 622 l 546 635 l 540 622 l 536 622 l 536 640 l 539 640 l 539 628 l 546 640 l 549 640 l 550 628 l 556 640 l 558 640 l 550 622 m 572 622 l 569 622 l 568 635 l 563 622 l 558 622 l 558 640 l 561 640 l 561 628 l 568 640 l 571 640 l 572 628 l 578 640 l 581 640 l 572 622 m 594 622 l 592 622 l 590 635 l 585 622 l 581 622 l 581 640 l 583 640 l 583 628 l 590 640 l 593 640 l 594 628 l 600 640 l 603 640 l 594 622 m 600 626 l 603 626 l 603 622 l 599 622 l 600 626 m 618 629 l 621 628 q 618 624 621 626 q 616 623 617 624 q 614 622 615 622 q 608 625 611 622 q 607 629 607 625 q 608 635 607 633 q 611 639 608 636 q 613 640 613 639 q 615 640 614 640 q 617 640 617 640 q 618 639 617 639 l 619 639 q 622 635 622 636 l 618 635 l 618 636 q 617 637 617 636 q 615 638 617 638 q 613 636 614 636 q 611 633 611 635 q 610 629 610 632 q 610 628 610 628 q 611 626 611 628 q 614 625 613 625 q 617 626 615 626 q 618 629 617 628 m 635 631 l 628 631 l 626 622 l 622 622 l 626 640 l 629 640 l 628 633 l 635 633 l 636 640 l 639 640 l 636 622 l 632 622 l 635 631 m 643 622 l 639 622 l 643 640 l 650 640 q 652 640 651 640 q 654 639 653 639 l 656 638 l 656 635 q 654 632 656 632 q 651 631 654 631 l 651 628 q 654 622 654 625 l 651 622 q 649 628 651 622 q 647 629 649 629 l 646 629 l 644 629 l 643 622 m 644 632 l 647 632 l 650 632 l 651 633 l 653 635 q 651 636 653 636 q 650 638 651 638 l 646 638 l 644 632 m 657 622 l 660 640 l 664 640 l 660 622 l 657 622 m 664 628 l 667 628 l 667 626 q 668 626 668 626 q 669 625 668 625 q 672 626 672 625 q 674 628 674 626 l 672 629 l 671 631 q 668 632 668 631 q 667 633 667 632 q 665 635 665 635 q 666 637 665 636 q 667 639 667 638 q 669 640 668 639 q 671 640 669 640 q 674 640 674 640 q 676 639 675 639 q 678 635 678 638 l 675 635 q 674 636 674 636 q 671 638 674 638 q 669 636 669 638 l 669 635 q 672 633 669 633 q 675 631 675 631 q 676 628 676 631 q 675 624 676 625 q 673 623 674 624 q 669 622 672 622 q 667 624 668 622 q 664 625 664 625 l 664 628 m 688 622 l 683 622 l 681 640 l 683 640 l 686 626 l 693 640 l 696 640 l 688 622 m 694 622 l 697 640 l 701 640 l 697 622 l 694 622 m 701 622 l 704 640 l 708 640 l 706 625 l 714 625 l 713 622 l 701 622 m 715 622 l 718 640 l 731 640 l 731 638 l 722 638 l 721 633 l 729 633 l 729 631 l 721 631 l 719 625 l 729 625 l 728 622 l 715 622 m 732 626 l 735 626 l 735 622 l 731 622 l 732 626 m 750 629 l 753 628 q 750 624 753 626 q 748 623 749 624 q 746 622 747 622 q 740 625 743 622 q 739 629 739 625 q 740 635 739 633 q 743 639 740 636 q 745 640 744 639 q 747 640 746 640 q 749 640 749 640 q 750 639 749 639 l 751 639 q 754 635 754 636 l 750 635 l 750 636 q 749 637 749 636 q 747 638 749 638 q 746 637 746 638 q 744 636 746 636 q 743 633 743 635 q 742 629 742 632 q 743 626 742 628 q 746 625 744 625 l 747 626 q 750 629 747 626 m 756 629 l 756 632 q 757 634 757 633 q 758 636 757 635 q 761 639 758 639 q 765 640 763 640 q 769 638 767 640 q 772 633 772 635 q 772 630 772 631 q 771 628 771 629 l 767 624 q 765 623 765 624 q 763 622 764 622 q 758 624 760 622 q 756 626 758 624 l 756 629 m 758 629 q 759 628 758 628 q 760 626 760 628 q 761 626 761 626 q 763 625 761 625 q 764 626 764 625 q 765 626 764 626 q 768 629 765 626 l 768 633 q 767 636 768 635 q 764 638 765 638 q 761 635 761 638 q 758 629 758 632 m 782 622 l 779 622 l 778 638 l 776 622 l 772 622 l 776 640 l 781 640 l 782 628 l 788 640 l 792 640 l 789 622 l 786 622 l 789 636 l 782 622 z "},"@":{"ha":1085,"x_min":50,"x_max":1035,"o":"m 526 511 q 481 430 501 467 q 433 344 460 393 q 319 436 363 374 q 283 506 297 467 q 268 593 268 544 q 283 682 268 643 q 318 751 297 721 q 433 843 361 811 l 433 667 l 526 667 l 526 960 q 382 925 442 956 q 278 850 322 894 q 206 743 236 808 q 183 675 192 711 q 174 596 174 639 q 192 480 174 529 q 236 390 210 431 q 379 264 290 310 q 410 251 394 257 q 444 240 426 244 q 522 228 479 231 q 525 228 522 228 l 526 228 l 526 235 l 526 511 m 550 675 q 596 756 575 719 q 643 842 617 792 q 757 749 714 810 q 794 680 779 718 q 808 592 808 642 q 794 503 808 543 q 758 435 779 464 q 643 342 715 374 l 643 519 l 550 519 l 550 226 q 694 261 635 231 q 799 336 754 292 q 871 443 844 382 q 894 510 885 474 q 903 589 903 547 q 885 706 903 656 q 840 796 868 756 q 777 867 813 836 q 697 921 742 899 q 632 946 669 935 q 594 953 614 950 q 554 957 575 957 q 553 958 556 957 q 550 958 551 958 l 550 951 l 550 675 m 543 101 q 354 138 443 101 q 194 246 265 175 q 87 406 124 317 q 50 594 50 494 q 87 783 50 694 q 194 942 124 872 q 354 1049 265 1013 q 543 1086 443 1086 q 731 1049 642 1086 q 890 942 819 1013 q 998 783 961 872 q 1035 594 1035 694 q 998 406 1035 494 q 890 246 961 317 q 731 138 819 175 q 543 101 642 101 m 543 1039 q 370 1004 451 1039 q 228 909 289 969 q 133 767 168 849 q 97 594 97 686 q 133 422 97 503 q 228 280 168 340 q 370 184 289 219 q 543 149 451 149 q 715 184 635 149 q 856 280 796 219 q 952 422 917 340 q 988 594 988 503 q 952 767 988 686 q 856 909 917 849 q 715 1004 796 969 q 543 1039 635 1039 m 326 569 l 340 567 q 328 550 336 556 q 310 544 317 544 q 290 551 300 544 q 283 572 283 561 q 289 593 283 582 q 301 607 293 603 q 318 613 308 613 q 336 607 325 613 q 343 592 343 600 l 331 590 l 326 599 q 318 600 324 600 q 308 597 311 600 q 300 586 301 593 q 297 572 297 578 q 301 560 297 564 q 310 556 303 556 q 319 560 315 556 q 326 569 324 563 m 390 575 l 365 575 l 358 546 l 344 546 l 358 611 l 372 611 l 367 586 l 392 586 l 397 611 l 411 611 l 397 546 l 383 546 l 390 575 m 425 546 l 411 546 l 425 611 l 454 611 q 465 610 463 611 q 472 604 471 607 q 475 594 475 599 q 469 581 475 585 q 454 574 467 576 l 460 568 q 465 558 463 564 q 469 546 467 553 l 456 546 q 453 553 454 549 q 449 563 451 557 q 445 568 446 565 q 442 572 444 571 l 436 572 l 431 572 l 425 546 m 432 583 l 439 583 l 454 583 q 457 585 456 585 q 460 588 458 586 q 461 594 461 590 q 458 599 461 599 q 450 600 457 600 l 436 600 l 432 583 m 476 546 l 490 611 l 503 611 l 489 546 l 476 546 m 504 567 l 517 568 q 519 560 517 563 q 529 556 521 556 q 539 558 536 556 q 542 564 542 560 q 540 569 542 568 q 531 574 539 569 l 519 579 q 514 585 515 581 q 513 593 513 588 q 518 607 513 601 q 535 613 524 613 q 553 607 547 613 q 560 593 560 600 l 547 592 q 543 599 547 596 q 535 601 542 601 q 528 600 529 601 q 525 594 525 599 q 526 590 525 592 q 531 588 528 589 q 536 585 533 588 q 546 581 543 582 q 551 578 549 579 q 556 565 556 571 q 549 551 556 558 q 529 544 542 544 q 515 547 524 544 q 507 556 508 551 q 504 567 504 558 m 621 546 l 607 546 l 594 611 l 608 611 l 617 561 l 643 611 l 657 611 l 621 546 m 649 546 l 663 611 l 675 611 l 661 546 l 649 546 m 675 546 l 689 611 l 701 611 l 690 557 l 724 557 l 721 546 l 675 546 m 731 546 l 743 611 l 792 611 l 790 600 l 754 600 l 751 586 l 785 586 l 783 575 l 750 575 l 746 557 l 783 557 l 781 546 l 731 546 m 292 624 l 294 642 l 300 642 q 301 640 301 640 l 304 640 l 306 640 q 307 639 306 639 l 307 636 l 307 633 l 307 629 q 304 626 304 626 q 301 625 301 625 q 297 624 300 624 l 292 624 m 296 626 l 297 626 q 300 628 300 626 l 301 628 q 303 631 303 629 q 304 635 304 632 q 303 636 304 636 q 301 638 303 638 q 300 639 301 639 l 297 639 l 296 626 m 308 624 l 313 642 l 325 642 l 324 638 l 315 638 l 314 635 l 322 635 l 322 632 l 314 632 l 313 626 l 322 626 l 321 624 l 308 624 m 325 629 l 328 629 l 328 628 q 331 626 329 626 q 333 628 333 626 q 335 629 335 628 l 333 631 l 332 632 q 329 633 329 632 q 328 635 328 633 q 326 636 326 636 q 327 638 326 638 q 328 640 328 639 q 330 641 329 640 q 332 642 331 642 q 335 641 335 642 q 338 640 336 640 q 339 636 339 639 l 336 636 q 335 638 335 638 q 332 639 335 639 q 331 638 331 639 l 331 636 q 333 635 331 635 q 336 632 336 632 q 338 629 338 632 q 336 625 338 626 q 334 624 335 625 q 331 624 333 624 q 328 625 329 624 q 325 626 325 626 l 325 629 m 340 624 l 343 642 l 347 642 l 343 624 l 340 624 m 356 633 l 363 633 l 361 626 q 358 625 361 625 q 354 624 357 624 q 352 624 353 624 q 350 625 351 625 q 347 631 347 628 q 349 636 347 635 q 351 640 349 638 q 353 641 353 640 q 357 642 354 642 q 359 641 358 642 q 361 640 360 640 q 364 636 364 638 l 361 636 q 360 638 360 638 q 357 639 358 639 q 354 638 354 638 q 351 635 351 638 l 351 631 l 351 628 q 353 627 353 628 q 354 626 353 626 l 357 626 q 358 628 358 628 l 360 631 l 356 631 l 356 633 m 378 624 l 375 624 l 371 636 l 368 624 l 365 624 l 368 642 l 371 642 l 376 629 l 378 642 l 382 642 l 378 624 m 382 624 l 385 642 l 397 642 l 397 638 l 388 638 l 388 635 l 396 635 l 396 632 l 386 632 l 386 626 l 396 626 l 394 624 l 382 624 m 397 624 l 401 642 l 406 642 q 407 641 407 642 q 408 640 407 640 l 410 640 l 411 640 q 413 639 413 639 l 413 636 q 414 633 414 635 q 413 631 414 632 q 413 629 413 631 q 410 626 410 626 q 407 625 408 625 q 403 624 406 624 l 397 624 m 401 626 l 403 626 q 406 628 406 626 l 407 628 l 410 631 l 410 635 l 410 636 l 408 638 q 407 638 407 638 q 406 639 407 639 l 404 639 l 401 626 m 421 624 l 424 642 l 431 642 l 432 640 l 435 640 l 436 639 l 436 638 l 436 635 q 433 633 435 633 q 435 632 435 632 q 436 629 436 631 q 435 626 436 628 l 433 625 q 431 624 432 625 q 429 624 431 624 l 421 624 m 425 626 l 428 626 q 431 628 431 626 l 432 628 l 432 629 l 432 631 q 429 632 431 632 l 425 632 l 425 626 m 426 635 l 429 635 l 432 635 l 433 636 q 432 638 433 638 l 429 638 l 426 638 l 426 635 m 446 624 l 443 624 l 444 631 l 439 642 l 443 642 l 446 636 l 446 633 q 447 635 447 635 l 449 638 l 451 642 l 456 642 l 447 631 l 446 624 m 550 622 l 547 622 l 546 635 l 540 622 l 536 622 l 536 640 l 539 640 l 539 628 l 546 640 l 549 640 l 550 628 l 556 640 l 558 640 l 550 622 m 572 622 l 569 622 l 568 635 l 563 622 l 558 622 l 558 640 l 561 640 l 561 628 l 568 640 l 571 640 l 572 628 l 578 640 l 581 640 l 572 622 m 594 622 l 592 622 l 590 635 l 585 622 l 581 622 l 581 640 l 583 640 l 583 628 l 590 640 l 593 640 l 594 628 l 600 640 l 603 640 l 594 622 m 600 626 l 603 626 l 603 622 l 599 622 l 600 626 m 618 629 l 621 628 q 618 624 621 626 q 616 623 617 624 q 614 622 615 622 q 608 625 611 622 q 607 629 607 625 q 608 635 607 633 q 611 639 608 636 q 613 640 613 639 q 615 640 614 640 q 617 640 617 640 q 618 639 617 639 l 619 639 q 622 635 622 636 l 618 635 l 618 636 q 617 637 617 636 q 615 638 617 638 q 613 636 614 636 q 611 633 611 635 q 610 629 610 632 q 610 628 610 628 q 611 626 611 628 q 614 625 613 625 q 617 626 615 626 q 618 629 617 628 m 635 631 l 628 631 l 626 622 l 622 622 l 626 640 l 629 640 l 628 633 l 635 633 l 636 640 l 639 640 l 636 622 l 632 622 l 635 631 m 643 622 l 639 622 l 643 640 l 650 640 q 652 640 651 640 q 654 639 653 639 l 656 638 l 656 635 q 654 632 656 632 q 651 631 654 631 l 651 628 q 654 622 654 625 l 651 622 q 649 628 651 622 q 647 629 649 629 l 646 629 l 644 629 l 643 622 m 644 632 l 647 632 l 650 632 l 651 633 l 653 635 q 651 636 653 636 q 650 638 651 638 l 646 638 l 644 632 m 657 622 l 660 640 l 664 640 l 660 622 l 657 622 m 664 628 l 667 628 l 667 626 q 668 626 668 626 q 669 625 668 625 q 672 626 672 625 q 674 628 674 626 l 672 629 l 671 631 q 668 632 668 631 q 667 633 667 632 q 665 635 665 635 q 666 637 665 636 q 667 639 667 638 q 669 640 668 639 q 671 640 669 640 q 674 640 674 640 q 676 639 675 639 q 678 635 678 638 l 675 635 q 674 636 674 636 q 671 638 674 638 q 669 636 669 638 l 669 635 q 672 633 669 633 q 675 631 675 631 q 676 628 676 631 q 675 624 676 625 q 673 623 674 624 q 669 622 672 622 q 667 624 668 622 q 664 625 664 625 l 664 628 m 688 622 l 683 622 l 681 640 l 683 640 l 686 626 l 693 640 l 696 640 l 688 622 m 694 622 l 697 640 l 701 640 l 697 622 l 694 622 m 701 622 l 704 640 l 708 640 l 706 625 l 714 625 l 713 622 l 701 622 m 715 622 l 718 640 l 731 640 l 731 638 l 722 638 l 721 633 l 729 633 l 729 631 l 721 631 l 719 625 l 729 625 l 728 622 l 715 622 m 732 626 l 735 626 l 735 622 l 731 622 l 732 626 m 750 629 l 753 628 q 750 624 753 626 q 748 623 749 624 q 746 622 747 622 q 740 625 743 622 q 739 629 739 625 q 740 635 739 633 q 743 639 740 636 q 745 640 744 639 q 747 640 746 640 q 749 640 749 640 q 750 639 749 639 l 751 639 q 754 635 754 636 l 750 635 l 750 636 q 749 637 749 636 q 747 638 749 638 q 746 637 746 638 q 744 636 746 636 q 743 633 743 635 q 742 629 742 632 q 743 626 742 628 q 746 625 744 625 l 747 626 q 750 629 747 626 m 756 629 l 756 632 q 757 634 757 633 q 758 636 757 635 q 761 639 758 639 q 765 640 763 640 q 769 638 767 640 q 772 633 772 635 q 772 630 772 631 q 771 628 771 629 l 767 624 q 765 623 765 624 q 763 622 764 622 q 758 624 760 622 q 756 626 758 624 l 756 629 m 758 629 q 759 628 758 628 q 760 626 760 628 q 761 626 761 626 q 763 625 761 625 q 764 626 764 625 q 765 626 764 626 q 768 629 765 626 l 768 633 q 767 636 768 635 q 764 638 765 638 q 761 635 761 638 q 758 629 758 632 m 782 622 l 779 622 l 778 638 l 776 622 l 772 622 l 776 640 l 781 640 l 782 628 l 788 640 l 792 640 l 789 622 l 786 622 l 789 636 l 782 622 z "},"A":{"ha":908,"x_min":103,"x_max":806,"o":"m 806 21 l 803 21 q 799 14 799 21 q 792 17 796 17 q 785 19 788 17 q 781 26 782 22 q 776 32 779 31 l 775 38 l 772 39 l 769 46 q 764 56 765 49 q 758 65 763 63 l 754 78 l 753 79 q 739 105 746 92 q 728 132 732 118 q 723 141 725 135 q 719 150 721 147 l 718 151 l 715 160 l 714 161 l 710 172 l 708 175 l 704 188 q 699 194 701 189 q 697 201 697 199 q 700 204 697 204 q 706 204 703 204 q 708 210 708 204 q 701 219 708 217 q 689 218 694 222 q 679 247 685 233 q 667 274 674 260 l 663 282 l 663 285 l 654 297 q 653 305 654 300 q 651 313 651 310 l 657 314 q 651 324 654 319 q 646 333 649 328 q 642 342 647 335 q 636 353 638 350 l 636 356 l 635 356 l 635 358 l 633 358 l 633 361 l 631 361 l 626 376 q 619 389 624 378 q 614 403 615 400 l 611 406 l 611 408 l 610 408 l 607 419 l 606 422 l 599 436 q 598 440 600 439 q 597 443 596 440 q 573 497 585 469 q 550 551 561 524 l 549 553 l 542 567 q 540 572 543 569 q 539 576 538 574 l 536 585 l 535 586 l 529 597 q 528 601 531 600 q 528 604 526 601 q 524 613 526 607 q 519 621 522 618 q 516 629 517 625 q 513 638 515 633 l 511 639 l 507 651 q 506 654 508 654 q 506 657 503 654 q 488 700 497 675 l 486 701 l 482 708 l 482 713 l 476 726 q 472 731 474 728 q 469 738 471 735 q 466 731 467 735 q 463 722 465 726 l 461 721 l 460 714 l 457 711 l 457 706 l 453 703 l 453 697 l 450 694 q 445 681 449 688 q 440 667 442 674 l 438 664 l 438 658 l 433 656 l 433 651 l 431 647 q 426 634 428 640 q 421 621 424 628 l 419 621 l 418 613 l 415 608 l 415 604 l 411 601 q 406 584 410 596 q 399 568 401 572 l 399 565 l 396 561 q 392 550 396 560 q 386 538 388 540 l 386 535 q 375 510 379 524 q 363 489 371 497 q 353 520 357 504 q 338 549 350 536 l 338 564 q 344 581 340 572 q 351 599 349 590 l 353 601 l 361 624 l 363 625 q 367 634 365 629 q 372 643 369 639 l 372 644 q 375 656 372 649 q 382 672 378 664 q 390 689 386 681 q 396 701 393 697 l 396 704 l 399 708 q 401 717 399 710 q 406 726 404 724 l 407 726 l 408 735 l 411 738 l 411 743 q 417 753 414 744 q 421 764 419 761 q 424 756 425 761 q 422 746 422 750 q 423 713 422 731 q 426 681 424 696 q 432 686 435 678 l 433 678 q 439 685 440 682 q 435 710 436 697 q 433 735 433 722 q 436 746 433 738 l 433 747 l 433 757 l 438 764 l 438 778 l 439 782 q 438 794 438 786 q 439 804 438 800 q 442 813 440 808 q 446 819 440 817 q 448 828 447 824 q 451 839 449 833 q 455 843 456 840 q 457 846 454 846 q 463 863 460 854 q 469 879 467 871 l 471 879 l 471 876 q 474 865 471 874 q 482 847 478 857 q 490 828 486 838 q 496 817 494 819 q 495 813 494 815 q 499 811 496 811 l 499 806 q 501 803 500 806 q 501 800 503 801 q 510 782 504 793 q 513 775 508 779 l 513 771 q 517 764 518 768 l 519 757 l 519 754 q 535 715 529 735 q 551 676 542 696 q 556 671 551 671 l 556 665 q 558 658 560 661 l 561 653 l 561 649 q 570 629 567 639 q 578 608 574 619 l 579 607 l 581 599 l 582 597 l 585 592 q 588 585 589 588 q 599 555 594 569 q 610 525 604 540 l 611 524 l 614 515 l 617 513 l 617 507 q 623 493 618 507 q 629 476 628 479 l 629 474 q 655 412 644 443 q 678 349 665 381 q 679 344 679 349 q 686 330 682 338 q 693 315 690 322 l 686 311 q 695 288 688 304 q 710 253 703 271 q 723 221 717 236 q 729 204 729 206 l 731 201 l 735 192 l 736 190 q 742 176 739 183 q 747 161 744 168 q 749 158 751 161 q 756 140 751 151 q 765 122 760 129 l 760 121 l 758 113 l 761 113 q 765 118 767 113 l 768 111 l 768 117 q 751 154 761 133 q 739 194 742 175 l 736 197 l 733 210 l 731 211 q 725 226 729 214 q 716 250 721 238 q 708 274 711 263 q 704 286 704 285 l 708 274 l 710 271 l 714 264 l 715 261 l 718 250 l 719 249 q 725 234 722 242 q 731 219 728 226 l 733 218 l 735 213 l 736 211 l 738 204 l 739 201 l 743 192 q 744 190 744 192 q 746 188 743 189 l 749 176 l 750 175 q 763 145 757 160 q 772 115 769 131 q 773 113 774 114 q 775 110 772 111 l 778 96 l 779 93 q 787 69 781 85 q 797 43 793 53 q 798 40 796 40 q 799 38 800 40 l 806 21 m 488 764 l 488 774 q 476 776 482 779 q 474 784 475 779 q 468 788 472 789 q 460 767 463 781 q 471 743 464 756 q 474 752 471 749 q 478 761 476 756 l 488 764 m 543 628 q 538 622 538 628 l 538 618 l 542 618 q 546 619 543 618 q 549 622 549 619 q 543 628 549 628 m 535 615 l 535 618 l 529 618 l 529 615 l 535 615 m 549 596 l 539 597 l 540 592 q 546 592 543 592 q 549 594 549 592 l 549 596 m 564 553 l 564 561 l 560 561 q 553 556 553 561 l 554 553 l 564 553 m 592 494 l 592 497 l 589 497 l 589 494 l 592 494 m 676 276 q 667 282 671 282 l 664 281 l 667 275 l 676 276 m 769 100 l 767 103 q 765 100 765 101 l 767 99 l 769 100 m 329 499 q 322 494 326 494 q 316 496 319 494 q 310 497 313 497 q 314 513 314 503 q 329 499 318 507 m 314 493 q 304 486 314 486 l 304 488 q 306 492 304 490 q 308 496 308 493 l 314 493 m 324 438 q 316 427 321 431 q 307 418 311 424 q 301 423 304 421 q 293 426 297 425 l 281 425 l 281 428 l 281 431 l 282 431 q 290 450 285 435 q 297 467 294 465 l 299 474 q 304 478 301 476 q 310 483 307 481 l 313 483 l 319 488 l 322 486 l 322 485 q 318 475 322 476 q 318 464 315 468 q 313 446 315 453 l 319 443 l 319 439 l 324 438 m 343 438 l 339 428 l 339 425 q 332 410 332 418 l 324 407 l 325 401 q 317 376 325 386 l 311 381 l 313 388 q 311 397 311 390 q 319 406 311 407 l 317 410 q 322 419 319 414 q 324 428 324 424 q 328 433 331 428 l 333 435 l 336 439 l 343 438 m 314 369 l 311 369 l 311 374 l 314 374 l 314 369 m 303 346 l 294 343 q 293 342 293 342 q 281 347 289 342 l 289 347 q 295 346 292 347 q 303 346 299 344 m 276 353 l 276 351 q 274 347 276 350 l 271 347 l 271 353 l 276 353 m 222 256 l 219 256 q 213 253 215 256 q 207 250 210 250 q 211 263 208 257 q 217 275 214 268 q 224 263 224 274 q 222 256 224 257 m 250 225 l 249 218 l 247 218 l 243 211 q 246 204 246 208 l 244 199 l 243 197 l 240 189 l 231 190 l 229 188 q 233 187 229 186 q 239 188 238 188 l 235 178 l 232 175 l 232 169 q 227 163 229 167 q 222 156 225 158 q 217 134 221 144 q 204 117 214 124 l 207 106 q 199 92 201 99 q 194 79 197 86 l 193 78 l 190 69 l 190 67 l 182 50 l 182 47 l 181 47 l 179 39 q 174 31 178 38 l 174 29 l 168 13 q 163 0 163 8 l 103 0 q 108 14 104 7 q 113 28 111 21 l 114 29 l 121 47 q 124 51 119 47 l 129 67 l 131 68 l 138 86 q 139 89 139 88 l 146 107 q 147 108 147 107 q 149 110 147 110 l 151 121 l 153 122 l 154 128 l 156 129 l 160 140 q 169 160 163 143 q 178 181 175 176 q 181 193 176 183 q 190 204 186 203 q 189 210 189 206 q 190 215 189 213 q 194 225 193 221 q 201 239 197 231 l 201 235 l 207 235 l 211 238 l 211 242 q 224 251 211 254 l 138 39 l 144 50 l 146 57 l 149 57 l 150 63 l 153 71 l 154 72 q 161 90 158 82 l 163 92 q 172 118 168 101 q 181 138 174 118 q 199 180 189 157 q 217 224 208 203 q 229 250 226 246 l 232 247 q 244 246 240 250 l 243 235 l 250 225 m 183 176 q 179 176 182 176 q 176 172 176 175 l 178 171 q 182 172 179 171 q 185 175 185 172 l 183 176 m 225 207 q 222 199 224 203 q 219 189 219 194 l 211 182 l 214 178 q 207 160 208 167 l 204 158 l 201 147 l 199 143 q 180 98 193 119 q 163 53 167 76 l 160 50 q 153 33 158 43 q 144 19 149 24 l 150 17 l 174 78 l 175 79 l 183 101 l 185 103 q 189 113 188 108 q 192 122 190 117 l 194 126 q 203 149 197 138 q 213 172 208 161 l 214 175 l 217 181 l 221 185 l 218 185 q 222 195 218 186 q 225 207 226 204 z "},"B":{"ha":750,"x_min":107,"x_max":643,"o":"m 517 361 l 519 361 l 519 358 l 517 358 l 517 361 m 629 261 l 633 263 q 642 260 636 263 l 642 250 l 626 250 l 629 261 m 426 31 l 429 26 q 438 17 436 24 q 440 4 440 11 q 434 4 438 6 q 428 3 431 3 l 425 3 l 424 10 l 419 13 l 426 31 m 506 24 l 500 28 l 499 33 l 489 40 l 483 57 q 481 64 483 61 q 486 69 482 68 q 493 71 490 71 q 505 79 494 74 q 518 86 515 85 q 522 90 521 88 q 526 90 524 92 q 544 108 535 100 q 560 126 553 115 l 572 124 q 572 133 574 129 q 568 140 569 136 l 572 149 q 576 156 575 150 q 578 165 576 163 l 579 167 q 588 211 586 183 q 586 257 589 239 q 591 263 589 260 q 594 269 593 267 l 594 281 q 601 288 600 282 q 607 296 601 294 l 607 308 l 608 310 q 611 315 610 313 q 613 319 613 317 q 601 342 613 333 l 589 346 l 586 349 q 577 349 578 351 q 569 347 576 346 l 567 347 q 560 358 560 356 q 558 369 561 361 q 558 372 557 371 q 556 375 558 374 q 553 388 556 382 q 547 400 550 393 l 554 400 q 561 394 557 397 q 568 388 565 392 l 572 388 q 590 367 579 378 q 608 347 600 356 q 611 343 607 344 q 613 339 615 342 l 618 331 l 617 321 l 619 315 l 626 311 l 625 303 q 626 298 625 300 q 628 294 628 296 q 636 285 628 288 l 639 272 l 632 265 q 617 268 624 264 q 607 257 607 265 l 611 247 q 625 247 615 244 l 626 238 l 632 232 q 643 236 639 232 q 643 218 640 226 q 638 211 640 215 q 633 203 635 207 l 633 190 q 635 183 633 188 q 638 176 636 179 q 631 154 635 165 q 625 132 628 143 l 624 131 q 598 90 614 107 q 565 54 582 72 l 563 54 q 556 49 560 51 q 549 43 551 47 l 546 43 q 538 38 542 40 q 528 33 533 36 l 528 32 l 525 32 q 517 28 522 31 q 510 24 513 26 l 506 24 m 533 39 q 531 40 531 40 q 526 38 529 40 q 529 36 529 36 q 533 39 533 36 m 538 79 l 547 81 l 547 82 q 542 90 547 88 q 538 82 538 86 l 538 79 m 514 33 l 515 33 q 522 38 519 33 l 518 38 q 514 33 514 38 m 161 449 l 146 449 q 153 438 149 443 q 161 429 157 433 l 161 449 q 232 449 197 450 q 301 449 267 449 q 337 449 319 449 q 371 450 354 450 q 404 458 388 451 q 436 464 421 464 q 447 454 444 464 l 447 469 q 465 478 457 472 q 481 486 472 483 q 481 475 481 482 q 476 465 482 468 l 478 463 l 478 456 l 478 449 l 481 447 q 483 431 481 442 q 465 436 472 433 q 453 433 458 436 q 443 428 449 429 q 454 424 449 426 q 465 422 460 422 q 476 425 476 422 q 483 429 476 428 q 492 418 488 424 q 499 406 497 413 l 507 400 l 514 388 l 514 385 l 515 385 q 525 369 521 374 q 506 374 515 365 l 513 365 q 498 369 507 365 q 486 376 489 372 l 472 379 l 469 381 q 450 386 464 383 l 449 388 q 399 391 425 386 q 347 396 372 396 q 346 405 347 400 q 340 411 344 410 q 341 405 338 408 q 344 399 344 401 l 344 396 l 210 396 q 197 395 206 396 q 179 395 188 394 q 165 399 171 396 q 161 408 160 401 l 158 408 q 143 399 151 410 l 161 397 q 162 342 161 369 q 163 288 163 315 q 160 166 163 226 q 156 43 157 106 l 204 43 q 292 39 250 43 q 324 36 307 36 q 356 38 340 36 l 361 38 q 361 33 365 38 q 396 46 371 42 q 433 53 421 50 l 429 47 q 426 42 431 46 l 425 36 q 418 17 418 26 l 418 13 q 424 3 424 10 q 399 0 411 0 q 375 0 386 0 l 108 0 q 107 152 107 76 q 107 304 107 228 q 110 429 107 367 q 113 554 113 492 q 114 689 113 621 q 119 824 115 757 q 225 821 172 822 q 331 819 278 819 q 319 815 326 815 q 307 815 313 815 q 322 814 314 814 q 336 814 329 814 l 335 819 l 336 821 q 357 823 347 822 q 378 824 367 824 q 389 823 383 824 q 400 824 394 822 l 403 814 l 408 810 l 403 810 l 406 804 q 405 797 406 799 q 411 796 404 796 l 414 796 q 413 788 414 792 q 410 782 411 785 q 336 791 374 789 q 261 793 299 793 q 206 794 233 793 q 150 797 178 796 q 162 665 163 733 q 161 532 161 597 l 161 449 m 385 811 q 399 810 389 813 l 396 814 l 389 813 l 386 817 l 385 811 m 144 815 l 149 814 l 161 814 q 188 813 175 814 q 213 815 200 813 l 165 815 l 151 815 l 146 815 l 144 815 m 147 803 l 150 803 l 158 803 l 151 803 l 149 803 l 147 803 m 208 801 q 228 800 218 800 q 249 803 239 800 q 228 803 238 803 q 208 801 219 803 m 396 431 q 392 440 393 435 q 386 446 392 444 l 396 431 m 424 399 l 424 404 q 421 410 424 408 l 421 407 q 424 399 421 404 m 153 33 l 153 43 l 143 42 q 148 38 146 40 q 153 33 150 36 m 282 33 l 267 32 l 282 33 m 494 800 l 499 800 q 506 796 500 799 q 513 793 511 793 l 517 788 q 526 783 518 789 q 542 769 533 778 q 558 753 551 761 q 568 740 565 744 l 568 738 q 576 725 574 733 l 578 725 l 578 722 q 587 706 582 719 q 593 688 592 693 l 594 686 q 599 653 594 671 q 603 618 603 636 q 598 579 603 596 q 589 542 593 563 l 586 538 l 583 526 q 580 523 581 525 q 576 518 579 521 l 575 513 q 572 509 571 513 q 568 506 572 506 q 560 494 567 501 q 547 478 554 486 q 533 463 540 469 q 522 456 526 456 q 517 466 519 461 q 510 475 514 471 q 504 486 510 481 l 504 493 l 500 499 l 508 513 l 515 517 q 524 528 518 524 l 524 529 q 532 541 528 532 q 538 556 536 550 l 539 556 l 543 568 l 544 569 q 550 592 547 579 q 553 615 553 606 q 547 655 553 638 q 538 693 540 672 l 535 696 l 533 701 q 529 707 529 701 l 526 713 l 524 714 l 522 718 l 518 721 l 517 725 q 506 735 510 729 q 496 744 503 742 l 496 753 l 493 756 q 492 761 493 758 q 490 767 490 764 q 493 781 490 774 q 496 794 496 788 q 494 797 494 794 q 494 800 493 799 m 533 757 q 525 758 526 757 l 525 757 q 526 756 525 756 q 533 757 531 756 m 560 517 q 564 515 561 515 q 568 519 568 515 l 565 519 q 560 517 563 522 m 542 500 l 543 500 q 550 510 550 500 l 542 514 l 542 500 m 525 494 l 526 494 q 532 499 532 494 l 526 500 q 525 496 525 499 l 525 494 z "},"C":{"ha":940,"x_min":131,"x_max":810,"o":"m 551 31 l 539 31 q 479 35 508 31 l 478 43 l 481 47 l 486 47 l 488 49 l 493 49 q 526 49 510 50 q 560 49 542 47 q 554 40 557 46 l 549 39 l 551 31 m 447 51 l 442 50 l 439 47 l 439 42 l 438 40 q 423 44 436 40 q 410 50 410 49 l 397 53 l 396 56 l 383 58 l 382 60 q 369 65 378 61 q 350 75 360 69 q 331 86 340 81 q 319 96 322 92 q 302 107 317 94 q 283 125 288 119 l 281 125 q 270 138 275 132 q 258 149 265 143 l 258 151 q 245 168 251 158 q 232 185 239 178 l 229 192 l 226 194 l 224 199 q 216 213 219 201 q 208 228 213 225 l 207 235 l 204 236 l 203 240 l 201 243 q 185 290 194 267 q 179 340 176 314 l 174 346 l 172 356 l 179 356 l 185 356 q 190 335 189 346 q 193 315 190 325 l 194 315 l 194 310 l 197 308 q 203 283 200 296 q 211 258 207 271 l 213 257 l 217 249 l 218 243 l 219 243 q 225 228 219 239 q 229 218 228 222 l 238 206 q 243 197 240 203 q 244 192 243 196 q 249 189 246 189 l 250 185 q 260 171 253 182 q 271 157 268 160 q 278 149 274 151 q 286 140 283 147 q 297 131 293 138 q 308 122 301 125 l 310 119 q 376 81 346 97 q 447 56 406 65 l 447 51 m 571 46 q 578 50 571 50 l 583 50 q 581 47 583 47 q 575 46 578 46 l 571 46 m 665 53 q 657 50 661 51 q 647 49 653 49 q 646 61 644 57 l 646 67 l 658 68 q 667 75 661 69 l 681 79 q 689 84 682 82 q 699 86 696 86 l 713 81 l 715 76 q 706 71 710 74 q 696 67 701 68 q 688 71 693 69 q 678 75 682 72 q 668 67 669 71 q 665 53 667 63 m 169 424 l 169 426 l 172 426 l 172 424 l 169 424 m 169 439 q 171 453 169 446 q 174 467 172 460 q 174 454 171 460 q 175 442 176 449 l 175 439 l 169 439 m 172 476 l 172 482 q 174 502 172 492 q 179 524 176 513 l 182 525 q 186 554 182 535 q 197 581 190 574 l 196 582 q 199 592 196 588 q 203 601 201 596 l 204 603 q 210 617 207 610 q 218 631 214 624 q 217 625 218 625 l 218 618 q 214 609 215 615 q 213 600 213 603 l 207 582 l 204 582 q 203 574 203 579 q 201 567 203 569 l 197 553 q 190 524 192 539 q 188 494 189 508 l 183 489 l 179 486 q 179 476 176 481 l 172 476 m 638 790 l 636 790 q 618 796 632 793 q 600 799 604 799 l 599 800 q 586 801 593 801 q 575 803 579 800 q 553 803 564 803 q 531 808 542 804 q 586 804 557 804 l 588 803 q 612 800 599 801 q 636 794 625 799 l 640 790 l 638 790 m 263 690 q 271 706 263 697 q 290 724 279 715 q 313 741 301 733 q 328 754 324 749 l 333 756 q 338 760 336 758 q 343 764 340 761 l 347 764 l 347 765 q 354 768 350 767 q 360 772 358 769 q 369 776 363 774 q 378 781 375 778 q 417 793 393 783 q 456 801 440 803 l 456 800 q 405 785 429 796 q 360 764 381 775 q 326 744 340 753 q 303 733 311 735 l 299 724 l 293 722 q 278 706 286 714 q 263 690 271 697 m 764 726 l 763 735 l 757 732 l 750 739 l 747 739 l 744 743 q 733 749 742 742 q 722 760 725 757 q 728 756 725 757 q 735 751 732 754 l 739 751 q 728 758 733 754 q 718 765 722 761 l 710 769 l 708 772 l 703 774 l 699 776 l 693 779 l 689 782 q 675 786 682 782 q 660 792 668 790 l 657 794 l 640 799 l 639 800 l 626 801 l 626 803 l 619 803 l 619 804 q 572 808 597 803 q 524 814 547 814 q 454 810 492 814 q 388 792 417 806 q 385 791 386 792 q 383 790 385 790 l 374 786 l 372 785 q 331 763 347 774 q 293 739 314 751 l 289 742 l 290 733 q 279 725 283 731 q 269 715 275 719 q 265 711 269 711 q 264 714 264 711 q 265 725 264 719 q 264 736 267 731 l 267 742 l 268 743 l 268 747 l 271 753 l 271 757 q 278 765 276 763 l 288 772 q 289 775 288 774 q 292 775 290 776 q 311 790 297 782 q 328 800 325 797 l 333 801 l 333 803 l 338 803 l 338 804 q 372 816 353 808 q 406 831 390 824 q 407 830 406 829 q 408 832 408 831 q 458 841 433 838 q 508 844 483 844 q 575 841 542 844 q 640 829 608 838 q 651 824 646 826 q 661 822 657 822 l 664 821 l 683 814 l 685 806 l 690 811 q 704 804 694 807 l 707 801 l 717 799 q 721 795 719 796 q 725 792 722 794 l 729 790 l 733 786 l 738 785 l 740 781 l 746 779 q 750 775 747 776 q 756 772 753 774 q 760 765 756 769 l 765 764 q 784 742 774 753 q 806 722 794 732 q 807 717 806 719 q 810 713 808 715 q 801 710 806 713 q 793 707 797 708 l 782 715 l 785 711 q 774 719 779 715 q 764 726 769 724 m 479 819 l 481 819 q 486 824 486 817 l 479 825 l 479 819 m 467 831 l 468 831 q 472 835 474 831 q 469 836 472 836 q 467 832 467 836 l 467 831 m 707 765 l 704 767 l 703 767 q 686 774 697 768 l 685 775 l 669 781 l 668 782 q 660 783 665 782 q 656 789 656 785 q 683 779 671 785 l 694 772 l 703 767 l 704 767 l 707 765 m 163 426 l 164 424 l 164 408 l 161 406 q 165 397 165 404 q 163 386 164 389 q 167 379 167 382 l 165 376 l 157 369 l 165 368 l 169 347 l 163 339 l 164 336 q 168 326 169 331 l 172 329 q 181 292 175 310 q 192 256 186 275 l 193 254 l 199 239 l 200 238 l 208 219 l 214 206 l 217 206 q 257 144 226 171 q 310 94 288 118 q 314 92 313 96 q 318 90 315 88 q 338 76 322 83 q 356 67 353 69 l 361 65 q 376 58 364 63 q 392 50 388 53 q 396 49 393 51 q 413 43 404 46 q 431 39 421 40 q 426 32 426 35 q 428 29 426 29 l 438 28 l 447 31 q 456 18 449 21 q 469 15 463 15 l 471 21 q 497 18 485 17 q 485 22 490 21 q 472 25 479 24 q 482 31 474 31 q 518 29 500 31 q 556 28 536 28 q 556 19 558 24 q 554 11 553 15 q 558 6 556 8 q 560 0 560 3 l 558 -1 q 542 4 550 0 q 526 11 535 8 l 521 18 l 515 21 q 513 17 513 18 q 519 10 513 13 q 528 8 525 8 l 547 -3 q 533 -6 539 -6 q 503 -4 518 -6 q 472 -1 488 -3 l 469 10 l 468 0 q 439 5 454 0 q 411 10 424 10 l 399 15 l 401 19 l 411 25 l 411 28 l 415 35 l 406 36 q 396 39 400 39 q 389 38 392 39 l 383 29 l 386 19 q 369 24 382 19 q 353 32 356 29 l 346 36 q 340 38 343 35 q 333 42 336 40 l 328 43 q 324 46 328 46 l 301 61 l 299 61 q 293 67 296 64 q 288 69 290 71 l 283 75 q 265 87 276 76 q 242 110 254 97 q 221 136 231 124 q 207 154 211 149 l 207 157 q 197 168 204 160 q 192 179 190 176 l 188 185 q 186 186 186 185 l 185 188 l 183 194 l 181 196 l 179 200 q 174 208 176 201 q 171 217 172 214 q 169 223 172 219 q 165 229 165 226 l 161 240 l 160 243 l 157 257 l 154 257 l 154 260 l 150 274 l 149 276 q 136 349 142 314 q 131 425 131 385 q 138 515 131 465 q 161 601 144 564 l 161 604 l 164 608 l 165 617 q 169 624 171 619 l 179 642 q 179 645 178 643 q 182 647 181 647 l 185 657 l 189 660 q 201 682 192 672 l 203 686 l 207 688 l 208 693 l 211 694 l 213 700 l 217 701 l 218 706 q 231 721 225 713 q 247 733 238 729 q 241 707 243 719 q 233 682 239 694 q 226 685 231 685 q 219 686 222 686 q 208 681 213 686 q 204 671 204 676 q 207 665 207 668 q 208 660 207 663 l 222 651 q 211 631 218 646 q 201 614 204 615 l 199 603 l 197 601 q 176 518 186 557 q 164 433 165 479 l 164 429 q 158 428 161 429 q 156 424 156 426 l 157 422 l 158 421 q 160 424 161 421 q 161 426 158 426 l 163 426 m 481 1 l 478 8 q 476 6 476 8 q 479 1 476 1 l 481 1 m 149 418 q 153 424 153 422 l 153 425 l 149 425 l 149 418 m 610 11 l 619 8 q 644 19 636 15 q 650 46 651 24 q 657 49 653 47 q 664 50 661 50 q 667 47 667 50 l 658 43 l 656 35 q 665 28 660 28 q 675 38 675 28 l 686 36 q 699 51 696 43 l 697 65 l 713 72 q 717 74 714 72 q 722 78 721 76 l 726 79 l 728 82 q 740 90 735 85 q 753 99 746 94 l 763 99 l 768 106 l 768 111 l 772 113 l 774 119 l 765 115 l 754 118 q 747 110 750 117 l 750 100 q 744 95 747 97 q 738 92 742 93 l 738 90 l 735 90 l 731 86 l 725 82 q 703 90 715 88 q 717 99 710 94 q 733 108 725 104 l 735 111 q 754 125 746 118 q 776 136 763 132 l 786 135 l 786 132 l 793 131 q 800 122 796 126 q 807 111 804 118 q 807 108 806 110 q 810 106 808 106 q 783 82 796 96 q 756 61 771 68 l 754 58 l 749 57 l 746 53 l 740 51 l 738 49 l 733 47 q 725 40 728 42 q 718 38 722 42 l 708 35 l 706 31 l 690 26 l 685 35 q 686 22 683 31 q 644 9 665 15 q 600 0 624 3 q 610 11 600 8 m 733 71 q 740 72 738 75 q 753 82 744 76 l 756 82 l 765 92 l 768 92 l 776 99 q 755 86 765 96 q 733 71 744 76 z "},"D":{"ha":892,"x_min":103,"x_max":789,"o":"m 160 51 l 146 51 l 149 43 l 158 39 l 161 51 q 182 51 172 50 q 203 49 192 51 q 247 52 211 51 q 325 53 282 53 q 407 52 368 53 q 463 51 446 51 q 467 53 467 51 q 478 56 472 54 q 489 57 485 57 q 493 54 493 57 q 493 49 493 51 l 499 43 l 499 57 q 504 58 501 60 q 508 56 507 57 l 514 60 l 536 67 l 539 68 l 563 76 l 564 78 l 569 79 l 569 81 l 574 81 l 579 86 l 583 86 l 583 88 l 586 88 l 586 89 l 593 90 l 597 96 l 604 97 q 642 131 619 117 q 681 167 665 144 q 688 178 682 168 q 696 190 694 189 l 697 196 l 701 197 l 703 204 l 707 208 l 708 215 q 726 248 717 221 q 743 308 736 275 q 754 372 750 342 q 757 415 758 403 q 761 394 761 404 l 763 418 l 758 417 l 756 419 q 740 504 749 463 q 715 586 732 546 l 715 589 l 713 594 q 711 599 714 597 q 708 604 708 601 l 697 626 l 693 632 l 689 639 q 683 648 686 642 q 676 657 681 654 l 675 663 l 672 664 l 668 671 l 663 675 l 663 678 q 650 689 658 681 q 633 706 642 697 q 616 720 624 714 q 607 725 608 726 l 603 731 l 597 732 q 596 735 597 733 q 593 735 594 736 l 589 738 q 580 742 583 740 q 572 747 576 744 q 567 749 569 746 q 563 751 564 753 l 554 756 l 547 757 l 547 760 l 538 761 l 536 763 q 458 780 494 778 q 376 782 421 782 l 368 782 q 365 798 364 789 q 367 814 367 807 l 364 821 l 364 832 l 378 832 q 459 828 419 832 q 539 811 499 825 l 542 810 l 583 793 q 589 790 585 790 l 589 788 l 597 785 q 601 783 600 782 q 604 782 601 783 l 604 781 q 615 774 606 779 q 625 769 624 768 l 628 764 q 631 763 629 763 l 632 763 l 636 761 l 638 757 l 643 756 l 644 753 q 678 719 664 736 q 711 683 693 703 q 713 680 714 681 q 714 676 713 679 l 715 676 l 717 672 l 721 671 q 724 663 722 667 q 726 656 725 658 l 728 656 l 732 647 q 735 645 733 647 q 735 642 736 643 q 742 630 738 638 q 746 617 746 622 l 750 614 l 750 608 l 753 606 l 754 596 l 756 594 q 761 581 758 588 q 764 567 764 574 l 765 565 q 769 547 768 558 q 774 532 771 535 l 774 525 l 775 522 q 776 514 775 518 q 776 506 776 510 l 776 503 l 778 503 q 782 432 782 467 l 782 419 q 778 431 779 425 q 778 443 778 438 q 776 430 776 436 q 776 417 776 424 l 783 415 q 787 390 785 403 q 789 365 789 378 q 786 347 789 358 l 785 346 q 786 326 788 339 q 783 307 785 314 l 782 306 l 782 299 q 775 303 778 303 q 769 301 772 303 q 764 299 767 300 q 763 286 764 289 l 767 278 l 775 275 q 772 263 774 268 q 768 250 771 257 l 767 249 q 757 217 765 236 q 737 179 749 199 q 713 142 725 160 q 692 115 700 125 q 677 101 685 108 q 664 88 669 94 l 658 86 q 642 72 651 78 q 625 58 632 65 l 618 57 l 617 53 l 608 50 l 606 47 l 599 46 l 597 43 q 570 30 583 36 q 542 21 557 24 q 534 40 539 29 q 518 50 529 50 l 513 49 q 506 31 506 40 q 508 11 507 21 q 417 0 461 0 q 414 1 414 0 q 417 4 414 3 q 419 8 419 6 l 418 10 l 418 17 l 414 19 q 406 16 410 19 q 401 10 401 13 q 404 6 401 7 q 407 3 407 4 q 406 0 407 0 q 389 1 396 1 q 371 3 382 0 q 355 0 363 0 q 338 0 347 0 l 106 0 l 106 142 q 110 144 106 144 q 113 149 115 143 q 112 155 115 153 q 106 157 108 157 q 105 168 106 163 q 104 181 104 174 q 108 194 104 188 q 104 221 103 206 q 106 247 106 236 l 106 368 q 108 371 106 374 q 113 368 110 368 q 118 371 115 368 q 122 375 121 374 l 118 388 q 113 388 115 389 q 108 386 111 386 q 107 388 107 386 q 113 397 107 397 q 125 397 118 397 q 129 388 128 393 q 138 383 131 383 l 147 393 q 144 399 147 397 q 138 403 140 400 l 132 403 q 126 406 129 404 q 119 407 122 407 q 114 403 117 407 q 107 400 111 400 l 106 400 l 106 428 l 106 429 q 106 431 104 431 q 110 427 108 431 q 113 422 113 424 l 118 419 q 122 422 121 422 q 125 422 122 421 l 125 424 l 132 425 l 139 438 q 135 449 139 444 q 126 458 131 454 l 117 457 l 111 464 l 106 467 q 106 545 107 507 q 104 624 104 583 q 103 671 104 640 q 103 734 103 701 q 104 794 103 767 q 108 835 106 822 q 158 835 121 835 q 236 835 196 835 q 310 834 276 835 q 347 832 343 833 l 350 822 l 349 813 l 351 804 l 350 801 l 354 794 l 351 792 l 354 783 q 331 781 347 782 q 297 781 315 781 q 262 782 278 781 q 240 785 246 783 q 231 781 238 781 q 221 781 225 781 l 163 782 q 160 800 160 793 q 142 783 147 793 l 144 783 q 149 780 147 783 q 150 774 150 776 l 161 771 l 161 522 q 151 523 156 521 q 142 525 147 525 q 129 519 138 525 q 127 512 126 517 q 128 504 128 507 l 131 503 l 133 497 q 141 495 136 494 q 149 496 146 496 l 150 497 q 156 503 153 500 q 161 507 158 507 l 161 419 l 156 417 l 149 410 l 146 410 l 139 407 q 150 407 144 407 q 161 408 156 407 l 161 340 l 158 336 l 153 336 q 152 339 154 338 q 149 339 150 340 q 142 346 146 342 q 136 353 139 350 l 129 353 q 116 345 121 353 q 111 331 111 338 q 112 325 111 328 q 113 319 113 322 l 122 311 q 127 306 125 308 q 132 304 129 303 l 131 296 l 133 304 l 136 304 q 142 308 142 303 q 150 308 143 313 q 154 321 153 315 q 160 333 156 326 q 163 287 164 311 q 161 240 161 263 l 158 235 q 161 222 161 226 q 160 137 161 179 q 160 51 160 94 m 179 807 l 182 804 l 185 804 q 192 811 192 804 q 186 817 192 817 q 179 811 179 817 l 179 807 m 393 810 l 399 815 q 396 817 399 817 q 390 813 390 817 q 393 810 390 810 m 126 469 l 126 463 q 132 476 132 468 l 131 479 l 126 469 m 764 354 q 758 369 764 361 l 758 367 q 764 354 758 360 z "},"E":{"ha":754,"x_min":133,"x_max":621,"o":"m 263 19 l 249 19 l 246 4 l 265 4 q 264 13 264 8 q 263 19 264 17 m 285 14 q 289 4 289 11 q 402 7 346 4 q 515 11 458 10 l 519 11 l 522 13 l 553 14 q 438 15 494 15 q 324 18 381 15 l 322 18 l 317 18 l 317 19 l 279 19 q 279 4 281 11 l 282 4 l 285 14 m 317 22 l 317 19 l 324 18 l 322 22 l 317 22 m 263 22 l 263 19 l 279 19 l 279 22 l 263 22 m 244 35 l 244 32 l 249 25 q 263 22 257 22 l 263 33 l 250 35 l 249 35 l 244 35 m 619 22 l 619 29 l 619 32 l 619 33 l 553 38 l 440 36 q 453 36 447 36 q 467 33 460 36 l 279 33 l 279 22 l 317 22 l 317 24 q 326 22 319 22 q 342 22 333 22 q 357 22 350 22 q 368 22 364 22 l 619 22 m 276 42 l 474 43 q 375 45 425 46 q 276 43 325 44 l 276 42 m 239 42 l 264 42 l 263 43 l 239 43 l 239 42 m 322 814 l 324 818 l 317 818 l 317 814 l 322 814 m 263 793 l 264 794 l 239 794 l 239 793 l 263 793 m 171 22 l 169 21 l 171 18 l 175 18 l 175 19 q 171 22 175 22 m 189 33 q 181 35 186 35 q 185 34 183 33 q 189 33 186 35 m 182 82 l 186 92 l 182 97 l 182 82 m 175 311 q 176 349 175 329 q 171 385 176 368 l 169 382 q 169 214 168 297 q 169 47 171 131 l 168 47 l 171 43 q 176 46 176 43 l 175 311 m 183 450 l 185 436 l 189 433 l 189 450 l 183 450 m 182 754 l 182 739 l 186 744 l 182 754 m 179 801 l 179 800 l 182 796 l 189 801 l 179 801 m 189 803 l 181 803 q 185 802 183 801 q 189 803 186 803 m 263 817 l 263 814 l 279 814 l 279 817 l 263 817 m 139 575 l 140 576 l 139 579 l 139 575 m 136 218 l 136 618 l 138 618 l 138 621 q 138 644 138 632 q 138 669 139 657 l 138 746 l 136 747 q 136 790 136 769 q 133 833 136 811 l 138 833 l 138 835 l 143 835 q 194 833 168 832 q 246 833 219 835 q 267 832 256 833 q 289 832 278 831 l 289 833 q 418 831 354 832 q 549 831 482 831 q 584 831 564 831 q 619 826 604 831 q 587 822 610 822 q 553 822 564 822 q 586 819 569 821 q 619 815 603 818 l 619 808 l 619 804 q 600 801 615 803 q 567 799 585 800 q 533 797 549 797 q 513 796 517 796 l 510 794 l 474 793 q 547 792 510 793 q 619 792 583 790 l 621 788 q 612 786 621 786 q 601 786 603 786 q 422 784 511 786 q 242 782 332 782 l 243 785 q 239 793 243 789 q 233 794 236 793 q 226 794 229 794 q 251 794 238 793 q 276 794 265 794 q 358 797 317 794 q 439 801 399 800 q 324 802 381 801 q 210 803 268 803 q 201 801 208 797 q 190 800 193 804 l 222 793 l 221 782 q 206 781 214 781 q 190 781 199 782 l 189 793 l 182 793 l 179 792 l 181 776 l 181 771 l 181 767 l 182 769 l 190 772 q 190 760 189 765 q 192 747 192 754 q 186 731 192 736 l 186 728 q 188 724 185 725 q 190 717 190 722 q 190 656 189 686 q 190 596 190 626 l 189 594 l 190 593 q 189 523 190 557 q 189 454 188 489 q 198 450 193 450 q 208 450 203 450 q 381 450 294 450 q 553 444 467 450 q 552 431 551 438 q 553 418 553 425 q 552 406 553 411 q 553 393 551 400 q 427 389 490 389 q 300 389 364 389 q 278 389 296 389 q 242 388 261 389 q 206 386 222 388 q 189 383 190 385 q 190 338 188 360 q 192 292 192 315 l 190 244 q 189 242 189 244 q 190 240 189 240 q 190 181 190 211 q 190 119 189 150 q 188 113 190 114 q 186 110 185 113 l 186 107 q 190 99 189 103 q 192 90 192 96 q 190 78 192 83 q 190 65 189 72 l 182 68 l 181 69 l 181 67 l 181 60 l 179 46 l 182 43 l 189 43 l 190 57 q 206 56 199 56 q 221 56 214 57 l 222 44 l 190 38 q 201 36 193 33 q 210 33 208 39 q 325 35 268 35 q 440 36 382 35 q 340 39 390 38 q 240 40 290 40 q 234 42 238 40 q 226 42 231 43 q 239 43 235 44 q 242 56 244 49 q 422 53 332 56 q 601 51 511 51 q 612 51 603 51 q 621 49 621 51 l 619 46 q 547 45 583 46 q 474 43 510 44 l 510 42 l 513 40 l 522 40 q 542 40 528 40 q 572 38 556 39 q 601 36 588 38 q 619 33 615 35 l 619 25 l 619 21 q 586 17 603 19 q 553 14 569 15 q 587 15 564 14 q 619 10 610 15 q 551 6 588 3 q 482 8 514 8 q 385 7 433 8 q 289 4 338 6 q 267 5 278 6 q 246 4 256 4 q 194 3 219 3 q 144 1 169 4 l 138 1 q 137 3 139 3 q 133 4 135 4 q 136 47 136 25 q 136 89 136 68 l 138 90 l 138 168 q 138 192 139 179 q 138 217 138 204 l 138 219 l 136 218 m 139 261 l 139 258 l 140 260 l 139 261 m 153 406 l 151 407 q 154 418 154 415 q 151 429 154 424 l 153 431 l 150 431 q 146 436 150 436 l 143 436 l 142 433 l 142 418 l 142 404 l 143 400 l 146 400 q 150 407 150 400 l 153 406 m 154 354 l 153 356 l 153 357 l 153 354 l 154 354 m 149 121 l 146 119 l 146 110 l 147 110 q 150 115 150 110 q 149 121 146 119 m 156 38 l 158 38 l 163 32 l 165 33 l 165 46 q 161 47 163 46 q 158 47 160 47 q 153 46 153 47 q 156 44 153 44 q 160 42 158 43 l 156 38 m 176 40 q 175 39 175 39 l 176 39 l 176 40 m 179 36 l 189 36 l 181 42 l 179 38 l 179 36 m 169 386 l 175 389 l 175 396 l 171 404 l 169 401 l 169 386 m 183 386 l 189 386 l 189 404 l 185 400 l 183 386 m 171 814 q 175 818 175 814 l 175 819 l 171 819 l 169 815 l 171 814 m 165 803 l 163 804 l 158 800 l 156 800 l 160 794 q 156 794 158 794 q 153 792 153 793 q 158 789 153 789 q 165 792 160 789 l 165 803 m 169 436 l 171 433 l 175 440 l 175 447 l 169 450 l 169 436 m 168 790 l 169 790 l 169 557 l 169 456 l 171 453 q 175 486 174 461 q 177 544 176 511 q 178 615 178 578 q 177 688 178 653 q 176 751 176 722 q 176 792 176 779 q 171 793 176 793 l 168 790 m 154 483 l 153 483 l 153 481 l 153 482 l 154 483 m 150 721 l 150 722 q 147 728 150 728 l 146 726 l 146 717 l 149 715 q 147 719 146 718 q 150 721 149 721 m 176 796 l 176 799 l 175 799 q 176 796 175 796 z "},"F":{"ha":824,"x_min":171,"x_max":653,"o":"m 560 479 q 460 472 515 471 q 360 472 406 472 q 344 473 351 472 q 329 476 336 474 l 329 479 l 331 483 l 350 483 l 353 478 q 356 479 356 476 q 357 482 356 482 l 360 482 l 428 482 q 494 481 461 482 q 560 479 526 481 m 571 478 q 581 478 576 478 q 592 479 586 479 q 571 478 578 479 m 333 465 l 592 465 q 597 460 597 465 l 597 456 q 586 451 597 451 q 571 453 575 451 l 567 457 q 554 453 563 454 q 537 451 546 451 q 519 451 528 451 q 506 451 510 451 q 424 453 465 451 q 342 453 382 454 q 333 465 335 457 m 346 443 l 368 443 q 472 444 419 444 q 576 439 525 443 q 473 433 528 432 q 369 433 418 433 q 350 436 361 433 l 346 443 m 174 260 l 182 257 q 186 221 189 240 l 185 207 q 181 201 182 204 q 185 197 181 199 l 181 194 l 183 192 l 185 92 q 176 58 185 75 q 175 106 174 82 q 175 153 176 129 l 178 156 l 174 161 l 174 213 l 174 219 l 178 228 q 174 233 175 229 q 174 240 174 238 q 174 251 174 246 q 174 260 175 256 m 190 149 q 196 140 193 143 q 198 124 196 132 q 200 107 200 115 q 197 96 200 100 q 192 88 193 92 q 190 107 190 94 l 190 118 l 190 149 m 215 50 q 219 40 219 49 q 218 26 218 31 l 219 -139 q 218 -203 219 -171 q 214 -267 217 -235 q 210 -261 210 -267 l 211 47 l 215 50 l 213 49 l 214 65 l 211 69 q 211 86 211 78 q 210 103 211 94 l 213 107 l 217 108 q 219 81 219 94 q 219 56 218 68 l 215 50 m 203 107 q 204 86 204 100 l 204 57 q 194 46 199 49 q 204 43 199 46 l 204 -267 l 190 -267 l 190 81 q 200 83 193 86 l 199 88 q 201 97 199 93 q 203 107 203 101 m 182 63 q 183 56 182 63 q 183 40 183 49 q 183 22 183 31 q 183 13 183 14 q 185 -51 183 -12 q 187 -129 186 -89 q 187 -207 188 -169 q 181 -267 186 -244 q 176 -265 176 -268 q 175 -260 175 -262 q 176 -103 175 -181 q 176 53 176 -25 l 182 63 m 224 444 l 222 444 q 213 440 215 444 q 206 433 210 436 l 224 433 l 224 444 m 272 438 l 276 444 l 304 444 q 301 440 301 443 q 303 436 300 438 q 294 433 300 432 q 285 433 289 433 l 224 433 q 223 388 222 410 q 224 344 224 367 q 224 307 224 326 q 222 271 225 288 l 219 272 q 219 270 218 272 q 222 268 221 268 l 213 267 q 217 258 213 261 q 222 238 222 256 q 221 217 222 224 q 214 213 217 215 q 207 210 211 210 q 206 240 206 225 q 206 271 206 256 q 203 239 203 256 q 204 207 204 222 l 201 200 q 192 182 192 194 q 190 194 190 189 q 190 207 190 200 l 190 260 l 192 260 q 201 261 197 260 l 197 271 l 190 276 q 189 341 188 308 q 190 406 190 374 q 190 425 190 413 q 188 444 190 438 q 185 404 185 425 q 186 363 185 383 q 188 322 188 343 q 183 282 188 301 l 174 281 q 172 557 172 419 q 171 833 172 694 l 221 833 q 227 830 225 833 q 233 826 229 826 l 239 826 q 244 832 244 826 q 449 826 347 831 q 653 821 550 822 l 653 796 l 300 796 l 301 803 q 293 796 296 797 l 283 796 q 279 797 281 796 q 275 797 278 797 l 271 813 l 264 815 l 256 815 l 254 817 q 249 817 251 817 q 243 818 246 818 q 233 814 238 818 l 229 804 l 225 804 q 218 802 221 804 q 210 801 215 800 q 211 798 208 797 q 215 800 214 799 l 225 800 l 211 797 q 213 774 211 786 q 215 751 214 763 l 211 753 q 215 746 208 746 q 221 615 219 679 q 222 485 222 551 q 256 483 238 482 q 290 483 275 483 l 304 483 l 310 476 q 305 472 308 472 q 299 472 301 472 q 281 472 292 472 q 259 472 271 472 q 237 470 247 471 q 222 468 226 469 q 257 464 233 463 q 293 465 281 465 l 308 465 l 306 456 q 301 453 303 454 q 296 451 299 451 q 288 452 292 451 q 279 453 283 453 l 274 457 q 253 451 260 450 q 232 453 247 453 l 225 453 l 224 444 q 235 445 228 444 q 251 446 243 446 q 266 444 260 446 q 272 438 272 442 m 215 444 l 222 453 l 204 453 l 204 446 l 215 444 m 311 825 q 310 826 311 826 q 306 824 308 826 q 311 822 307 822 q 313 824 313 822 l 311 825 m 185 650 q 185 550 185 601 q 183 450 186 499 q 181 449 181 450 q 182 447 181 447 q 183 447 183 446 l 185 449 l 186 458 l 186 464 q 187 468 186 465 q 190 469 188 471 q 190 542 190 506 q 192 615 189 579 l 190 617 q 190 640 190 626 q 190 669 190 654 q 190 697 190 683 q 188 718 189 710 q 185 684 185 703 q 185 650 185 665 m 215 469 q 209 471 214 471 q 204 468 204 471 l 204 467 l 221 467 l 217 472 l 218 471 q 221 478 221 471 l 221 483 l 206 482 q 212 476 208 479 q 215 469 215 474 m 222 414 l 219 425 q 213 429 217 425 q 222 414 215 419 m 193 324 l 196 324 l 196 374 l 193 374 l 193 324 m 215 374 l 207 374 l 207 372 q 211 368 207 368 l 215 374 z "}}}
